SplineFontDB: 3.2
FontName: Sukoro
FullName: Sukoro
FamilyName: Sukoro
Weight: Regular
Copyright: (c) Copyright 2021 twinletter
Version: Version 1.003;Fontself Maker 3.5.7
ItalicAngle: 0
UnderlinePosition: 0
UnderlineWidth: 0
Ascent: 800
Descent: 200
InvalidEm: 0
sfntRevision: 0x00010000
LayerCount: 2
Layer: 0 0 "Back" 1
Layer: 1 0 "Fore" 0
XUID: [1021 544 -9480482 4725883]
StyleMap: 0x0000
FSType: 0
OS2Version: 4
OS2_WeightWidthSlopeOnly: 0
OS2_UseTypoMetrics: 0
CreationTime: 1635240666
ModificationTime: 1759106413
PfmFamily: 81
TTFWeight: 400
TTFWidth: 5
LineGap: 0
VLineGap: 0
Panose: 0 0 0 0 0 0 0 0 0 0
OS2TypoAscent: 780
OS2TypoAOffset: 0
OS2TypoDescent: -200
OS2TypoDOffset: 0
OS2TypoLinegap: 0
OS2WinAscent: 990
OS2WinAOffset: 0
OS2WinDescent: 188
OS2WinDOffset: 0
HheadAscent: 780
HheadAOffset: 0
HheadDescent: -200
HheadDOffset: 0
OS2SubXSize: 650
OS2SubYSize: 699
OS2SubXOff: 0
OS2SubYOff: 140
OS2SupXSize: 650
OS2SupYSize: 699
OS2SupXOff: 0
OS2SupYOff: 479
OS2StrikeYSize: 49
OS2StrikeYPos: 258
OS2CapHeight: 706
OS2XHeight: 510
OS2Vendor: 'XXXX'
OS2CodePages: 00000003.00000000
OS2UnicodeRanges: 80000027.00000002.00000000.00000000
Lookup: 258 0 0 "'kern' Horizontal Kerning in Latin lookup 0" { "'kern' Horizontal Kerning in Latin lookup 0 per glyph data 0"  "'kern' Horizontal Kerning in Latin lookup 0 kerning class 1"  } ['kern' ('DFLT' <'dflt' > 'latn' <'dflt' > ) ]
MarkAttachClasses: 1
DEI: 91125
KernClass2: 96 99 "'kern' Horizontal Kerning in Latin lookup 0 kerning class 1"
 20 quotedbl quotesingle
 33 comma quotesinglbase quotedblbase
 13 hyphen endash
 50 A Agrave Aacute Acircumflex Atilde Adieresis Aring
 1 B
 10 C Ccedilla
 1 D
 37 E Egrave Eacute Ecircumflex Edieresis
 1 F
 1 G
 1 H
 1 I
 1 J
 1 K
 1 L
 1 M
 8 N Ntilde
 44 O Ograve Oacute Ocircumflex Otilde Odieresis
 1 P
 1 Q
 1 R
 8 S Scaron
 1 T
 37 U Ugrave Uacute Ucircumflex Udieresis
 1 V
 1 W
 1 X
 18 Y Yacute Ydieresis
 8 Z Zcaron
 1 a
 1 b
 10 c ccedilla
 1 d
 1 e
 1 f
 1 g
 1 h
 1 i
 1 j
 1 k

StartChar: .notdef
Encoding: 65536 -1 0
Width: 527
GlyphClass: 1
Flags: W
LayerCount: 2
Fore
SplineSet
50 700 m 1
 477 700 l 1
 477 0 l 1
 50 0 l 1
 50 700 l 1
78 680 m 1
 263 371 l 1
 449 680 l 1
 78 680 l 1
251 350 m 1
 71 650 l 1
 71 49 l 1
 251 350 l 1
264 329 m 1
 79 21 l 1
 449 21 l 1
 264 329 l 1
276 350 m 1
 457 47 l 1
 457 652 l 1
 276 350 l 1
EndSplineSet
Validated: 1
EndChar

StartChar: exclam
Encoding: 33 33 1
Width: 123
GlyphClass: 1
Flags: W
VStem: 57.499 89.5<268.381 334.734>
LayerCount: 2
Fore
SplineSet
23 56 m 2
 21.9990234375 51.9990234375 l 2
 21.33203125 48.666015625 21.1650390625 45.666015625 21.498046875 42.9990234375 c 0
 21.8310546875 40.33203125 21.998046875 37.33203125 21.998046875 33.9990234375 c 0
 23.998046875 24.666015625 27.498046875 16.4990234375 32.498046875 9.4990234375 c 0
 37.498046875 2.4990234375 44.6650390625 -1.0009765625 53.998046875 -1.0009765625 c 0
 54.6650390625 -1.0009765625 55.83203125 -0.833984375 57.4990234375 -0.5009765625 c 2
 59.9990234375 -0.0009765625 l 2
 81.33203125 1.33203125 95.33203125 6.83203125 101.999023438 16.4990234375 c 0
 108.666015625 26.166015625 113.333007812 38.666015625 116 53.9990234375 c 0
 117.333007812 63.9990234375 117 72.33203125 115 78.9990234375 c 0
 113 92.9990234375 105.666992188 101.666015625 93 104.999023438 c 0
 73 104.33203125 57.1669921875 100.33203125 45.5 92.9990234375 c 0
 33.8330078125 85.666015625 26.3330078125 73.3330078125 23 56 c 2
61.9990234375 174.999023438 m 1
 60.998046875 173.99609375 l 1
 62.3310546875 168.663085938 63.8310546875 163.330078125 65.498046875 157.997070312 c 0
 67.1650390625 152.6640625 72.6650390625 148.331054688 81.998046875 144.998046875 c 1
 94.998046875 159.998046875 l 1
 100.998046875 181.998046875 l 2
 104.998046875 196.665039062 109.831054688 213.998046875 115.498046875 233.998046875 c 0
 121.165039062 253.998046875 126.83203125 274.665039062 132.499023438 295.998046875 c 0
 138.166015625 317.331054688 142.666015625 334.6640625 145.999023438 347.997070312 c 0
 146.666015625 348.6640625 146.999023438 349.997070312 146.999023438 351.997070312 c 0
 148.33203125 355.330078125 149.165039062 358.497070312 149.498046875 361.497070312 c 0
 149.831054688 364.497070312 150.331054688 367.330078125 150.998046875 369.997070312 c 0
 151.665039062 372.6640625 151.998046875 374.997070312 151.998046875 376.997070312 c 0
 151.998046875 379.6640625 152.665039062 382.331054688 153.998046875 384.998046875 c 0
 154.665039062 390.331054688 155.165039062 396.1640625 155.498046875 402.497070312 c 0
 155.831054688 408.830078125 155.331054688 415.997070312 153.998046875 423.997070312 c 2
 152.998046875 431.997070312 l 1
 137.998046875 431.997070312 l 2
 124.665039062 431.997070312 113.83203125 429.6640625 105.499023438 424.997070312 c 0
 97.166015625 420.330078125 90.4990234375 413.997070312 85.4990234375 405.997070312 c 0
 80.4990234375 397.997070312 76.666015625 388.830078125 73.9990234375 378.497070312 c 0
 71.33203125 368.1640625 68.9990234375 356.997070312 66.9990234375 344.997070312 c 2
 61.9990234375 305.997070312 l 2
 58.666015625 280.6640625 57.166015625 256.331054688 57.4990234375 232.998046875 c 0
 57.83203125 209.665039062 59.33203125 190.33203125 61.9990234375 174.999023438 c 1
EndSplineSet
Validated: 524329
EndChar

StartChar: quotedbl
Encoding: 34 34 2
Width: 212
GlyphClass: 1
Flags: W
LayerCount: 2
Fore
SplineSet
162 259 m 1
 176.997070312 259 l 1
 187.6640625 263 196.831054688 268.666992188 204.498046875 276 c 0
 212.165039062 283.333007812 218.665039062 291.166015625 223.998046875 299.499023438 c 0
 229.331054688 307.83203125 233.498046875 315.83203125 236.498046875 323.499023438 c 0
 239.498046875 331.166015625 241.665039062 337.333007812 242.998046875 342 c 2
 245.998046875 353 l 1
 248.998046875 364 l 1
 247.998046875 366 l 1
 249.998046875 374 l 1
 248.998046875 381 l 2
 247.665039062 388.333007812 244.83203125 394 240.499023438 398 c 0
 236.166015625 402 230.333007812 405.666992188 223 409 c 0
 223 409.666992188 220.333007812 410 215 410 c 2
 209 410 l 2
 197.666992188 410 189.5 407 184.5 401 c 0
 179.5 395 175 384.333007812 171 369 c 2
 170 365 l 2
 170 361 170.333007812 357.333007812 171 354 c 2
 172 345 l 1
 174 338 l 2
 174 336.666992188 173.833007812 335.5 173.5 334.5 c 0
 173.166992188 333.5 173 332.333007812 173 331 c 2
 163 289 l 2
 161 274.333007812 160.666992188 264.333007812 162 259 c 1
60.9970703125 259 m 1
 76.99609375 258.998046875 l 1
 87.6630859375 262.998046875 96.830078125 268.665039062 104.497070312 275.998046875 c 0
 112.1640625 283.331054688 118.6640625 291.1640625 123.997070312 299.497070312 c 0
 129.330078125 307.830078125 133.497070312 315.830078125 136.497070312 323.497070312 c 0
 139.497070312 331.1640625 141.6640625 337.331054688 142.997070312 341.998046875 c 2
 145.997070312 352.998046875 l 1
 148.997070312 363.998046875 l 1
 147.997070312 365.998046875 l 1
 149.997070312 373.998046875 l 1
 148.997070312 380.998046875 l 2
 147.6640625 388.331054688 144.831054688 393.998046875 140.498046875 397.998046875 c 0
 136.165039062 401.998046875 130.33203125 405.665039062 122.999023438 408.998046875 c 0
 122.999023438 409.665039062 120.33203125 409.998046875 114.999023438 409.998046875 c 2
 107.999023438 409.998046875 l 2
 97.33203125 409.998046875 89.4990234375 406.998046875 84.4990234375 400.998046875 c 0
 79.4990234375 394.998046875 74.9990234375 384.331054688 70.9990234375 368.998046875 c 2
 69.9990234375 364.998046875 l 2
 69.33203125 359.665039062 69.6650390625 354.33203125 70.998046875 348.999023438 c 0
 72.3310546875 343.666015625 72.6640625 337.666015625 71.9970703125 330.999023438 c 2
 62.9970703125 288.999023438 l 2
 61.6640625 283.666015625 60.9970703125 278.333007812 60.9970703125 273 c 2
 60.9970703125 259 l 1
EndSplineSet
Validated: 524297
EndChar

StartChar: numbersign
Encoding: 35 35 3
Width: 378
GlyphClass: 1
Flags: W
HStem: 116.999 64.998<46.4961 105 184 238> 227.997 60.999<64.6275 122 199.998 210.998 218.562 250> 234.997 59.999<327 377.595>
LayerCount: 2
Fore
SplineSet
35 143 m 2xa0
 39 155 48 163.997070312 62 169.997070312 c 0
 76 175.997070312 94 179.997070312 116 181.997070312 c 1
 122 227.997070312 l 1
 91 227.997070312 l 2
 85 227.997070312 80 228.1640625 76 228.497070312 c 0
 72 228.830078125 69.3330078125 228.997070312 68 228.997070312 c 0
 64 230.330078125 60.6669921875 231.330078125 58 231.997070312 c 0
 55.3330078125 232.6640625 53.3330078125 234.6640625 52 237.997070312 c 2
 53 241.997070312 l 1
 54 246.997070312 l 2
 57.3330078125 260.997070312 65.5 271.1640625 78.5 277.497070312 c 0
 91.5 283.830078125 109 287.663085938 131 288.99609375 c 1xc0
 133 302.329101562 135.333007812 313.329101562 138 321.99609375 c 2
 150 360.99609375 l 2
 155.333007812 371.663085938 160.666015625 379.49609375 165.999023438 384.49609375 c 0
 171.33203125 389.49609375 179.665039062 391.99609375 190.998046875 391.99609375 c 0
 200.998046875 391.99609375 206.998046875 386.99609375 208.998046875 376.99609375 c 2
 208.998046875 363.99609375 l 2
 208.998046875 363.329101562 209.165039062 361.162109375 209.498046875 357.495117188 c 0
 209.831054688 353.828125 209.331054688 350.328125 207.998046875 346.995117188 c 2
 199.998046875 289.995117188 l 1
 210.998046875 289.995117188 l 1
 211.998046875 289.495117188 l 2
 212.665039062 289.162109375 214.665039062 288.662109375 217.998046875 287.995117188 c 0
 229.998046875 291.328125 243.331054688 293.328125 257.998046875 293.995117188 c 1
 260.665039062 307.328125 263.33203125 318.328125 265.999023438 326.995117188 c 0
 268.666015625 335.662109375 272.333007812 348.662109375 277 365.995117188 c 0
 282.333007812 376.662109375 287.833007812 384.495117188 293.5 389.495117188 c 0
 299.166992188 394.495117188 307.666992188 396.995117188 319 396.995117188 c 0
 333 396.995117188 341 391.662109375 343 380.995117188 c 0
 343 376.328125 342.666992188 372.328125 342 368.995117188 c 0
 340.666992188 363.662109375 340 360.329101562 340 358.99609375 c 0
 340 357.663085938 338.333007812 353.99609375 335 347.99609375 c 2
 327 294.99609375 l 1
 334 294.99609375 l 2
 341.333007812 294.99609375 348.333007812 294.829101562 355 294.49609375 c 0
 361.666992188 294.163085938 369.333984375 293.330078125 378.000976562 291.997070312 c 2
 396.000976562 282.997070312 l 2
 396.66796875 282.330078125 397.000976562 280.663085938 397.000976562 277.99609375 c 2
 398.000976562 271.99609375 l 1
 400.000976562 261.99609375 l 1
 398.000976562 256.99609375 l 2
 395.333984375 250.329101562 386.833984375 245.329101562 372.500976562 241.99609375 c 0
 358.16796875 238.663085938 340.334960938 236.330078125 319.001953125 234.997070312 c 1
 312.001953125 185.997070312 l 1
 323.334960938 185.330078125 334.16796875 184.330078125 344.500976562 182.997070312 c 0
 354.833984375 181.6640625 365.666992188 180.331054688 377 178.998046875 c 0
 378.333007812 177.665039062 378.666015625 175.998046875 377.999023438 173.998046875 c 2
 379.999023438 167.998046875 l 1
 380.999023438 157.998046875 l 1
 379.999023438 152.998046875 l 2
 376.666015625 144.998046875 368.166015625 138.831054688 354.499023438 134.498046875 c 0
 340.83203125 130.165039062 323.999023438 126.998046875 303.999023438 124.998046875 c 1
 292.999023438 52.998046875 l 2
 290.999023438 36.998046875 286.83203125 25.998046875 280.499023438 19.998046875 c 0
 274.166015625 13.998046875 265.333007812 10.998046875 254 10.998046875 c 0
 246 10.998046875 239.833007812 12.3310546875 235.5 14.998046875 c 0
 231.166992188 17.6650390625 227.666992188 23.6650390625 225 32.998046875 c 2
 237 121.998046875 l 1
 238 123.998046875 l 1
 200 123.998046875 l 2
 194.666992188 122.665039062 190.666992188 121.83203125 188 121.499023438 c 2
 176 119.999023438 l 1
 166 47.9990234375 l 2
 163.333007812 31.9990234375 158.833007812 20.9990234375 152.5 14.9990234375 c 0
 146.166992188 8.9990234375 137.333984375 5.9990234375 126.000976562 5.9990234375 c 0
 118.000976562 5.9990234375 111.16796875 7.33203125 105.500976562 9.9990234375 c 0
 99.833984375 12.666015625 95.6669921875 18.666015625 93 27.9990234375 c 2
 105 116.999023438 l 1
 103 116.999023438 l 2
 89 116.999023438 77.5 117.33203125 68.5 117.999023438 c 0
 59.5 118.666015625 53 119.333007812 49 120 c 0
 41 122 36.3330078125 126 35 132 c 0
 34.3330078125 133.333007812 34 135.333007812 34 138 c 2
 35 143 l 2xa0
250 232.997070312 m 1
 191 229.997070312 l 1
 184 180.997070312 l 1
 243 186.997070312 l 1
 250 232.997070312 l 1
EndSplineSet
Validated: 524293
EndChar

StartChar: dollar
Encoding: 36 36 4
Width: 302
GlyphClass: 1
Flags: W
HStem: 289.997 73.001<280.126 317.781> 320.997 43.001<242.154 266.998>
VStem: 239.001 54.998<149 175.189>
LayerCount: 2
Fore
SplineSet
42 125 m 2x60
 43.3330078125 130.333007812 45.6689453125 136.831054688 49.001953125 144.498046875 c 0
 52.3349609375 152.165039062 57.66796875 155.998046875 65.0009765625 155.998046875 c 2
 70.0009765625 154.998046875 l 1
 115.000976562 117.998046875 l 2
 115.66796875 117.998046875 117.66796875 117.831054688 121.000976562 117.498046875 c 0
 124.333984375 117.165039062 128.000976562 116.665039062 132.000976562 115.998046875 c 1
 149.000976562 208.998046875 l 1
 137.66796875 211.665039062 126.66796875 214.165039062 116.000976562 216.498046875 c 0
 105.333984375 218.831054688 95.5009765625 221.498046875 86.5009765625 224.498046875 c 0
 77.5009765625 227.498046875 70.0009765625 231.498046875 64.0009765625 236.498046875 c 0
 58.0009765625 241.498046875 54.333984375 248.331054688 53.0009765625 256.998046875 c 2
 53.0009765625 268.998046875 l 2
 55.0009765625 278.331054688 60.0009765625 286.998046875 68.0009765625 294.998046875 c 0
 76.0009765625 302.998046875 85.5009765625 310.498046875 96.5009765625 317.498046875 c 0
 107.500976562 324.498046875 119.66796875 330.665039062 133.000976562 335.998046875 c 0
 146.333984375 341.331054688 159.333984375 345.998046875 172.000976562 349.998046875 c 1
 182.000976562 406.998046875 l 2
 186.66796875 414.331054688 191.16796875 419.998046875 195.500976562 423.998046875 c 0
 199.833984375 427.998046875 206.666992188 429.998046875 216 429.998046875 c 2
 221 429.998046875 l 2
 228.333007812 429.331054688 233.666015625 428.498046875 236.999023438 427.498046875 c 0
 240.33203125 426.498046875 242.665039062 422.665039062 243.998046875 415.998046875 c 0
 244.665039062 413.998046875 244.665039062 411.665039062 243.998046875 408.998046875 c 2
 243.998046875 400.998046875 l 1
 241.998046875 361.998046875 l 1
 245.331054688 362.665039062 248.331054688 363.165039062 250.998046875 363.498046875 c 0
 253.665039062 363.831054688 255.665039062 363.998046875 256.998046875 363.998046875 c 2x60
 266.998046875 362.998046875 l 2
 272.998046875 362.998046875 279.498046875 361.998046875 286.498046875 359.998046875 c 0
 293.498046875 357.998046875 300.331054688 355.165039062 306.998046875 351.498046875 c 0
 313.665039062 347.831054688 319.33203125 343.6640625 323.999023438 338.997070312 c 0
 328.666015625 334.330078125 331.333007812 329.330078125 332 323.997070312 c 2
 332 317.997070312 l 1
 331 315.997070312 l 1
 330 309.997070312 l 2
 326.666992188 301.330078125 322.666992188 295.830078125 318 293.497070312 c 0
 313.333007812 291.1640625 307.666015625 289.997070312 300.999023438 289.997070312 c 2
 294.999023438 289.997070312 l 2xa0
 287.666015625 289.997070312 282.666015625 291.497070312 279.999023438 294.497070312 c 0
 277.33203125 297.497070312 275.33203125 300.830078125 273.999023438 304.497070312 c 0
 272.666015625 308.1640625 270.666015625 311.6640625 267.999023438 314.997070312 c 0
 265.33203125 318.330078125 259.999023438 320.330078125 251.999023438 320.997070312 c 2
 243.999023438 320.997070312 l 2
 238.666015625 320.997070312 235.666015625 320.6640625 234.999023438 319.997070312 c 2
 218.999023438 237.997070312 l 1
 236.33203125 229.330078125 252.33203125 219.330078125 266.999023438 207.997070312 c 0
 281.666015625 196.6640625 290.666015625 182.331054688 293.999023438 164.998046875 c 2
 294.999023438 156.998046875 l 2
 295.666015625 155.665039062 295.666015625 154.33203125 294.999023438 152.999023438 c 0
 294.33203125 151.666015625 293.999023438 150.333007812 293.999023438 149 c 2
 284.999023438 125 l 1
 271.666015625 111.666992188 256.499023438 101.166992188 239.499023438 93.5 c 0
 222.499023438 85.8330078125 205.33203125 79.3330078125 187.999023438 74 c 1
 177.999023438 15 l 2
 175.999023438 3 172.33203125 -5.3330078125 166.999023438 -10 c 0
 161.666015625 -14.6669921875 154.333007812 -17 145 -17 c 2
 142 -17 l 2
 134.666992188 -16.3330078125 129.166992188 -15 125.5 -13 c 0
 121.833007812 -11 118.666015625 -6.3330078125 115.999023438 1 c 2
 124.999023438 66 l 1
 115.999023438 67 l 2
 94.666015625 68.3330078125 77.3330078125 71.8330078125 64 77.5 c 0
 50.6669921875 83.1669921875 43 93 41 107 c 2
 40 114 l 2
 39.3330078125 115.333007812 39.3330078125 116.833007812 40 118.5 c 0
 40.6669921875 120.166992188 41 121.666992188 41 123 c 2
 42 125 l 2x60
115.002929688 278.998046875 m 2
 116.000976562 274.997070312 l 2
 117.333984375 270.997070312 120.333984375 267.830078125 125.000976562 265.497070312 c 0
 129.66796875 263.1640625 135.334960938 261.997070312 142.001953125 261.997070312 c 2
 150.001953125 261.997070312 l 2
 154.668945312 261.997070312 157.3359375 262.330078125 158.002929688 262.997070312 c 2
 166.002929688 302.997070312 l 1
 156.669921875 298.997070312 146.169921875 295.330078125 134.502929688 291.997070312 c 0
 122.8359375 288.6640625 116.3359375 284.331054688 115.002929688 278.998046875 c 2
239.000976562 159.997070312 m 2
 237.66796875 161.997070312 235.498046875 163.998046875 232.498046875 165.998046875 c 0
 229.498046875 167.998046875 225.998046875 170.165039062 221.998046875 172.498046875 c 0
 217.998046875 174.831054688 214.331054688 177.1640625 210.998046875 179.497070312 c 0
 207.665039062 181.830078125 205.665039062 183.997070312 204.998046875 185.997070312 c 1
 192.998046875 120.997070312 l 1
 195.665039062 121.6640625 199.33203125 122.997070312 203.999023438 124.997070312 c 0
 208.666015625 126.997070312 213.333007812 129.1640625 218 131.497070312 c 0
 222.666992188 133.830078125 226.833984375 136.330078125 230.500976562 138.997070312 c 0
 234.16796875 141.6640625 236.66796875 143.997070312 238.000976562 145.997070312 c 2
 240.000976562 154.997070312 l 2
 240.000976562 156.997070312 239.66796875 158.330078125 239.000976562 158.997070312 c 2
 239.000976562 159.997070312 l 2
EndSplineSet
Validated: 524289
EndChar

StartChar: percent
Encoding: 37 37 5
Width: 370
GlyphClass: 1
Flags: W
HStem: -0.00292969 51.999<243.337 285.996> 135.994 57.002<256.494 316.37> 222 53<99.9248 139.994> 358.998 56.002<113.023 172.074>
VStem: 175.994 47.5<286.079 353.326> 201.993 41.002<53.3713 75.9961 87.9961 122.586>
LayerCount: 2
Fore
SplineSet
108 8 m 2xf0
 386.997070312 381.000976562 l 2
 386.997070312 381.66796875 386.830078125 382.66796875 386.497070312 384.000976562 c 0
 386.1640625 385.333984375 385.997070312 387.000976562 385.997070312 389.000976562 c 0
 384.6640625 395.000976562 381.997070312 399.333984375 377.997070312 402.000976562 c 0
 373.997070312 404.66796875 368.997070312 407.000976562 362.997070312 409.000976562 c 1
 362.997070312 410.000976562 l 1
 351.6640625 404.000976562 336.6640625 391.833984375 317.997070312 373.500976562 c 0
 299.330078125 355.16796875 278.997070312 333.66796875 256.997070312 309.000976562 c 0
 234.997070312 284.333984375 212.6640625 257.666992188 189.997070312 229 c 0
 167.330078125 200.333007812 146.330078125 172.5 126.997070312 145.5 c 0
 107.6640625 118.5 91.1640625 93.6669921875 77.4970703125 71 c 0
 63.830078125 48.3330078125 54.9970703125 30.3330078125 50.9970703125 17 c 1
 50.9970703125 13 l 2
 50.9970703125 11.6669921875 50.830078125 10.6669921875 50.4970703125 10 c 0
 50.1640625 9.3330078125 50.3310546875 8.3330078125 50.998046875 7 c 0
 51.6650390625 1.6669921875 54.33203125 -1.3330078125 58.9990234375 -2 c 0
 63.666015625 -2.6669921875 68.3330078125 -3 73 -3 c 2
 94 -3 l 2
 97.3330078125 -3 102 0.6669921875 108 8 c 2xf0
58.9970703125 313.000976562 m 0
 58.9970703125 309.000976562 58.8271484375 305 58.494140625 301 c 0
 58.1611328125 297 58.6611328125 293 59.994140625 289 c 0
 63.3271484375 271.666992188 70.16015625 256.166992188 80.4931640625 242.5 c 0
 90.826171875 228.833007812 104.659179688 222 121.9921875 222 c 0
 132.659179688 222 143.4921875 224.5 154.4921875 229.5 c 0
 165.4921875 234.5 175.825195312 241 185.4921875 249 c 0
 195.159179688 257 203.326171875 266.333007812 209.993164062 277 c 0
 216.66015625 287.666992188 220.993164062 298.666992188 222.993164062 310 c 0
 223.66015625 315.333007812 223.827148438 320.5 223.494140625 325.5 c 0xf8
 223.161132812 330.5 222.661132812 335.666992188 221.994140625 341 c 0
 218.661132812 360.333007812 210.828125 377.5 198.495117188 392.5 c 0
 186.162109375 407.5 169.329101562 415 147.99609375 415 c 0
 136.663085938 415 125.99609375 411.333007812 115.99609375 404 c 0
 105.99609375 396.666992188 96.99609375 387.833984375 88.99609375 377.500976562 c 0
 80.99609375 367.16796875 74.3291015625 356.000976562 68.99609375 344.000976562 c 0
 63.6630859375 332.000976562 60.330078125 321.66796875 58.9970703125 313.000976562 c 0
99.994140625 311 m 2
 101.994140625 325.666992188 107.493164062 337.331054688 116.493164062 345.998046875 c 0
 125.493164062 354.665039062 136.66015625 358.998046875 149.993164062 358.998046875 c 0
 158.66015625 358.998046875 164.827148438 357.165039062 168.494140625 353.498046875 c 0
 172.161132812 349.831054688 174.661132812 345.331054688 175.994140625 339.998046875 c 2
 175.994140625 327.998046875 l 2
 175.994140625 323.998046875 175.327148438 319.331054688 173.994140625 313.998046875 c 2
 172.994140625 304.998046875 l 2
 171.661132812 300.331054688 169.994140625 297.331054688 167.994140625 295.998046875 c 0
 165.994140625 294.665039062 161.327148438 291.33203125 153.994140625 285.999023438 c 0
 146.661132812 280.666015625 141.994140625 277.333007812 139.994140625 276 c 2
 128.994140625 275 l 2
 111.661132812 275 101.994140625 282 99.994140625 296 c 2
 97.994140625 302 l 1
 99.994140625 311 l 2
201.993164062 89.9970703125 m 0xf4
 201.326171875 85.9970703125 200.828125 81.99609375 200.495117188 77.99609375 c 0
 200.162109375 73.99609375 200.662109375 69.99609375 201.995117188 65.99609375 c 0
 205.328125 48.6630859375 212.495117188 33.330078125 223.495117188 19.9970703125 c 0
 234.495117188 6.6640625 248.995117188 -0.0029296875 266.995117188 -0.0029296875 c 0
 276.995117188 -0.0029296875 287.662109375 2.4970703125 298.995117188 7.4970703125 c 0
 310.328125 12.4970703125 320.661132812 18.9970703125 329.994140625 26.9970703125 c 0
 339.327148438 34.9970703125 347.494140625 44.1640625 354.494140625 54.4970703125 c 0
 361.494140625 64.830078125 365.661132812 75.6630859375 366.994140625 86.99609375 c 0
 368.994140625 96.3291015625 368.661132812 106.329101562 365.994140625 116.99609375 c 0
 363.327148438 136.99609375 355.66015625 154.663085938 342.993164062 169.99609375 c 0
 330.326171875 185.329101562 313.659179688 192.99609375 292.9921875 192.99609375 c 0
 282.325195312 192.99609375 271.825195312 189.329101562 261.4921875 181.99609375 c 0
 251.159179688 174.663085938 241.826171875 165.830078125 233.493164062 155.497070312 c 0
 225.16015625 145.1640625 218.16015625 133.997070312 212.493164062 121.997070312 c 0
 206.826171875 109.997070312 203.326171875 99.330078125 201.993164062 89.9970703125 c 0xf4
242.995117188 87.99609375 m 0
 244.995117188 102.663085938 250.663085938 114.327148438 259.99609375 122.994140625 c 0
 269.329101562 131.661132812 280.662109375 135.994140625 293.995117188 135.994140625 c 0
 303.328125 135.994140625 309.828125 133.994140625 313.495117188 129.994140625 c 0
 317.162109375 125.994140625 319.329101562 120.661132812 319.99609375 113.994140625 c 0
 321.99609375 106.661132812 321.99609375 98.328125 319.99609375 88.9951171875 c 2
 317.99609375 79.9951171875 l 2
 317.99609375 75.328125 316.663085938 72.328125 313.99609375 70.9951171875 c 0
 311.99609375 68.9951171875 307.49609375 65.828125 300.49609375 61.4951171875 c 0
 293.49609375 57.162109375 288.663085938 54.3291015625 285.99609375 52.99609375 c 2
 275.99609375 51.99609375 l 2
 255.99609375 51.99609375 244.99609375 59.99609375 242.99609375 75.99609375 c 0
 242.329101562 77.3291015625 242.162109375 78.8291015625 242.495117188 80.49609375 c 0
 242.828125 82.1630859375 242.995117188 84.6630859375 242.995117188 87.99609375 c 0
EndSplineSet
Validated: 524297
EndChar

StartChar: ampersand
Encoding: 38 38 6
Width: 301
GlyphClass: 1
Flags: W
HStem: -18.002 131.002<135.702 197.386> 52.999 60.001<192.966 197.996 207.996 223.715> 187.001 49.002<149.917 256.445>
VStem: 73.999 67.998<246.273 287.878>
LayerCount: 2
Fore
SplineSet
129 14 m 1xb0
 128.995117188 9.998046875 l 2
 131.662109375 0.6650390625 133.995117188 -6.3349609375 135.995117188 -11.001953125 c 0
 137.995117188 -15.6689453125 143.995117188 -18.001953125 153.995117188 -18.001953125 c 0xb0
 158.662109375 -18.001953125 161.662109375 -17.6689453125 162.995117188 -17.001953125 c 0
 166.328125 -16.3349609375 169.495117188 -15.16796875 172.495117188 -13.5009765625 c 0
 175.495117188 -11.833984375 178.328125 -8.5009765625 180.995117188 -3.5009765625 c 0
 183.662109375 1.4990234375 186.329101562 8.33203125 188.99609375 16.9990234375 c 0
 191.663085938 25.666015625 194.663085938 37.666015625 197.99609375 52.9990234375 c 1
 202.99609375 52.9990234375 l 2x70
 218.329101562 52.9990234375 231.329101562 53.83203125 241.99609375 55.4990234375 c 0
 252.663085938 57.166015625 264.99609375 59.3330078125 278.99609375 62 c 1
 290.99609375 75.3330078125 297.663085938 86.666015625 298.99609375 95.9990234375 c 0
 299.663085938 95.9990234375 299.99609375 98.666015625 299.99609375 103.999023438 c 0
 298.663085938 111.33203125 295.163085938 117.33203125 289.49609375 121.999023438 c 0
 283.829101562 126.666015625 276.99609375 128.999023438 268.99609375 128.999023438 c 0
 260.329101562 128.999023438 252.49609375 128.166015625 245.49609375 126.499023438 c 0
 238.49609375 124.83203125 231.329101562 121.33203125 223.99609375 115.999023438 c 0
 217.99609375 114.666015625 212.663085938 113.833007812 207.99609375 113.5 c 0
 203.329101562 113.166992188 196.329101562 113 186.99609375 113 c 0
 177.663085938 113 168.663085938 113.333007812 159.99609375 114 c 0
 151.329101562 114.666992188 143.329101562 116.166992188 135.99609375 118.5 c 0
 128.663085938 120.833007812 122.49609375 124 117.49609375 128 c 0
 112.49609375 132 109.663085938 137.333007812 108.99609375 144 c 2
 108.99609375 154 l 2
 110.329101562 157.333007812 111.329101562 160 111.99609375 162 c 0
 112.663085938 164 113.99609375 167 115.99609375 171 c 2
 116.99609375 173 l 1
 123.49609375 181 l 2
 127.829101562 186.333007812 131.829101562 191.333007812 135.49609375 196 c 0
 139.163085938 200.666992188 141.330078125 203.333984375 141.997070312 204.000976562 c 0
 175.997070312 192.66796875 207.330078125 187.000976562 235.997070312 187.000976562 c 2
 241.997070312 187.000976562 l 2
 243.997070312 187.000976562 246.6640625 189.333984375 249.997070312 194.000976562 c 0
 253.330078125 198.66796875 255.663085938 204.334960938 256.99609375 211.001953125 c 0
 258.329101562 212.334960938 258.329101562 214.001953125 256.99609375 216.001953125 c 0
 255.663085938 222.668945312 247.663085938 229.3359375 232.99609375 236.002929688 c 1
 207.663085938 236.002929688 186.830078125 238.502929688 170.497070312 243.502929688 c 0
 154.1640625 248.502929688 144.997070312 259.002929688 142.997070312 275.002929688 c 0
 142.330078125 276.3359375 141.997070312 278.3359375 141.997070312 281.002929688 c 0
 142.6640625 283.002929688 142.6640625 285.3359375 141.997070312 288.002929688 c 0
 144.6640625 292.669921875 148.497070312 296.502929688 153.497070312 299.502929688 c 0
 158.497070312 302.502929688 163.830078125 304.8359375 169.497070312 306.502929688 c 0
 175.1640625 308.169921875 180.497070312 309.336914062 185.497070312 310.00390625 c 0
 190.497070312 310.670898438 193.997070312 311.00390625 195.997070312 311.00390625 c 2
 214.997070312 311.00390625 l 2
 220.997070312 311.00390625 230.1640625 309.336914062 242.497070312 306.00390625 c 0
 254.830078125 302.670898438 268.330078125 301.00390625 282.997070312 301.00390625 c 0
 290.330078125 301.00390625 296.497070312 302.670898438 301.497070312 306.00390625 c 0
 306.497070312 309.336914062 309.6640625 313.00390625 310.997070312 317.00390625 c 0
 311.6640625 317.670898438 311.331054688 321.00390625 309.998046875 327.00390625 c 0
 308.665039062 330.336914062 307.665039062 333.50390625 306.998046875 336.50390625 c 0
 306.331054688 339.50390625 303.6640625 342.00390625 298.997070312 344.00390625 c 0
 297.6640625 346.00390625 292.1640625 348.670898438 282.497070312 352.00390625 c 0
 272.830078125 355.336914062 260.997070312 357.669921875 246.997070312 359.002929688 c 1
 251.997070312 390.002929688 l 1
 249.997070312 412.002929688 l 1
 249.997070312 416.002929688 l 1
 248.997070312 418.002929688 l 2
 243.6640625 423.3359375 238.331054688 426.002929688 232.998046875 426.002929688 c 0
 225.665039062 426.002929688 219.498046875 423.8359375 214.498046875 419.502929688 c 0
 209.498046875 415.169921875 205.331054688 410.002929688 201.998046875 404.002929688 c 0
 198.665039062 398.002929688 195.998046875 391.502929688 193.998046875 384.502929688 c 0
 191.998046875 377.502929688 190.665039062 371.3359375 189.998046875 366.002929688 c 2
 188.998046875 359.002929688 l 1
 166.998046875 356.3359375 145.331054688 351.002929688 123.998046875 343.002929688 c 0
 102.665039062 335.002929688 87.33203125 321.669921875 77.9990234375 303.002929688 c 2
 73.9990234375 292.002929688 l 2
 73.33203125 283.3359375 73.33203125 275.668945312 73.9990234375 269.001953125 c 0
 75.9990234375 258.334960938 78.9990234375 249.66796875 82.9990234375 243.000976562 c 0
 86.9990234375 236.333984375 89.666015625 230.333984375 90.9990234375 225.000976562 c 2
 89.9990234375 222.000976562 l 2
 89.9990234375 219.333984375 89.666015625 218.000976562 88.9990234375 218.000976562 c 0
 80.33203125 212.66796875 71.9990234375 206.16796875 63.9990234375 198.500976562 c 0
 55.9990234375 190.833984375 48.9990234375 181.000976562 42.9990234375 169.000976562 c 0
 38.9990234375 164.333984375 36.666015625 156.666992188 35.9990234375 146 c 0
 33.9990234375 138 33.9990234375 130.333007812 35.9990234375 123 c 0
 38.666015625 107.666992188 44.8330078125 94.1669921875 54.5 82.5 c 0
 64.1669921875 70.8330078125 78.6669921875 63.3330078125 98 60 c 0
 104 58.6669921875 110 57.833984375 116 57.5009765625 c 0
 122 57.16796875 128.333007812 56.66796875 135 56.0009765625 c 1
 130 23.0009765625 l 1
 128 17.0009765625 l 2
 127.333007812 16.333984375 127.333007812 15.6669921875 128 15 c 0
 128 14.3330078125 128.333007812 14 129 14 c 1xb0
EndSplineSet
Validated: 524297
EndChar

StartChar: quotesingle
Encoding: 39 39 7
Width: 114
GlyphClass: 1
Flags: W
LayerCount: 2
Fore
SplineSet
58 259 m 1
 75.0029296875 259.002929688 l 2
 85.669921875 263.002929688 95.169921875 268.669921875 103.502929688 276.002929688 c 0
 111.8359375 283.3359375 118.8359375 291.002929688 124.502929688 299.002929688 c 0
 130.169921875 307.002929688 134.669921875 314.8359375 138.002929688 322.502929688 c 0
 141.3359375 330.169921875 143.668945312 336.669921875 145.001953125 342.002929688 c 2
 148.001953125 353.002929688 l 1
 151.001953125 364.002929688 l 1
 150.001953125 366.002929688 l 2
 151.334960938 369.3359375 151.66796875 371.668945312 151.000976562 373.001953125 c 2
 150.000976562 380.001953125 l 2
 149.333984375 387.334960938 146.666992188 393.16796875 142 397.500976562 c 0
 137.333007812 401.833984375 131 405.666992188 123 409 c 0
 123 409.666992188 120.333007812 410 115 410 c 2
 107 410 l 2
 95.6669921875 410 87.1669921875 407 81.5 401 c 0
 75.8330078125 395 71 384.333007812 67 369 c 2
 66 365 l 2
 66 361 66.3330078125 357.333007812 67 354 c 2
 68 345 l 1
 70 338 l 2
 70 336.666992188 69.8330078125 335.5 69.5 334.5 c 0
 69.1669921875 333.5 69 332.333007812 69 331 c 2
 59 289 l 2
 57 274.333007812 56.6669921875 264.333007812 58 259 c 1
EndSplineSet
Validated: 524297
EndChar

StartChar: parenleft
Encoding: 40 40 8
Width: 377
GlyphClass: 1
Flags: W
LayerCount: 2
Fore
SplineSet
191.671875 488.799804688 m 0
 158.9921875 424.879882812 139.232421875 354.912109375 135.602539062 283.841796875 c 0
 132.15234375 212.801757812 142.671875 140.561523438 167.08203125 71.611328125 c 0
 191.15234375 2.791015625 227.612304688 -64.0087890625 273.47265625 -122.098632812 c 1
 247.142578125 -120.499023438 220.22265625 -116.749023438 193.203125 -111.638671875 c 1
 158.703125 -84.8984375 107.743164062 -21.4384765625 72.373046875 67.94140625 c 0
 68.2431640625 79.1513671875 63.3935546875 90.4716796875 59.8037109375 102.391601562 c 0
 56.3037109375 114.372070312 52.744140625 126.541992188 49.154296875 138.872070312 c 0
 43.6142578125 163.952148438 37.673828125 189.83203125 35.4638671875 216.622070312 c 0
 34.7333984375 223.301757812 34.0029296875 230.001953125 33.2724609375 236.721679688 c 0
 32.5029296875 243.44140625 32.7724609375 250.241210938 32.4921875 257.021484375 c 0
 32.3720703125 270.6015625 31.6318359375 284.271484375 32.2314453125 297.901367188 c 0
 33.3115234375 311.53125 34.3916015625 325.161132812 35.4619140625 338.750976562 c 2
 36.3515625 348.94140625 l 1
 38.1318359375 359.000976562 l 2
 39.341796875 365.7109375 40.5517578125 372.380859375 41.751953125 379.041015625 c 0
 44.3115234375 392.350585938 46.271484375 405.700195312 50.091796875 418.520507812 c 0
 51.83203125 424.970703125 53.5625 431.390625 55.2822265625 437.780273438 c 0
 57.322265625 444.080078125 59.3525390625 450.349609375 61.3720703125 456.569335938 c 0
 69.5419921875 481.458984375 79.482421875 505.088867188 90.15234375 527.268554688 c 0
 111.772460938 571.518554688 136.602539062 609.728515625 160.422851562 640.068359375 c 0
 184.123046875 670.528320312 206.163085938 693.638671875 222.012695312 709.168945312 c 0
 237.913085938 724.668945312 247.403320312 732.848632812 247.403320312 732.848632812 c 1
 325.413085938 660.088867188 l 1
 270.342773438 611.0390625 224.40234375 552.76953125 191.671875 488.799804688 c 0
EndSplineSet
Validated: 524321
EndChar

StartChar: parenright
Encoding: 41 41 9
Width: 377
GlyphClass: 1
Flags: W
VStem: 221.811 103.11<121.071 405.043>
LayerCount: 2
Fore
SplineSet
165.741210938 488.799804688 m 0
 198.420898438 424.879882812 218.180664062 354.912109375 221.810546875 283.841796875 c 0
 225.260742188 212.801757812 214.741210938 140.561523438 190.331054688 71.611328125 c 0
 166.260742188 2.791015625 129.80078125 -64.0087890625 83.9404296875 -122.098632812 c 1
 110.270507812 -120.499023438 137.190429688 -116.749023438 164.209960938 -111.638671875 c 1
 198.709960938 -84.8984375 249.669921875 -21.4384765625 285.040039062 67.94140625 c 0
 289.169921875 79.1513671875 294.01953125 90.4716796875 297.609375 102.391601562 c 0
 301.109375 114.372070312 304.668945312 126.541992188 308.258789062 138.872070312 c 0
 313.798828125 163.952148438 319.739257812 189.83203125 321.94921875 216.622070312 c 0
 322.6796875 223.301757812 323.41015625 230.001953125 324.140625 236.721679688 c 0
 324.91015625 243.44140625 324.640625 250.241210938 324.920898438 257.021484375 c 0
 325.041015625 270.6015625 325.78125 284.271484375 325.181640625 297.901367188 c 0
 324.1015625 311.53125 323.021484375 325.161132812 321.951171875 338.750976562 c 2
 321.061523438 348.94140625 l 1
 319.28125 359.000976562 l 2
 318.071289062 365.7109375 316.861328125 372.380859375 315.661132812 379.041015625 c 0
 313.1015625 392.350585938 311.141601562 405.700195312 307.321289062 418.520507812 c 0
 305.581054688 424.970703125 303.850585938 431.390625 302.130859375 437.780273438 c 0
 300.090820312 444.080078125 298.060546875 450.349609375 296.041015625 456.569335938 c 0
 287.87109375 481.458984375 277.930664062 505.088867188 267.260742188 527.268554688 c 0
 245.640625 571.518554688 220.810546875 609.728515625 196.990234375 640.068359375 c 0
 173.290039062 670.528320312 151.25 693.638671875 135.400390625 709.168945312 c 0
 119.5 724.668945312 110.009765625 732.848632812 110.009765625 732.848632812 c 1
 32 660.088867188 l 1
 87.0703125 611.0390625 133.010742188 552.76953125 165.741210938 488.799804688 c 0
EndSplineSet
Validated: 524329
EndChar

StartChar: asterisk
Encoding: 42 42 10
Width: 270
GlyphClass: 1
Flags: W
HStem: 690 7<231.957 238.996>
VStem: 135 4<579.004 597.326> 139 2<597 597.326> 161 2<744.999 758.997>
LayerCount: 2
Fore
SplineSet
184 687 m 1xd0
 204 691 225 689 240 687 c 1
 227 687 209 689 175 677 c 1
 186 665 196 650 204 634 c 1
 200 638 198 640 201 635 c 0
 211 622 211 615 211 614 c 1
 203 632 173 653 173 653 c 1
 186 643 197 630 204 619 c 1
 184 632 167 643 151 651 c 1
 147 631 144 611 141 597 c 1
 140 604 139 608 139 601 c 0xb0
 139 585 135 579 135 579 c 1
 138 597 128 627 128 627 c 1
 133 614 134 599 134 587 c 1
 131 602 128 627 123 654 c 1
 106 645 87 633 65 619 c 1
 73 630 83 643 96 653 c 1
 96 653 66 632 58 614 c 1
 58 615 58 622 68 635 c 0
 71 640 69 638 65 634 c 1
 73 650 83 665 94 677 c 1
 61 689 42 687 30 687 c 1
 44 689 65 691 85 687 c 1
 85 687 49 696 31 690 c 1
 31 690 36 695 52 697 c 0
 64 698 45 698 32 699 c 1
 40 709 52 723 65 732 c 1
 77 729 97 724 114 715 c 1
 103 722 84 732 71 733 c 1
 71 733 78 736 94 731 c 0
 103 729 92 734 81 739 c 1
 89 738 99 734 112 728 c 1
 107 756 103 779 101 785 c 1
 102 785 l 1
 107 773 112 757 113 742 c 1
 113 742 113 771 106 783 c 1
 106 783 110 782 113 775 c 0
 116 768 115 775 113 783 c 1
 126 780 148 771 160 760 c 1
 160 753 159 743 155 731 c 1
 155 731 163 746 161 759 c 1
 161 759 164 755 163 743 c 0
 163 737 165 745 166 753 c 1
 167 753 166 744 164 731 c 1
 174 735 182 738 188 739 c 1
 177 734 166 729 175 731 c 0
 191 736 198 733 198 733 c 1
 187 733 173 725 162 719 c 1
 162 718 l 1
 177 725 193 729 205 732 c 1
 217 723 230 709 237 699 c 1
 224 698 206 698 217 697 c 0
 233 695 239 690 239 690 c 1
 221 696 184 687 184 687 c 1xd0
EndSplineSet
Validated: 37
EndChar

StartChar: plus
Encoding: 43 43 11
Width: 396
GlyphClass: 1
Flags: W
HStem: 343 3<317.437 318> 355 46<47.1425 96 300 354.214> 395 11<300 342.517> 404 3<78 78.6093> 406 1<364.295 366> 522 20G<147 152 155 160 167 175.5>
VStem: 200 6<208.053 237.513> 206 3<237 237.513> 244 5<490.39 491>
LayerCount: 2
Fore
SplineSet
366 407 m 1x8e80
 366 407 366 407 366 406 c 0x8e80
 348 401 324 396 300 395 c 1
 300 395 345 396 364 402 c 1
 364 402 362 398 352 395 c 0
 341 392 351 393 364 395 c 1
 359 382 346 361 329 349 c 1
 318 349 302 350 285 354 c 1
 285 354 307 346 326 348 c 1
 326 348 320 345 303 346 c 0
 293 346 306 345 318 343 c 1
 317 342 277 343 227 343 c 1
 221 303 214 264 209 237 c 1
 207 248 205 255 206 244 c 0xa580
 206 218 200 209 200 208 c 1
 205 238 189 287 189 287 c 1
 196 264 198 241 198 222 c 1
 194 247 187 293 179 343 c 1
 109 344 37 344 31 343 c 0
 30 343 30 343 30 343 c 1
 49 348 73 353 96 355 c 1
 96 355 52 354 33 348 c 1
 33 348 34 352 45 354 c 0
 56 358 46 356 33 354 c 1
 38 367 51 388 68 401 c 1xc680
 79 401 95 399 112 395 c 1xa680
 112 395 89 404 70 402 c 1
 70 402 76 404 93 404 c 0
 104 403 91 405 78 407 c 1x9680
 78 407 78 407 79 407 c 2
 79 407 120 407 170 407 c 1
 160 471 151 529 147 542 c 1
 147 542 147 542 148 542 c 0
 156 522 164 497 166 472 c 1
 166 472 165 519 155 539 c 1
 155 539 161 538 166 526 c 0
 171 515 169 525 165 540 c 1
 186 534 220 520 239 502 c 1
 239 490 237 473 231 455 c 1
 231 455 244 479 241 499 c 1
 241 499 245 493 244 475 c 0
 243 464 246 478 249 491 c 1
 250 489 245 453 238 406 c 1
 301 406 360 406 366 407 c 1x8e80
EndSplineSet
Validated: 37
EndChar

StartChar: comma
Encoding: 44 44 12
Width: 164
GlyphClass: 1
Flags: W
HStem: -60 159
VStem: 30 104<5.43196 88.7521>
LayerCount: 2
Fore
SplineSet
82 99 m 0
 111 99 134 76 134 47 c 0
 134 41 133 36 131 31 c 0
 125 7 107 -24 69 -53 c 1
 73 -45 76 -38 72 -44 c 0
 63 -57 57 -60 56 -60 c 1
 69 -47 79 -11 79 -11 c 1
 74 -26 66 -41 58 -52 c 1
 64 -32 67 -16 68 -3 c 1
 46 3 30 23 30 47 c 0
 30 62 36 75 46 84 c 1
 55 93 68 99 82 99 c 0
EndSplineSet
Validated: 5
EndChar

StartChar: hyphen
Encoding: 45 45 13
Width: 294
GlyphClass: 1
Flags: W
LayerCount: 2
Fore
SplineSet
25.009765625 361.549804688 m 1
 270.4296875 345.139648438 l 1
 256.469726562 288.599609375 l 1
 214.9296875 237.489257812 25 255.849609375 25 255.849609375 c 1
 25.009765625 361.549804688 l 1
EndSplineSet
Validated: 524321
EndChar

StartChar: period
Encoding: 46 46 14
Width: 164
GlyphClass: 1
Flags: W
HStem: -4 104<57.375 108.624>
VStem: 30 5<66 70.7492> 126 8<21.9107 35.4066>
LayerCount: 2
Fore
SplineSet
82 100 m 0
 111 100 134 76 134 48 c 0
 134 38 131 28 126 20 c 1
 127 32 129 44 126 35 c 0
 122 18 116 14 116 14 c 1
 125 31 123 68 123 68 c 1
 123 42 114 16 109 3 c 1
 101 -1 92 -4 82 -4 c 0
 53 -4 30 19 30 48 c 0
 30 57 32 65 36 73 c 1
 34 66 34 62 37 68 c 0
 44 83 50 87 50 87 c 1
 39 72 35 35 35 35 c 1
 38 58 50 81 57 93 c 1
 65 97 73 100 82 100 c 0
EndSplineSet
Validated: 33
EndChar

StartChar: slash
Encoding: 47 47 15
Width: 493
GlyphClass: 1
Flags: W
VStem: 327 11<654.641 686.864> 422 10<590.604 609.141>
LayerCount: 2
Fore
SplineSet
438 590 m 1
 440 586 443 582 445 579 c 0
 463 545 358 301 194 126 c 1
 231 176 254 224 254 224 c 1
 227 183 206 143 128 64 c 0
 127 63 126 62 125 61 c 0
 99 39 72 19 43 2 c 1
 54 16 59 25 59 25 c 1
 52 16 45 8 38 -1 c 0
 35 -3 33 -4 30 -5 c 1
 278 309 326 633 327 687 c 0
 328 688 335 688 336 685 c 2
 334 651 l 1
 341 682 l 1
 347 679 365 670 363 668 c 1
 348 646 341 585 339 564 c 0
 338 561 338 559 338 557 c 0
 338 556 340 559 340 564 c 0
 342 572 343 584 343 584 c 1
 343 584 343 559 348 585 c 0
 351 607 369 646 374 659 c 1
 377 654 394 648 392 644 c 0
 385 632 370 594 385 606 c 0
 391 611 398 622 405 631 c 0
 408 634 411 625 414 621 c 0
 405 584 409 542 409 542 c 1
 409 542 416 588 422 612 c 1
 426 608 431 605 432 600 c 0
 430 536 382 409 382 409 c 1
 414 471 433 562 438 590 c 1
EndSplineSet
Validated: 33
EndChar

StartChar: zero
Encoding: 48 48 16
Width: 358
GlyphClass: 1
Flags: W
HStem: 14.999 65<119.41 230.163> 317 67<176.617 292.603>
LayerCount: 2
Fore
SplineSet
374 279 m 1
 373.000976562 281 l 1
 371.66796875 293 368.16796875 305.166992188 362.500976562 317.5 c 0
 356.833984375 329.833007812 349.500976562 340.833007812 340.500976562 350.5 c 0
 331.500976562 360.166992188 321.16796875 368.166992188 309.500976562 374.5 c 0
 297.833984375 380.833007812 285.333984375 384 272.000976562 384 c 0
 209.333984375 384 157.666992188 368.333007812 117 337 c 0
 76.3330078125 305.666992188 51.666015625 260.666992188 42.9990234375 202 c 0
 42.33203125 192.666992188 41.9990234375 181.666992188 41.9990234375 169 c 0
 41.9990234375 156.333007812 42.9990234375 142 44.9990234375 126 c 2
 44.9990234375 122 l 2
 46.9990234375 107.333007812 51.4990234375 93.5 58.4990234375 80.5 c 0
 65.4990234375 67.5 74.166015625 56.1669921875 84.4990234375 46.5 c 0
 94.83203125 36.8330078125 106.999023438 29.166015625 120.999023438 23.4990234375 c 0
 134.999023438 17.83203125 149.999023438 14.9990234375 165.999023438 14.9990234375 c 0
 192.666015625 14.9990234375 217.833007812 20.33203125 241.5 30.9990234375 c 0
 265.166992188 41.666015625 286.166992188 56.3330078125 304.5 75 c 0
 322.833007812 93.6669921875 338 115.166992188 350 139.5 c 0
 362 163.833007812 370 190 374 218 c 0
 375.333007812 227.333007812 375.833007812 237 375.5 247 c 0
 375.166992188 257 374.666992188 267.666992188 374 279 c 1
306.000976562 266 m 2
 307.999023438 253.999023438 l 2
 309.999023438 246.666015625 310.33203125 237.999023438 308.999023438 227.999023438 c 0
 305.666015625 207.33203125 299.499023438 187.999023438 290.499023438 169.999023438 c 0
 281.499023438 151.999023438 270.166015625 136.33203125 256.499023438 122.999023438 c 0
 242.83203125 109.666015625 227.83203125 99.166015625 211.499023438 91.4990234375 c 0
 195.166015625 83.83203125 178.666015625 79.9990234375 161.999023438 79.9990234375 c 0
 142.666015625 79.9990234375 129.333007812 84.4990234375 122 93.4990234375 c 0
 114.666992188 102.499023438 109.333984375 116.666015625 106.000976562 135.999023438 c 0
 104.000976562 151.999023438 104.333984375 167.33203125 107.000976562 181.999023438 c 0
 113.000976562 224.666015625 129.833984375 257.833007812 157.500976562 281.5 c 0
 185.16796875 305.166992188 219.000976562 317 259.000976562 317 c 0
 265.000976562 317 270.66796875 315.166992188 276.000976562 311.5 c 0
 281.333984375 307.833007812 286.166992188 303.333007812 290.5 298 c 0
 294.833007812 292.666992188 298.333007812 287 301 281 c 0
 303.666992188 275 305.333984375 270 306.000976562 266 c 2
EndSplineSet
Validated: 524329
EndChar

StartChar: one
Encoding: 49 49 17
Width: 132
GlyphClass: 1
Flags: W
LayerCount: 2
Fore
SplineSet
128 406 m 1
 123.00390625 404.999023438 l 2
 119.00390625 402.999023438 115.670898438 400.499023438 113.00390625 397.499023438 c 0
 110.336914062 394.499023438 106.669921875 386.33203125 102.002929688 372.999023438 c 0
 97.3359375 358.999023438 92.3359375 341.999023438 87.0029296875 321.999023438 c 0
 81.669921875 301.999023438 76.5029296875 280.999023438 71.5029296875 258.999023438 c 0
 66.5029296875 236.999023438 61.5029296875 215.166015625 56.5029296875 193.499023438 c 0
 51.5029296875 171.83203125 47.169921875 152.33203125 43.5029296875 134.999023438 c 0
 39.8359375 117.666015625 36.8359375 103.499023438 34.5029296875 92.4990234375 c 2
 31.0029296875 75.9990234375 l 2
 28.3359375 68.666015625 26.3359375 63.3330078125 25.0029296875 60 c 2
 23.0029296875 55 l 1
 23.0029296875 48 l 1
 22.0029296875 44 l 1
 24.0029296875 33.3330078125 30.0029296875 23.3330078125 40.0029296875 14 c 0
 46.0029296875 12.6669921875 50.669921875 11.5 54.0029296875 10.5 c 0
 57.3359375 9.5 59.6689453125 9 61.001953125 9 c 0
 62.3349609375 9 65.16796875 9.5 69.5009765625 10.5 c 0
 73.833984375 11.5 79.6669921875 12.6669921875 87 14 c 1
 172 390 l 1
 171 393 l 2
 169.666992188 397.666992188 166.5 401 161.5 403 c 0
 156.5 405 151 406 145 406 c 2
 128 406 l 1
EndSplineSet
Validated: 524297
EndChar

StartChar: two
Encoding: 50 50 18
Width: 316
GlyphClass: 1
Flags: W
HStem: 0.00292969 85.9971<100.047 276.324> 0.00292969 63.999<107.375 276.324> 333.002 59<138.251 182.001 183.001 245.476>
VStem: 25.001 297.999
LayerCount: 2
Fore
SplineSet
308 61 m 2xb0
 298 39 283.500976562 23.669921875 264.500976562 15.0029296875 c 0
 245.500976562 6.3359375 225.333984375 1.3359375 204.000976562 0.0029296875 c 2
 156.000976562 0.0029296875 l 2xb0
 153.333984375 0.0029296875 150.333984375 0.169921875 147.000976562 0.5029296875 c 0
 143.66796875 0.8359375 140.000976562 1.3359375 136.000976562 2.0029296875 c 0
 116.66796875 4.669921875 96.66796875 7.3369140625 76.0009765625 10.00390625 c 0
 55.333984375 12.6708984375 38.333984375 16.337890625 25.0009765625 21.0048828125 c 1
 24.5009765625 22.0048828125 l 2
 24.16796875 22.671875 24.0009765625 23.671875 24.0009765625 25.0048828125 c 0
 22.66796875 30.337890625 22.5009765625 39.0048828125 23.5009765625 51.0048828125 c 0
 24.5009765625 63.0048828125 25.66796875 74.671875 27.0009765625 86.0048828125 c 2
 31.0009765625 113.004882812 l 2
 33.0009765625 123.004882812 34.5009765625 132.337890625 35.5009765625 141.004882812 c 0
 36.5009765625 149.671875 37.66796875 155.004882812 39.0009765625 157.004882812 c 0
 45.0009765625 170.337890625 54.0009765625 180.504882812 66.0009765625 187.504882812 c 0
 78.0009765625 194.504882812 91.333984375 199.504882812 106.000976562 202.504882812 c 0
 120.66796875 205.504882812 136.000976562 207.671875 152.000976562 209.004882812 c 0
 168.000976562 210.337890625 183.16796875 212.170898438 197.500976562 214.50390625 c 0
 211.833984375 216.836914062 224.500976562 220.669921875 235.500976562 226.002929688 c 0
 246.500976562 231.3359375 254.333984375 239.668945312 259.000976562 251.001953125 c 2
 262.000976562 260.001953125 l 1
 263.000976562 263.001953125 l 2
 263.66796875 265.668945312 263.834960938 268.3359375 263.501953125 271.002929688 c 0
 263.168945312 273.669921875 263.001953125 276.669921875 263.001953125 280.002929688 c 0
 259.668945312 297.3359375 250.168945312 310.668945312 234.501953125 320.001953125 c 0
 218.834960938 329.334960938 201.66796875 334.001953125 183.000976562 334.001953125 c 1
 182.000976562 333.001953125 l 1
 175.333984375 333.001953125 167.666992188 331.668945312 159 329.001953125 c 0
 150.333007812 326.334960938 143.333007812 323.334960938 138 320.001953125 c 0
 134.666992188 314.668945312 132.333984375 308.668945312 131.000976562 302.001953125 c 0
 129.66796875 295.334960938 127.334960938 289.334960938 124.001953125 284.001953125 c 0
 120.668945312 280.001953125 117.001953125 276.501953125 113.001953125 273.501953125 c 0
 109.001953125 270.501953125 105.668945312 269.001953125 103.001953125 269.001953125 c 0
 93.6689453125 269.001953125 87.1689453125 270.834960938 83.501953125 274.501953125 c 0
 79.8349609375 278.168945312 77.3349609375 283.668945312 76.001953125 291.001953125 c 0
 74.6689453125 297.001953125 74.6689453125 304.001953125 76.001953125 312.001953125 c 0
 76.6689453125 317.334960938 77.6689453125 321.334960938 79.001953125 324.001953125 c 0
 80.3349609375 326.668945312 82.66796875 332.001953125 86.0009765625 340.001953125 c 0
 88.0009765625 344.001953125 91.16796875 349.001953125 95.5009765625 355.001953125 c 0
 99.833984375 361.001953125 106.000976562 366.668945312 114.000976562 372.001953125 c 0
 122.000976562 377.334960938 132.16796875 382.001953125 144.500976562 386.001953125 c 0
 156.833984375 390.001953125 171.666992188 392.001953125 189 392.001953125 c 2
 199 392.001953125 l 2
 206.333007812 392.001953125 210.333007812 391.668945312 211 391.001953125 c 0
 244.333007812 387.668945312 270.5 378.668945312 289.5 364.001953125 c 0
 308.5 349.334960938 319.666992188 328.66796875 323 302.000976562 c 0
 325.666992188 287.333984375 325.666992188 272.666992188 323 258 c 0
 322.333007812 252.666992188 321.166015625 246.666992188 319.499023438 240 c 0
 317.83203125 233.333007812 315.33203125 226.333007812 311.999023438 219 c 0
 303.33203125 199.666992188 289.999023438 185.833984375 271.999023438 177.500976562 c 0
 253.999023438 169.16796875 234.999023438 163.334960938 214.999023438 160.001953125 c 0
 194.999023438 156.668945312 175.33203125 154.001953125 155.999023438 152.001953125 c 0
 136.666015625 150.001953125 120.999023438 145.668945312 108.999023438 139.001953125 c 0
 107.666015625 136.334960938 106.166015625 132.501953125 104.499023438 127.501953125 c 0
 102.83203125 122.501953125 101.33203125 116.334960938 99.9990234375 109.001953125 c 0
 99.33203125 103.001953125 98.83203125 96.6689453125 98.4990234375 90.001953125 c 0
 98.166015625 83.3349609375 98.3330078125 77.3349609375 99 72.001953125 c 1
 166 64.001953125 l 1x70
 194 65.001953125 l 2
 204 65.001953125 213 66.1689453125 221 68.501953125 c 0
 229 70.8349609375 236.833007812 73.16796875 244.5 75.5009765625 c 0
 252.166992188 77.833984375 260 80.1669921875 268 82.5 c 0
 276 84.8330078125 284.666992188 86 294 86 c 0
 295.333007812 86 297 85.8330078125 299 85.5 c 2
 302 85 l 2
 306 81 309 76.3330078125 311 71 c 2
 308 61 l 2xb0
EndSplineSet
Validated: 524321
EndChar

StartChar: three
Encoding: 51 51 19
Width: 304
GlyphClass: 1
Flags: W
HStem: 0.00292969 62.999<94.7793 212.307> 173.001 63<107.141 215.531> 342.004 54.999<107.69 241.774>
VStem: 233.002 73<84.0799 149.001>
LayerCount: 2
Fore
SplineSet
199 341 m 0
 198.333007812 341.666992188 195.00390625 342.00390625 189.00390625 342.00390625 c 2
 179.00390625 342.00390625 l 2
 173.00390625 342.00390625 163.170898438 339.50390625 149.50390625 334.50390625 c 0
 135.836914062 329.50390625 121.669921875 327.00390625 107.002929688 327.00390625 c 0
 93.0029296875 327.00390625 85.3359375 330.670898438 84.0029296875 338.00390625 c 2
 84.0029296875 342.00390625 l 1
 89.5029296875 358.50390625 l 2
 91.8359375 365.50390625 96.6689453125 371.336914062 104.001953125 376.00390625 c 0
 106.001953125 379.336914062 114.668945312 383.669921875 130.001953125 389.002929688 c 0
 145.334960938 394.3359375 162.66796875 397.002929688 182.000976562 397.002929688 c 0
 194.66796875 397.002929688 208.334960938 396.002929688 223.001953125 394.002929688 c 0
 237.668945312 392.002929688 251.501953125 388.3359375 264.501953125 383.002929688 c 0
 277.501953125 377.669921875 288.668945312 370.169921875 298.001953125 360.502929688 c 0
 307.334960938 350.8359375 313.001953125 338.668945312 315.001953125 324.001953125 c 1
 314.001953125 323.001953125 l 2
 314.001953125 319.668945312 314.168945312 316.668945312 314.501953125 314.001953125 c 0
 314.834960938 311.334960938 314.66796875 309.334960938 314.000976562 308.001953125 c 0
 310.66796875 284.668945312 304.834960938 267.001953125 296.501953125 255.001953125 c 0
 288.168945312 243.001953125 281.3359375 232.001953125 276.002929688 222.001953125 c 1
 276.002929688 218.001953125 l 2
 275.3359375 216.001953125 275.3359375 214.668945312 276.002929688 214.001953125 c 2
 276.002929688 213.001953125 l 1
 282.669921875 205.668945312 288.669921875 197.168945312 294.002929688 187.501953125 c 0
 299.3359375 177.834960938 303.3359375 165.334960938 306.002929688 150.001953125 c 0
 307.3359375 148.668945312 307.668945312 147.001953125 307.001953125 145.001953125 c 0
 307.668945312 143.001953125 308.001953125 139.334960938 308.001953125 134.001953125 c 2
 306.001953125 120.001953125 l 2
 304.001953125 108.001953125 300.501953125 95.8349609375 295.501953125 83.501953125 c 0
 290.501953125 71.1689453125 284.001953125 59.8359375 276.001953125 49.5029296875 c 0
 268.001953125 39.169921875 258.834960938 30.5029296875 248.501953125 23.5029296875 c 0
 238.168945312 16.5029296875 226.668945312 12.0029296875 214.001953125 10.0029296875 c 0
 196.001953125 6.669921875 178.001953125 4.169921875 160.001953125 2.5029296875 c 0
 142.001953125 0.8359375 123.668945312 0.0029296875 105.001953125 0.0029296875 c 0
 89.6689453125 0.0029296875 77.1689453125 1.0029296875 67.501953125 3.0029296875 c 0
 57.8349609375 5.0029296875 46.3349609375 7.669921875 33.001953125 11.0029296875 c 1
 27.6689453125 21.0029296875 24.3359375 30.3359375 23.0029296875 39.0029296875 c 2
 22.0029296875 48.0029296875 l 2
 21.3359375 49.3359375 21.6689453125 52.0029296875 23.001953125 56.0029296875 c 0
 24.3349609375 67.3359375 29.001953125 75.6689453125 37.001953125 81.001953125 c 0
 45.001953125 86.3349609375 54.001953125 89.001953125 64.001953125 89.001953125 c 0
 80.6689453125 89.001953125 94.001953125 82.6689453125 104.001953125 70.001953125 c 0
 109.334960938 68.001953125 113.834960938 66.3349609375 117.501953125 65.001953125 c 0
 121.168945312 63.6689453125 127.668945312 63.001953125 137.001953125 63.001953125 c 0
 147.001953125 63.001953125 157.334960938 64.001953125 168.001953125 66.001953125 c 0
 178.668945312 68.001953125 188.501953125 71.1689453125 197.501953125 75.501953125 c 0
 206.501953125 79.8349609375 214.334960938 85.66796875 221.001953125 93.0009765625 c 0
 227.668945312 100.333984375 231.668945312 109.333984375 233.001953125 120.000976562 c 0
 233.668945312 126.000976562 233.668945312 133.000976562 233.001953125 141.000976562 c 2
 231.001953125 149.000976562 l 1
 229.001953125 156.000976562 l 2
 227.668945312 160.66796875 226.168945312 166.000976562 224.501953125 172.000976562 c 0
 222.834960938 178.000976562 221.16796875 183.333984375 219.500976562 188.000976562 c 2
 217.000976562 195.000976562 l 1
 185.66796875 180.333984375 152.000976562 173.000976562 116.000976562 173.000976562 c 2
 110.000976562 173.000976562 l 2
 107.333984375 173.000976562 105.000976562 178.000976562 103.000976562 188.000976562 c 2
 103.000976562 195.000976562 l 2
 103.66796875 197.000976562 104.000976562 200.000976562 104.000976562 204.000976562 c 0
 105.333984375 211.333984375 108.000976562 217.000976562 112.000976562 221.000976562 c 0
 116.000976562 225.000976562 123.66796875 230.000976562 135.000976562 236.000976562 c 1
 149.000976562 236.000976562 162.000976562 236.66796875 174.000976562 238.000976562 c 0
 186.000976562 239.333984375 196.833984375 242.666992188 206.500976562 248 c 0
 216.16796875 253.333007812 224.16796875 261 230.500976562 271 c 0
 236.833984375 281 241.666992188 294.666992188 245 312 c 0
 243.666992188 318 241 322.833007812 237 326.5 c 0
 233 330.166992188 228.5 333.166992188 223.5 335.5 c 0
 218.5 337.833007812 213.666992188 339.333007812 209 340 c 0
 204.333007812 340.666992188 201 341 199 341 c 0
EndSplineSet
Validated: 524289
EndChar

StartChar: four
Encoding: 52 52 20
Width: 359
GlyphClass: 1
Flags: W
HStem: 113.005 63<122.001 215>
VStem: 34.001 331
LayerCount: 2
Fore
SplineSet
215 113 m 1
 46.0009765625 113.004882812 l 2
 39.333984375 115.671875 35.333984375 121.004882812 34.0009765625 129.004882812 c 0
 34.0009765625 130.337890625 34.16796875 131.670898438 34.5009765625 133.00390625 c 0
 34.833984375 134.336914062 34.6669921875 136.00390625 34 138.00390625 c 0
 34.6669921875 140.670898438 35.5 143.170898438 36.5 145.50390625 c 0
 37.5 147.836914062 38.3330078125 150.00390625 39 152.00390625 c 0
 41 155.336914062 43.3330078125 159.836914062 46 165.50390625 c 0
 48.6669921875 171.170898438 51.6669921875 177.00390625 55 183.00390625 c 0
 63 200.336914062 76.5 222.00390625 95.5 248.00390625 c 0
 114.5 274.00390625 135.166992188 299.00390625 157.5 323.00390625 c 0
 179.833007812 347.00390625 201.833007812 367.670898438 223.5 385.00390625 c 0
 245.166992188 402.336914062 263 411.00390625 277 411.00390625 c 0
 283 411.00390625 290 408.670898438 298 404.00390625 c 0
 306 399.336914062 312.666992188 394.336914062 318 389.00390625 c 1
 318 367.00390625 316.833007812 341.170898438 314.5 311.50390625 c 0
 312.166992188 281.836914062 308.333984375 251.669921875 303.000976562 221.002929688 c 2
 296.000976562 172.002929688 l 1
 310.66796875 170.669921875 323.16796875 169.669921875 333.500976562 169.002929688 c 0
 343.833984375 168.3359375 350.666992188 167.668945312 354 167.001953125 c 0
 360.666992188 165.001953125 364.333984375 160.668945312 365.000976562 154.001953125 c 0
 364.333984375 152.668945312 364.166992188 151.168945312 364.5 149.501953125 c 0
 364.833007812 147.834960938 364.666015625 145.66796875 363.999023438 143.000976562 c 2
 359.999023438 131.000976562 l 2
 358.666015625 129.66796875 355.999023438 126.500976562 351.999023438 121.500976562 c 0
 347.999023438 116.500976562 344.33203125 113.333984375 340.999023438 112.000976562 c 2
 287.999023438 112.000976562 l 1
 275.999023438 70.0009765625 l 2
 274.666015625 61.333984375 273.166015625 52.833984375 271.499023438 44.5009765625 c 0
 269.83203125 36.16796875 266.665039062 27.66796875 261.998046875 19.0009765625 c 2
 259.998046875 15.0009765625 l 2
 257.998046875 11.66796875 255.665039062 8.16796875 252.998046875 4.5009765625 c 0
 250.331054688 0.833984375 244.998046875 -1.9990234375 236.998046875 -3.9990234375 c 1
 226.998046875 -0.666015625 219.831054688 4.1669921875 215.498046875 10.5 c 0
 211.165039062 16.8330078125 208.33203125 24 206.999023438 32 c 0
 205.666015625 38.6669921875 205.333007812 45.5 206 52.5 c 0
 206.666992188 59.5 207.666992188 66.6669921875 209 74 c 2
 215 113 l 1
249.000976562 281.004882812 m 1
 257.000976562 334.004882812 l 1
 245.000976562 327.337890625 234.66796875 320.004882812 226.000976562 312.004882812 c 0
 217.333984375 304.004882812 208.500976562 294.004882812 199.500976562 282.004882812 c 0
 190.500976562 270.004882812 180.000976562 255.504882812 168.000976562 238.504882812 c 0
 156.000976562 221.504882812 140.66796875 200.671875 122.000976562 176.004882812 c 1
 227.000976562 176.004882812 l 1
 249.000976562 281.004882812 l 1
EndSplineSet
Validated: 524289
EndChar

StartChar: five
Encoding: 53 53 21
Width: 358
GlyphClass: 1
Flags: W
HStem: 6.99902 62.001<140.237 226.066> 198.999 64.001<114.999 160.994> 328.002 64.999<197.574 207.994 360.996 391.904>
VStem: 257 88.9932<108.98 172.998>
LayerCount: 2
Fore
SplineSet
29 97 m 1
 28.9921875 94.9970703125 l 2
 29.6591796875 83.6640625 34.9921875 72.8310546875 44.9921875 62.498046875 c 0
 54.9921875 52.1650390625 66.4921875 42.83203125 79.4921875 34.4990234375 c 0
 92.4921875 26.166015625 105.4921875 19.4990234375 118.4921875 14.4990234375 c 0
 131.4921875 9.4990234375 141.9921875 6.9990234375 149.9921875 6.9990234375 c 0
 178.659179688 6.9990234375 201.826171875 8.83203125 219.493164062 12.4990234375 c 0
 237.16015625 16.166015625 251.993164062 22.166015625 263.993164062 30.4990234375 c 0
 275.993164062 38.83203125 286.826171875 50.33203125 296.493164062 64.9990234375 c 0
 306.16015625 79.666015625 317.66015625 97.9990234375 330.993164062 119.999023438 c 0
 335.66015625 126.666015625 338.993164062 132.999023438 340.993164062 138.999023438 c 0
 342.993164062 144.999023438 344.66015625 150.666015625 345.993164062 155.999023438 c 0
 345.993164062 157.33203125 346.326171875 158.83203125 346.993164062 160.499023438 c 0
 347.66015625 162.166015625 347.66015625 163.666015625 346.993164062 164.999023438 c 2
 344.993164062 172.999023438 l 2
 342.993164062 187.666015625 335.993164062 200.166015625 323.993164062 210.499023438 c 0
 311.993164062 220.83203125 297.826171875 229.33203125 281.493164062 235.999023438 c 0
 265.16015625 242.666015625 248.327148438 247.833007812 230.994140625 251.5 c 0
 213.661132812 255.166992188 198.994140625 258 186.994140625 260 c 0
 183.661132812 260.666992188 178.994140625 261.166992188 172.994140625 261.5 c 0
 166.994140625 261.833007812 162.994140625 262.333007812 160.994140625 263 c 0
 159.661132812 263 159.661132812 264.666992188 160.994140625 268 c 2
 161.994140625 275 l 1
 192.994140625 318 l 2
 194.327148438 320.666992188 195.827148438 322.833984375 197.494140625 324.500976562 c 0
 199.161132812 326.16796875 202.661132812 327.334960938 207.994140625 328.001953125 c 2
 375.994140625 334.001953125 l 1
 385.994140625 338.668945312 391.327148438 344.001953125 391.994140625 350.001953125 c 0
 392.661132812 353.334960938 392.994140625 356.66796875 392.994140625 360.000976562 c 2
 392.994140625 370.000976562 l 2
 391.661132812 376.000976562 388.828125 380.500976562 384.495117188 383.500976562 c 0
 380.162109375 386.500976562 372.329101562 389.66796875 360.99609375 393.000976562 c 2
 166.99609375 393.000976562 l 2
 166.329101562 393.000976562 164.829101562 391.16796875 162.49609375 387.500976562 c 0
 160.163085938 383.833984375 157.330078125 380.666992188 153.997070312 378 c 0
 147.330078125 367.333007812 139.997070312 357.166015625 131.997070312 347.499023438 c 0
 123.997070312 337.83203125 116.330078125 327.83203125 108.997070312 317.499023438 c 0
 101.6640625 307.166015625 94.9970703125 296.166015625 88.9970703125 284.499023438 c 0
 82.9970703125 272.83203125 78.9970703125 259.665039062 76.9970703125 244.998046875 c 0
 76.330078125 238.331054688 75.830078125 232.831054688 75.4970703125 228.498046875 c 0
 75.1640625 224.165039062 75.3310546875 221.33203125 75.998046875 219.999023438 c 0
 75.998046875 216.666015625 76.3310546875 214.999023438 76.998046875 214.999023438 c 2
 78.998046875 205.999023438 l 2
 80.998046875 204.666015625 83.8310546875 203.166015625 87.498046875 201.499023438 c 0
 91.1650390625 199.83203125 100.33203125 198.999023438 114.999023438 198.999023438 c 0
 122.999023438 198.999023438 133.33203125 198.166015625 145.999023438 196.499023438 c 0
 158.666015625 194.83203125 171.833007812 192.499023438 185.5 189.499023438 c 0
 199.166992188 186.499023438 212.5 182.499023438 225.5 177.499023438 c 0
 238.5 172.499023438 249 166.666015625 257 159.999023438 c 1
 257 155.999023438 l 2
 255.666992188 145.33203125 252.666992188 134.83203125 248 124.499023438 c 0
 243.333007812 114.166015625 237.666015625 104.833007812 230.999023438 96.5 c 0
 224.33203125 88.1669921875 216.665039062 81.5 207.998046875 76.5 c 0
 199.331054688 71.5 189.998046875 69 179.998046875 69 c 0
 177.331054688 69 173.998046875 69.1669921875 169.998046875 69.5 c 2
 163.998046875 70 l 2
 161.998046875 71.3330078125 156.331054688 74.8330078125 146.998046875 80.5 c 0
 137.665039062 86.1669921875 127.665039062 92.5 116.998046875 99.5 c 0
 106.331054688 106.5 96.498046875 112.833007812 87.498046875 118.5 c 0
 78.498046875 124.166992188 72.998046875 127.666992188 70.998046875 129 c 2
 67.498046875 130 l 2
 65.1650390625 130.666992188 63.6650390625 131 62.998046875 131 c 0
 61.6650390625 131 59.998046875 130.666992188 57.998046875 130 c 2
 54.998046875 129 l 2
 49.6650390625 125.666992188 44.33203125 120.5 38.9990234375 113.5 c 0
 33.666015625 106.5 30.3330078125 101.333007812 29 98 c 2
 29 97 l 1
EndSplineSet
Validated: 524297
EndChar

StartChar: six
Encoding: 54 54 22
Width: 350
GlyphClass: 1
Flags: W
HStem: 0 62.998<105.237 234.454> 172.998 61.0029<152.531 271.22> 329.001 64<221.418 315.197>
VStem: 33.4961 62.998<75.3508 138.748>
LayerCount: 2
Fore
SplineSet
33 102 m 1
 32.99609375 104.999023438 l 2
 32.3291015625 106.999023438 31.99609375 110.666015625 31.99609375 115.999023438 c 0
 32.6630859375 118.666015625 33.1630859375 121.333007812 33.49609375 124 c 0
 33.8291015625 126.666992188 33.99609375 129.666992188 33.99609375 133 c 0
 37.99609375 163.666992188 48.8291015625 194.166992188 66.49609375 224.5 c 0
 84.1630859375 254.833007812 104.830078125 282.333007812 128.497070312 307 c 0
 152.1640625 331.666992188 176.831054688 351.833984375 202.498046875 367.500976562 c 0
 228.165039062 383.16796875 251.665039062 391.66796875 272.998046875 393.000976562 c 2
 277.998046875 393.000976562 l 2
 296.665039062 393.000976562 309.165039062 388.66796875 315.498046875 380.000976562 c 0
 321.831054688 371.333984375 326.331054688 362.333984375 328.998046875 353.000976562 c 2
 328.998046875 336.000976562 l 2
 328.998046875 331.333984375 325.998046875 329.000976562 319.998046875 329.000976562 c 0
 265.998046875 326.333984375 222.331054688 313.000976562 188.998046875 289.000976562 c 0
 155.665039062 265.000976562 130.33203125 232.000976562 112.999023438 190.000976562 c 1
 136.999023438 205.333984375 158.999023438 216.500976562 178.999023438 223.500976562 c 0
 198.999023438 230.500976562 218.999023438 234.000976562 238.999023438 234.000976562 c 0
 248.999023438 234.000976562 259.666015625 233.16796875 270.999023438 231.500976562 c 0
 282.33203125 229.833984375 293.165039062 226.666992188 303.498046875 222 c 0
 313.831054688 217.333007812 323.331054688 211 331.998046875 203 c 0
 340.665039062 195 347.665039062 184.666992188 352.998046875 172 c 0
 353.665039062 170.666992188 353.998046875 169.333984375 353.998046875 168.000976562 c 0
 353.998046875 166.66796875 354.665039062 164.66796875 355.998046875 162.000976562 c 0
 355.998046875 160.66796875 356.165039062 159.000976562 356.498046875 157.000976562 c 0
 356.831054688 155.000976562 356.6640625 153.333984375 355.997070312 152.000976562 c 2
 354.997070312 143.000976562 l 1
 353.997070312 135.000976562 l 2
 350.6640625 112.333984375 341.831054688 92.6669921875 327.498046875 76 c 0
 313.165039062 59.3330078125 295.83203125 45.3330078125 275.499023438 34 c 0
 255.166015625 22.6669921875 233.166015625 14.1669921875 209.499023438 8.5 c 0
 185.83203125 2.8330078125 162.999023438 0 140.999023438 0 c 0
 106.999023438 0 81.83203125 9 65.4990234375 27 c 0
 49.166015625 45 38.3330078125 70 33 102 c 1
274.99609375 147.999023438 m 1
 256.329101562 164.666015625 233.327148438 172.998046875 205.994140625 172.998046875 c 0
 183.994140625 172.998046875 162.994140625 167.665039062 142.994140625 156.998046875 c 0
 122.994140625 146.331054688 108.327148438 131.331054688 98.994140625 111.998046875 c 0
 97.6611328125 110.665039062 96.994140625 108.998046875 96.994140625 106.998046875 c 0
 96.994140625 105.665039062 96.8271484375 104.665039062 96.494140625 103.998046875 c 0
 96.1611328125 103.331054688 96.328125 102.331054688 96.9951171875 100.998046875 c 0
 97.662109375 96.3310546875 99.8291015625 91.6640625 103.49609375 86.9970703125 c 0
 107.163085938 82.330078125 111.663085938 78.330078125 116.99609375 74.9970703125 c 0
 122.329101562 71.6640625 128.329101562 68.8310546875 134.99609375 66.498046875 c 0
 141.663085938 64.1650390625 147.99609375 62.998046875 153.99609375 62.998046875 c 0
 167.99609375 62.998046875 181.829101562 64.6650390625 195.49609375 67.998046875 c 0
 209.163085938 71.3310546875 221.49609375 76.498046875 232.49609375 83.498046875 c 0
 243.49609375 90.498046875 252.829101562 99.3310546875 260.49609375 109.998046875 c 0
 268.163085938 120.665039062 272.99609375 133.33203125 274.99609375 147.999023438 c 1
EndSplineSet
Validated: 524289
EndChar

StartChar: seven
Encoding: 55 55 23
Width: 324
GlyphClass: 1
Flags: W
HStem: 305.999 58.001<76.8285 187.556> 379 20G<299.001 329.667>
VStem: 48.002 313.998
LayerCount: 2
Fore
SplineSet
362 374 m 1
 352.00390625 331.99609375 l 1
 329.336914062 307.99609375 305.169921875 279.329101562 279.502929688 245.99609375 c 0
 253.8359375 212.663085938 228.502929688 180.330078125 203.502929688 148.997070312 c 0
 178.502929688 117.6640625 155.169921875 89.4970703125 133.502929688 64.4970703125 c 0
 111.8359375 39.4970703125 93.6689453125 23.6640625 79.001953125 16.9970703125 c 1
 71.001953125 16.9970703125 l 2
 62.3349609375 16.9970703125 56.501953125 18.4970703125 53.501953125 21.4970703125 c 0
 50.501953125 24.4970703125 48.6689453125 28.330078125 48.001953125 32.9970703125 c 0
 46.001953125 38.9970703125 46.001953125 44.6640625 48.001953125 49.9970703125 c 2
 48.001953125 52.9970703125 l 1
 52.001953125 61.6640625 60.501953125 75.3310546875 73.501953125 93.998046875 c 0
 86.501953125 112.665039062 102.834960938 134.33203125 122.501953125 158.999023438 c 0
 142.168945312 183.666015625 164.501953125 210.666015625 189.501953125 239.999023438 c 0
 214.501953125 269.33203125 240.668945312 298.999023438 268.001953125 328.999023438 c 1
 251.334960938 326.999023438 233.66796875 324.666015625 215.000976562 321.999023438 c 2
 162.500976562 314.499023438 l 1
 120.500976562 308.499023438 l 2
 108.833984375 306.83203125 101.666992188 305.999023438 99 305.999023438 c 0
 91 305.999023438 83.5 307.83203125 76.5 311.499023438 c 0
 69.5 315.166015625 65 323.333007812 63 336 c 2
 63 338 l 2
 63.6669921875 346 71.333984375 354.666992188 86.0009765625 364 c 1
 126.000976562 373.333007812 164.500976562 381.5 201.500976562 388.5 c 0
 238.500976562 395.5 278.000976562 399 320.000976562 399 c 2
 326.000976562 399 l 2
 333.333984375 399 340.666992188 397.666992188 348 395 c 0
 355.333007812 392.333007812 360 385.333007812 362 374 c 1
EndSplineSet
Validated: 524289
EndChar

StartChar: eight
Encoding: 56 56 24
Width: 349
GlyphClass: 1
Flags: W
HStem: -1.99805 65.999<114.03 260.974> 188.005 60.999<141.298 261.998> 339.005 55.9951<152.432 285.798>
VStem: 31.9971 67<81.6447 174.382> 288.998 70<91.6776 189.053 289.005 329.632>
LayerCount: 2
Fore
SplineSet
259 10 m 0
 253 8 245.498046875 6.1689453125 236.498046875 4.501953125 c 0
 227.498046875 2.8349609375 218.165039062 1.501953125 208.498046875 0.501953125 c 0
 198.831054688 -0.498046875 189.6640625 -1.1650390625 180.997070312 -1.498046875 c 0
 172.330078125 -1.8310546875 164.997070312 -1.998046875 158.997070312 -1.998046875 c 0
 137.6640625 -1.998046875 119.497070312 0.501953125 104.497070312 5.501953125 c 0
 89.4970703125 10.501953125 76.9970703125 17.1689453125 66.9970703125 25.501953125 c 0
 56.9970703125 33.8349609375 49.1640625 43.501953125 43.4970703125 54.501953125 c 0
 37.830078125 65.501953125 33.9970703125 76.6689453125 31.9970703125 88.001953125 c 0
 31.330078125 98.6689453125 31.330078125 109.668945312 31.9970703125 121.001953125 c 0
 33.9970703125 135.001953125 36.6640625 145.001953125 39.9970703125 151.001953125 c 0
 47.9970703125 166.334960938 56.1640625 180.66796875 64.4970703125 194.000976562 c 0
 72.830078125 207.333984375 81.330078125 217.666992188 89.9970703125 225 c 1
 90.4970703125 226.5 l 2
 90.830078125 227.5 90.9970703125 228.666992188 90.9970703125 230 c 2
 91.9970703125 234 l 1
 88.6640625 239.333007812 85.4970703125 244.5 82.4970703125 249.5 c 0
 79.4970703125 254.5 76.9970703125 261.666992188 74.9970703125 271 c 0
 73.6640625 275 73.3310546875 280 73.998046875 286 c 0
 74.6650390625 292 75.33203125 298.666992188 75.9990234375 306 c 0
 75.9990234375 307.333007812 76.33203125 309.333007812 76.9990234375 312 c 0
 77.666015625 314.666992188 78.666015625 317.666992188 79.9990234375 321 c 0
 89.9990234375 347 107.33203125 365.833007812 131.999023438 377.5 c 0
 156.666015625 389.166992188 184.999023438 395 216.999023438 395 c 2
 243.999023438 395 l 2
 255.33203125 395 267.165039062 393.5 279.498046875 390.5 c 0
 291.831054688 387.5 303.498046875 383 314.498046875 377 c 0
 325.498046875 371 335.165039062 363.333007812 343.498046875 354 c 0
 351.831054688 344.666992188 356.998046875 333.666992188 358.998046875 321 c 2
 358.998046875 320 l 1
 358.998046875 305 l 2
 356.998046875 293 354.331054688 283.166992188 350.998046875 275.5 c 0
 347.665039062 267.833007812 343.998046875 261.166015625 339.998046875 255.499023438 c 0
 335.998046875 249.83203125 332.331054688 244.83203125 328.998046875 240.499023438 c 0
 325.665039062 236.166015625 323.33203125 231.333007812 321.999023438 226 c 1
 337.999023438 212 347.999023438 193 351.999023438 169 c 0
 353.33203125 161.666992188 353.83203125 154.166992188 353.499023438 146.5 c 0
 353.166015625 138.833007812 352.333007812 131 351 123 c 0
 347 98.3330078125 336 75.5 318 54.5 c 0
 300 33.5 280.333007812 18.6669921875 259 10 c 0
261.998046875 195.001953125 m 1
 212.997070312 188.004882812 l 1
 203.997070312 188.004882812 l 2
 196.6640625 188.004882812 186.331054688 188.337890625 172.998046875 189.004882812 c 0
 159.665039062 189.671875 148.665039062 191.004882812 139.998046875 193.004882812 c 0
 135.998046875 193.004882812 131.665039062 189.837890625 126.998046875 183.504882812 c 0
 122.331054688 177.171875 117.998046875 170.004882812 113.998046875 162.004882812 c 0
 109.998046875 154.004882812 106.665039062 146.171875 103.998046875 138.504882812 c 0
 101.331054688 130.837890625 99.6640625 125.670898438 98.9970703125 123.00390625 c 2
 98.9970703125 121.00390625 l 2
 98.330078125 117.670898438 97.9970703125 114.00390625 97.9970703125 110.00390625 c 0
 99.330078125 101.336914062 103.497070312 94.169921875 110.497070312 88.5029296875 c 0
 117.497070312 82.8359375 125.830078125 78.1689453125 135.497070312 74.501953125 c 0
 145.1640625 70.8349609375 155.331054688 68.16796875 165.998046875 66.5009765625 c 0
 176.665039062 64.833984375 186.665039062 64.0009765625 195.998046875 64.0009765625 c 2
 198.998046875 64.0009765625 l 2
 216.998046875 65.333984375 234.665039062 70.6669921875 251.998046875 80 c 0
 269.331054688 89.3330078125 279.331054688 103.333007812 281.998046875 122 c 0
 283.998046875 132.666992188 284.331054688 143.333984375 282.998046875 154.000976562 c 0
 279.665039062 170.66796875 272.665039062 184.334960938 261.998046875 195.001953125 c 1
205.997070312 339.004882812 m 0
 203.997070312 339.004882812 200.329101562 338.670898438 194.99609375 338.00390625 c 0
 189.663085938 337.336914062 183.830078125 335.836914062 177.497070312 333.50390625 c 0
 171.1640625 331.170898438 165.1640625 328.170898438 159.497070312 324.50390625 c 0
 153.830078125 320.836914062 149.663085938 316.00390625 146.99609375 310.00390625 c 0
 143.663085938 307.336914062 141.330078125 301.00390625 139.997070312 291.00390625 c 0
 138.6640625 283.670898438 138.331054688 279.670898438 138.998046875 279.00390625 c 0
 141.665039062 259.00390625 158.665039062 249.00390625 189.998046875 249.00390625 c 0
 199.331054688 249.00390625 209.498046875 250.00390625 220.498046875 252.00390625 c 0
 231.498046875 254.00390625 241.665039062 256.836914062 250.998046875 260.50390625 c 0
 260.331054688 264.170898438 268.331054688 268.337890625 274.998046875 273.004882812 c 0
 281.665039062 277.671875 285.665039062 283.004882812 286.998046875 289.004882812 c 2
 288.998046875 300.004882812 l 1
 288.998046875 309.004882812 l 2
 287.665039062 316.337890625 283.165039062 322.004882812 275.498046875 326.004882812 c 0
 267.831054688 330.004882812 259.331054688 333.004882812 249.998046875 335.004882812 c 0
 240.665039062 337.004882812 231.665039062 338.171875 222.998046875 338.504882812 c 0
 214.331054688 338.837890625 208.6640625 339.004882812 205.997070312 339.004882812 c 0
EndSplineSet
Validated: 524321
EndChar

StartChar: nine
Encoding: 57 57 25
Width: 342
GlyphClass: 1
Flags: W
HStem: -0.99707 50.999<124.001 190.117> 148 60.0059<129.825 242.47> 329.004 62.9961<158.348 290.533>
VStem: 51.002 312.998
LayerCount: 2
Fore
SplineSet
364 290 m 1
 363.002929688 288.00390625 l 2
 364.3359375 283.336914062 364.668945312 276.669921875 364.001953125 268.002929688 c 0
 363.334960938 259.3359375 362.66796875 252.002929688 362.000976562 246.002929688 c 0
 357.333984375 222.002929688 347.333984375 195.669921875 332.000976562 167.002929688 c 0
 316.66796875 138.3359375 298.334960938 111.502929688 277.001953125 86.5029296875 c 0
 255.668945312 61.5029296875 232.001953125 40.669921875 206.001953125 24.0029296875 c 0
 180.001953125 7.3359375 153.668945312 -0.9970703125 127.001953125 -0.9970703125 c 2
 122.001953125 -0.9970703125 l 2
 110.668945312 -0.9970703125 100.668945312 0.8359375 92.001953125 4.5029296875 c 0
 83.3349609375 8.169921875 76.001953125 12.5029296875 70.001953125 17.5029296875 c 0
 64.001953125 22.5029296875 59.501953125 27.8359375 56.501953125 33.5029296875 c 0
 53.501953125 39.169921875 51.6689453125 44.0029296875 51.001953125 48.0029296875 c 0
 50.3349609375 49.3359375 50.16796875 50.1689453125 50.5009765625 50.501953125 c 0
 50.833984375 50.8349609375 51.0009765625 51.3349609375 51.0009765625 52.001953125 c 0
 51.0009765625 54.001953125 53.833984375 57.6689453125 59.5009765625 63.001953125 c 0
 65.16796875 68.3349609375 68.66796875 71.001953125 70.0009765625 71.001953125 c 2
 106.000976562 56.001953125 l 1
 124.000976562 50.001953125 l 1
 146.000976562 49.001953125 l 2
 158.66796875 51.6689453125 171.834960938 58.001953125 185.501953125 68.001953125 c 0
 199.168945312 78.001953125 211.8359375 89.6689453125 223.502929688 103.001953125 c 0
 235.169921875 116.334960938 244.836914062 130.16796875 252.50390625 144.500976562 c 0
 260.170898438 158.833984375 265.00390625 171.666992188 267.00390625 183 c 1
 234.336914062 163.666992188 202.336914062 152 171.00390625 148 c 1
 156.00390625 148 l 2
 136.670898438 148 117.50390625 153.666992188 98.50390625 165 c 0
 79.50390625 176.333007812 64.00390625 194.666015625 52.00390625 219.999023438 c 0
 50.6708984375 221.33203125 50.00390625 223.999023438 50.00390625 227.999023438 c 0
 49.3369140625 229.999023438 49.00390625 233.33203125 49.00390625 237.999023438 c 0
 50.3369140625 243.33203125 50.669921875 246.999023438 50.0029296875 248.999023438 c 2
 51.0029296875 256.999023438 l 2
 54.3359375 279.666015625 62.6689453125 299.333007812 76.001953125 316 c 0
 89.3349609375 332.666992188 105.66796875 346.666992188 125.000976562 358 c 0
 144.333984375 369.333007812 165.500976562 377.833007812 188.500976562 383.5 c 0
 211.500976562 389.166992188 234.000976562 392 256.000976562 392 c 0
 290.000976562 392 315.16796875 383 331.500976562 365 c 0
 347.833984375 347 358.666992188 322 364 290 c 1
120.002929688 247.00390625 m 2
 121 237.005859375 l 1
 130.333007812 229.005859375 139.666015625 222.172851562 148.999023438 216.505859375 c 0
 158.33203125 210.838867188 168.999023438 208.005859375 180.999023438 208.005859375 c 0
 190.999023438 208.005859375 201.83203125 209.172851562 213.499023438 211.505859375 c 0
 225.166015625 213.838867188 236.333007812 217.338867188 247 222.005859375 c 0
 257.666992188 226.672851562 267.333984375 232.505859375 276.000976562 239.505859375 c 0
 284.66796875 246.505859375 291.334960938 255.005859375 296.001953125 265.005859375 c 0
 297.334960938 266.338867188 298.334960938 269.671875 299.001953125 275.004882812 c 2
 301.001953125 290.004882812 l 2
 298.334960938 299.337890625 291.334960938 308.170898438 280.001953125 316.50390625 c 0
 268.668945312 324.836914062 256.3359375 329.00390625 243.002929688 329.00390625 c 0
 229.002929688 329.00390625 215.002929688 327.50390625 201.002929688 324.50390625 c 0
 187.002929688 321.50390625 174.3359375 316.670898438 163.002929688 310.00390625 c 0
 151.669921875 303.336914062 142.169921875 294.836914062 134.502929688 284.50390625 c 0
 126.8359375 274.170898438 122.002929688 261.670898438 120.002929688 247.00390625 c 2
EndSplineSet
Validated: 524289
EndChar

StartChar: colon
Encoding: 58 58 26
Width: 137
GlyphClass: 1
Flags: W
HStem: -0.000976562 94.001<44.5647 117.244> 215.999 94.001<77.0773 149.948>
VStem: 22 103.999<47 84.7139> 53.9971 104<248 256 263 300.668>
LayerCount: 2
Fore
SplineSet
22 41 m 1xe0
 22.9970703125 40 l 2
 23.6640625 34.6669921875 25.4970703125 29.6669921875 28.4970703125 25 c 0
 31.4970703125 20.3330078125 35.330078125 16.166015625 39.9970703125 12.4990234375 c 0
 44.6640625 8.83203125 49.6640625 5.83203125 54.9970703125 3.4990234375 c 0
 60.330078125 1.166015625 65.330078125 -0.0009765625 69.9970703125 -0.0009765625 c 0
 72.6640625 -0.0009765625 76.8310546875 0.83203125 82.498046875 2.4990234375 c 0
 88.1650390625 4.166015625 93.83203125 6.3330078125 99.4990234375 9 c 0
 105.166015625 11.6669921875 110.166015625 15 114.499023438 19 c 0
 118.83203125 23 121.33203125 27.3330078125 121.999023438 32 c 2
 125.999023438 43 l 1
 125.999023438 53 l 2
 126.666015625 54.3330078125 126.833007812 55.8330078125 126.5 57.5 c 0
 126.166992188 59.1669921875 126 60.6669921875 126 62 c 0
 124 72 119.666992188 79 113 83 c 0
 106.333007812 87 98.3330078125 90.6669921875 89 94 c 0
 71 94 56 91 44 85 c 0
 32 79 24.6669921875 66.3330078125 22 47 c 2
 22 41 l 1xe0
53.9970703125 257 m 1xd0
 54.9931640625 256 l 2
 55.66015625 250.666992188 57.4931640625 245.666992188 60.4931640625 241 c 0
 63.4931640625 236.333007812 67.326171875 232.166015625 71.9931640625 228.499023438 c 0
 76.66015625 224.83203125 81.66015625 221.83203125 86.9931640625 219.499023438 c 0
 92.326171875 217.166015625 97.326171875 215.999023438 101.993164062 215.999023438 c 0
 104.66015625 215.999023438 108.827148438 216.83203125 114.494140625 218.499023438 c 0
 120.161132812 220.166015625 125.828125 222.333007812 131.495117188 225 c 0
 137.162109375 227.666992188 142.329101562 231 146.99609375 235 c 0
 151.663085938 239 154.330078125 243.333007812 154.997070312 248 c 2
 157.997070312 259 l 2
 157.997070312 263.666992188 158.330078125 267 158.997070312 269 c 0
 158.997070312 273 158.6640625 276 157.997070312 278 c 0
 156.6640625 288 152.6640625 295 145.997070312 299 c 0
 139.330078125 303 131.330078125 306.666992188 121.997070312 310 c 0
 103.997070312 310 88.830078125 307 76.4970703125 301 c 0
 64.1640625 295 56.6640625 282.333007812 53.9970703125 263 c 2
 53.9970703125 257 l 1xd0
EndSplineSet
Validated: 524297
EndChar

StartChar: semicolon
Encoding: 59 59 27
Width: 137
GlyphClass: 1
Flags: W
HStem: 215.999 94.001<77.0802 149.951>
VStem: 54 104<248 256 263 300.668>
LayerCount: 2
Fore
SplineSet
54 257 m 1
 54.99609375 256 l 2
 55.6630859375 250.666992188 57.49609375 245.666992188 60.49609375 241 c 0
 63.49609375 236.333007812 67.3291015625 232.166015625 71.99609375 228.499023438 c 0
 76.6630859375 224.83203125 81.6630859375 221.83203125 86.99609375 219.499023438 c 0
 92.3291015625 217.166015625 97.3291015625 215.999023438 101.99609375 215.999023438 c 0
 104.663085938 215.999023438 108.830078125 216.83203125 114.497070312 218.499023438 c 0
 120.1640625 220.166015625 125.831054688 222.333007812 131.498046875 225 c 0
 137.165039062 227.666992188 142.33203125 231 146.999023438 235 c 0
 151.666015625 239 154.333007812 243.333007812 155 248 c 2
 158 259 l 2
 158 263.666992188 158.333007812 267 159 269 c 0
 159 273 158.666992188 276 158 278 c 0
 156.666992188 288 152.666992188 295 146 299 c 0
 139.333007812 303 131.333007812 306.666992188 122 310 c 0
 104 310 88.8330078125 307 76.5 301 c 0
 64.1669921875 295 56.6669921875 282.333007812 54 263 c 2
 54 257 l 1
25.99609375 -57 m 1
 42.9970703125 -56.9990234375 l 2
 54.330078125 -52.9990234375 63.9970703125 -47.33203125 71.9970703125 -39.9990234375 c 0
 79.9970703125 -32.666015625 86.830078125 -24.9990234375 92.4970703125 -16.9990234375 c 0
 98.1640625 -8.9990234375 102.6640625 -1.166015625 105.997070312 6.5009765625 c 0
 109.330078125 14.16796875 111.663085938 20.66796875 112.99609375 26.0009765625 c 2
 114.99609375 37.0009765625 l 2
 116.329101562 38.333984375 117.329101562 42.6669921875 117.99609375 50 c 0
 118.663085938 56.6669921875 118.663085938 61.6669921875 117.99609375 65 c 0
 116.663085938 72.3330078125 113.663085938 78 108.99609375 82 c 0
 104.329101562 86 98.3291015625 89.6669921875 90.99609375 93 c 0
 90.3291015625 93.6669921875 87.3291015625 94 81.99609375 94 c 2
 73.99609375 94 l 2
 62.6630859375 94 53.99609375 91 47.99609375 85 c 0
 41.99609375 79 36.6630859375 68.3330078125 31.99609375 53 c 1
 31.99609375 50 l 2
 30.6630859375 48.6669921875 30.6630859375 46 31.99609375 42 c 2
 34.99609375 24 l 2
 35.6630859375 20.6669921875 35.99609375 17.6669921875 35.99609375 15 c 2
 25.99609375 -33 l 2
 23.99609375 -40.3330078125 23.99609375 -48.3330078125 25.99609375 -57 c 1
EndSplineSet
Validated: 524297
EndChar

StartChar: less
Encoding: 60 60 28
Width: 343
GlyphClass: 1
Flags: W
LayerCount: 2
Fore
SplineSet
94.76171875 388.48046875 m 1
 26.0009765625 305.361328125 l 1
 74.8310546875 255.4609375 216.731445312 157.951171875 281.641601562 179.94140625 c 1
 295.151367188 194.741210938 308.44140625 209.69140625 321.500976562 224.791015625 c 1
 268.340820312 253.930664062 209.420898438 285.690429688 162.060546875 322.530273438 c 1
 208.100585938 356.240234375 263.060546875 391.91015625 313.2109375 417.940429688 c 1
 259.62109375 506.48046875 l 1
 213.901367188 484.100585938 140.8515625 435.930664062 97.431640625 386.081054688 c 1
 96.5419921875 386.890625 95.6416015625 387.66015625 94.76171875 388.48046875 c 1
EndSplineSet
Validated: 524329
EndChar

StartChar: equal
Encoding: 61 61 29
Width: 250
GlyphClass: 1
Flags: W
HStem: 133.001 62.001<47.9455 95.5 198 218.123> 137.002 4<219.999 221> 221 62<59.9455 141 187 232.656> 225 4<232 233>
LayerCount: 2
Fore
SplineSet
233 229 m 1x10
 232 229.001953125 l 1
 249.333007812 234.334960938 260 239.16796875 264 243.500976562 c 0
 268 247.833984375 270.333007812 252.666992188 271 258 c 2
 272 262 l 2
 270.666992188 266.666992188 265 272 255 278 c 2
 249 282 l 2
 245 282 240.166992188 282.166992188 234.5 282.5 c 0
 228.833007812 282.833007812 222.333007812 283 215 283 c 2
 141 283 l 2
 119 283 98.6669921875 279.5 80 272.5 c 0
 61.3330078125 265.5 51 255.333007812 49 242 c 2
 50 228 l 1
 59.3330078125 226 66.5 224.333007812 71.5 223 c 0
 76.5 221.666992188 83.3330078125 221 92 221 c 2
 131 221 l 1
 153 221 l 2x20
 165 221 176.333007812 221.333007812 187 222 c 0
 197.666992188 222.666992188 205.666992188 223.666992188 211 225 c 2
 233 229 l 1x10
221 141.001953125 m 1x40
 219.999023438 141.00390625 l 1
 236.666015625 146.336914062 246.999023438 151.169921875 250.999023438 155.502929688 c 0
 254.999023438 159.8359375 257.666015625 164.668945312 258.999023438 170.001953125 c 2
 258.999023438 174.001953125 l 2
 258.999023438 178.001953125 253.666015625 183.334960938 242.999023438 190.001953125 c 2
 235.999023438 194.001953125 l 2
 231.999023438 194.001953125 227.166015625 194.168945312 221.499023438 194.501953125 c 0
 215.83203125 194.834960938 209.33203125 195.001953125 201.999023438 195.001953125 c 2
 127.999023438 195.001953125 l 2
 116.666015625 195.001953125 105.833007812 194.168945312 95.5 192.501953125 c 0
 85.1669921875 190.834960938 75.6669921875 188.16796875 67 184.500976562 c 0
 58.3330078125 180.833984375 51.3330078125 176.500976562 46 171.500976562 c 0
 40.6669921875 166.500976562 37.6669921875 160.66796875 37 154.000976562 c 2
 38 140.000976562 l 1
 47.3330078125 138.000976562 54.5 136.333984375 59.5 135.000976562 c 0
 64.5 133.66796875 71.3330078125 133.000976562 80 133.000976562 c 2
 119 133.000976562 l 1
 141 133.000976562 l 2x80
 149 133.000976562 156.666992188 133.16796875 164 133.500976562 c 0
 171.333007812 133.833984375 178 134.333984375 184 135.000976562 c 0
 190 135.66796875 194.666992188 136.334960938 198 137.001953125 c 2
 221 141.001953125 l 1x40
EndSplineSet
Validated: 524297
EndChar

StartChar: greater
Encoding: 62 62 30
Width: 343
GlyphClass: 1
Flags: W
LayerCount: 2
Fore
SplineSet
252.740234375 388.48046875 m 1
 321.500976562 305.361328125 l 1
 272.670898438 255.4609375 130.770507812 157.951171875 65.8603515625 179.94140625 c 1
 52.3505859375 194.741210938 39.060546875 209.69140625 26.0009765625 224.791015625 c 1
 79.1611328125 253.930664062 138.081054688 285.690429688 185.44140625 322.530273438 c 1
 139.401367188 356.240234375 84.44140625 391.91015625 34.291015625 417.940429688 c 1
 87.880859375 506.48046875 l 1
 133.600585938 484.100585938 206.650390625 435.930664062 250.0703125 386.081054688 c 1
 250.959960938 386.890625 251.860351562 387.66015625 252.740234375 388.48046875 c 1
EndSplineSet
Validated: 524321
EndChar

StartChar: question
Encoding: 63 63 31
Width: 318
GlyphClass: 1
Flags: W
HStem: 0.00683594 81.9971<80.8627 145.479> 328.005 60.9951<137.03 266.81>
VStem: 86 59.998<135.001 194.984>
LayerCount: 2
Fore
SplineSet
57 296 m 1
 57 293.004882812 l 2
 57 289.004882812 59.6669921875 284.337890625 65 279.004882812 c 1
 68 278.504882812 l 2
 70 278.171875 71.6669921875 278.004882812 73 278.004882812 c 0
 82.3330078125 278.004882812 91.666015625 280.504882812 100.999023438 285.504882812 c 0
 110.33203125 290.504882812 119.999023438 296.004882812 129.999023438 302.004882812 c 0
 139.999023438 308.004882812 149.999023438 313.671875 159.999023438 319.004882812 c 0
 169.999023438 324.337890625 180.666015625 327.337890625 191.999023438 328.004882812 c 2
 200.999023438 328.004882812 l 2
 215.666015625 328.004882812 230.333007812 325.671875 245 321.004882812 c 0
 259.666992188 316.337890625 268 308.670898438 270 298.00390625 c 2
 269 292.00390625 l 1
 269 289.00390625 l 1
 269 285.00390625 l 2
 269 283.670898438 267 281.670898438 263 279.00390625 c 0
 249.666992188 276.336914062 235 273.669921875 219 271.002929688 c 0
 203 268.3359375 187 264.168945312 171 258.501953125 c 0
 155 252.834960938 140.333007812 245.16796875 127 235.500976562 c 0
 113.666992188 225.833984375 103.333984375 212.333984375 96.0009765625 195.000976562 c 2
 95.0009765625 192.000976562 l 2
 92.333984375 184.66796875 90.1669921875 178.500976562 88.5 173.500976562 c 0
 86.8330078125 168.500976562 86 164.333984375 86 161.000976562 c 2
 85 156.000976562 l 2
 84.3330078125 154.000976562 84.166015625 152.000976562 84.4990234375 150.000976562 c 0
 84.83203125 148.000976562 84.6650390625 146.333984375 83.998046875 145.000976562 c 2
 85.998046875 135.000976562 l 2
 87.998046875 125.000976562 90.998046875 118.66796875 94.998046875 116.000976562 c 0
 98.998046875 113.333984375 103.665039062 112.000976562 108.998046875 112.000976562 c 0
 116.998046875 112.000976562 124.498046875 114.833984375 131.498046875 120.500976562 c 0
 138.498046875 126.16796875 142.998046875 135.000976562 144.998046875 147.000976562 c 2
 145.998046875 156.000976562 l 2
 145.998046875 157.333984375 146.331054688 159.333984375 146.998046875 162.000976562 c 0
 147.665039062 164.66796875 148.665039062 167.66796875 149.998046875 171.000976562 c 2
 150.998046875 173.000976562 l 2
 155.665039062 184.333984375 162.83203125 192.666992188 172.499023438 198 c 0
 182.166015625 203.333007812 192.833007812 207.333007812 204.5 210 c 0
 216.166992188 212.666992188 228.5 214.666992188 241.5 216 c 0
 254.5 217.333007812 267.166992188 219.833007812 279.5 223.5 c 0
 291.833007812 227.166992188 303 232.5 313 239.5 c 0
 323 246.5 331 257 337 271 c 0
 341.666992188 279.666992188 344.333984375 289 345.000976562 299 c 2
 346.000976562 309 l 2
 346.66796875 310.333007812 346.834960938 312 346.501953125 314 c 0
 346.168945312 316 346.001953125 317.666992188 346.001953125 319 c 0
 344.001953125 331.666992188 338.501953125 342.5 329.501953125 351.5 c 0
 320.501953125 360.5 309.668945312 367.666992188 297.001953125 373 c 0
 284.334960938 378.333007812 270.66796875 382.333007812 256.000976562 385 c 0
 241.333984375 387.666992188 227.000976562 389 213.000976562 389 c 0
 201.000976562 389 187.66796875 387.833007812 173.000976562 385.5 c 0
 158.333984375 383.166992188 143.833984375 378.666992188 129.500976562 372 c 0
 115.16796875 365.333007812 101.66796875 356.5 89.0009765625 345.5 c 0
 76.333984375 334.5 66.6669921875 320.333007812 60 303 c 2
 57 296 l 1
63 29.0048828125 m 2
 64.3330078125 19.671875 68.6689453125 12.5068359375 76.001953125 7.5068359375 c 0
 83.3349609375 2.5068359375 91.3349609375 0.0068359375 100.001953125 0.0068359375 c 0
 102.668945312 0.0068359375 106.668945312 0.673828125 112.001953125 2.0068359375 c 0
 117.334960938 3.33984375 122.501953125 5.1728515625 127.501953125 7.505859375 c 0
 132.501953125 9.8388671875 137.001953125 12.8388671875 141.001953125 16.505859375 c 0
 145.001953125 20.1728515625 147.334960938 24.005859375 148.001953125 28.005859375 c 2
 151.001953125 38.005859375 l 2
 152.334960938 46.6728515625 152.66796875 51.6728515625 152.000976562 53.005859375 c 0
 150.000976562 62.3388671875 146.000976562 68.671875 140.000976562 72.0048828125 c 0
 134.000976562 75.337890625 126.333984375 78.6708984375 117.000976562 82.00390625 c 0
 100.333984375 82.00390625 88.1669921875 78.3369140625 80.5 71.00390625 c 0
 72.8330078125 63.6708984375 67.3330078125 51.337890625 64 34.0048828125 c 2
 63 29.0048828125 l 2
EndSplineSet
Validated: 524297
EndChar

StartChar: at
Encoding: 64 64 32
Width: 802
GlyphClass: 1
Flags: W
HStem: -4 9<304.438 311.683> 15 3<350.643 357.907> 25 74<320.218 353.594> 37 1<374.982 379> 399 21G<531 532.5> 642 13<470.768 483.972> 687 0
VStem: 257 5<300 300.469>
LayerCount: 2
Fore
SplineSet
430 99 m 1xef
 387 75 316 87 316 87 c 1
 316 87 390 72 418 80 c 1
 418 80 404 68 376 63 c 1
 404 64 l 1
 404 64 364 44 328 44 c 1
 328 44 359 38 380 38 c 1
 379 37 l 1xdf
 352 34 290 25 283 25 c 0
 275 25 319 14 358 18 c 1
 356 17 355 16 354 15 c 0
 338 10 315 4 301 5 c 0
 288 6 305 0 319 -4 c 1
 318 -4 317 -4 316 -4 c 0
 77 30 30 255 106 440 c 1
 97 373 107 306 107 306 c 1
 106 348 103 386 118 467 c 1
 168 572 259 659 377 684 c 1
 371 680 368 678 374 680 c 0
 389 687 396 685 396 685 c 1
 378 681 350 657 350 657 c 1
 362 666 376 674 388 679 c 1
 149 485 124 90 430 99 c 1xef
719 315 m 1
 719 315 736 372 740 435 c 1
 772 266 699 73 539 67 c 1
 538 67 538 67 538 67 c 1
 504 68 480 124 472 195 c 1
 410 151 324 161 278 227 c 1
 303 205 325 192 325 192 c 1
 308 206 291 218 270 240 c 0
 264 251 259 264 255 279 c 1
 261 271 267 263 263 270 c 0
 257 281 257 287 257 287 c 1
 262 273 285 253 285 253 c 1
 273 264 264 278 259 289 c 1
 339 209 433 223 474 310 c 1
 477 329 482 348 488 365 c 1
 484 368 480 370 475 371 c 0
 462 373 466 362 475 349 c 1
 406 414 313 396 265 295 c 1
 267 306 271 322 278 335 c 1
 278 335 262 309 262 294 c 1
 262 294 259 299 262 312 c 0
 264 320 260 310 257 300 c 1
 254 328 258 353 267 375 c 0
 273 388 312 417 331 433 c 1
 331 433 303 415 272 387 c 1
 315 469 433 489 511 414 c 1
 518 425 527 435 537 444 c 1
 533 434 530 425 535 433 c 0
 542 448 549 450 549 450 c 1
 537 436 531 399 531 399 c 1
 534 417 543 434 550 446 c 1
 510 362 523 237 600 191 c 1
 665 378 598 553 385 583 c 1
 429 605 496 593 496 593 c 1
 496 593 422 608 394 600 c 1
 394 600 408 613 437 617 c 1
 408 616 l 1
 408 616 449 636 484 636 c 1
 484 636 445 644 424 642 c 1
 440 644 521 655 529 655 c 0
 539 655 484 669 444 661 c 1
 445 661 445 661 445 661 c 1
 456 665 493 676 511 675 c 0
 527 674 499 682 485 687 c 1
 487 687 490 688 492 687 c 0
 581 679 645 633 687 569 c 1
 685 533 679 508 675 481 c 1
 675 481 685 517 692 562 c 1
 710 533 724 500 733 466 c 1
 735 390 725 355 719 315 c 1
486 425 m 0
 475 428 492 419 507 407 c 1
 508 409 509 411 510 412 c 1
 502 418 494 424 486 425 c 0
480 397 m 0
 461 400 481 394 496 386 c 1
 497 388 498 390 499 392 c 1
 493 394 487 396 480 397 c 0
EndSplineSet
Validated: 37
EndChar

StartChar: A
Encoding: 65 65 33
Width: 537
GlyphClass: 1
Flags: W
LayerCount: 2
Fore
SplineSet
352.709960938 134.809570312 m 1
 348.331054688 205.359375 l 1
 291.87109375 187.899414062 196.821289062 189.009765625 140.701171875 191.58984375 c 1
 130.970703125 160.729492188 123.48046875 131.859375 118.310546875 107.469726562 c 0
 113.41015625 84.76953125 105.1796875 32.2099609375 105.1796875 32.2099609375 c 1
 0 42.6103515625 l 1
 14.150390625 158.390625 50.5 270.91015625 106.870117188 372.129882812 c 0
 161.299804688 470.309570312 234.939453125 557.26953125 322.259765625 626.639648438 c 1
 317.75 699.4296875 l 1
 376.969726562 672.549804688 l 1
 436.559570312 581.870117188 457.969726562 144.389648438 457.969726562 144.389648438 c 1
 352.709960938 134.809570312 l 1
179.901367188 294.739257812 m 1
 343.4609375 284.12890625 l 1
 327.331054688 544.668945312 l 1
 312.271484375 518.859375 288.401367188 485.76953125 263.361328125 446.69921875 c 0
 234.241210938 401.869140625 204.12109375 348.859375 179.901367188 294.739257812 c 1
250.12109375 124.268554688 m 1
 342.701171875 105.228515625 438.53125 98.5693359375 534.28125 104.9296875 c 1
 531.201171875 85.5693359375 527.821289062 66.189453125 524.151367188 46.8291015625 c 1
 501.721679688 18.3291015625 428.391601562 4.3388671875 361.241210938 5.44921875 c 0
 327.721679688 5.71875 295.971679688 9.12890625 272.78125 12.69921875 c 0
 249.571289062 16.2587890625 234.8515625 19.6787109375 234.8515625 19.6787109375 c 1
 250.12109375 124.268554688 l 1
EndSplineSet
Validated: 524321
EndChar

StartChar: B
Encoding: 66 66 34
Width: 597
GlyphClass: 1
Flags: W
LayerCount: 2
Fore
SplineSet
289.290039062 191.41015625 m 1
 266.870117188 162.91015625 193.530273438 148.919921875 126.390625 150.01953125 c 0
 92.87109375 150.2890625 61.111328125 153.69921875 37.9208984375 157.26953125 c 0
 14.7109375 160.83984375 0.0009765625 164.25 0.0009765625 164.25 c 1
 15.2705078125 268.83984375 l 1
 107.830078125 249.790039062 203.669921875 243.139648438 299.4296875 249.509765625 c 1
 296.33984375 230.139648438 292.959960938 210.759765625 289.290039062 191.41015625 c 1
587.3203125 213.669921875 m 0
 591.220703125 205.0703125 593.149414062 200.147460938 593.149414062 200.157226562 c 1
 532.359375 171.787109375 l 1
 475.329101562 24.4169921875 231.168945312 -12.212890625 120.928710938 3.88671875 c 1
 125.168945312 109.506835938 l 1
 245.19921875 100.466796875 382.029296875 130.287109375 467.989257812 210.497070312 c 1
 416.159179688 287.077148438 328.779296875 328.557617188 240.149414062 327.807617188 c 1
 245.529296875 346.958007812 252.1796875 365.98828125 260.129882812 384.71875 c 0
 265.709960938 388.80859375 273.360351562 392.178710938 282.360351562 394.7890625 c 1
 271.040039062 421.489257812 l 1
 359.620117188 452.94921875 435.629882812 528.609375 472.280273438 609.208984375 c 1
 414.440429688 591.989257812 313.610351562 587.609375 229.810546875 587.418945312 c 1
 241.8203125 470.279296875 210.400390625 263.51953125 210.400390625 263.51953125 c 1
 105.16015625 273.329101562 l 1
 147.3203125 588.44921875 l 1
 112.169921875 589.389648438 89.2197265625 590.609375 89.2197265625 590.609375 c 1
 89.2294921875 696.299804688 l 1
 530.009765625 679.859375 l 1
 515.139648438 646.319335938 l 1
 524.040039062 639.759765625 532.83984375 633.009765625 541.490234375 625.969726562 c 1
 562.280273438 545.779296875 482.150390625 429.149414062 415.75 381.649414062 c 1
 494.98046875 352.189453125 560.520507812 275.689453125 587.3203125 213.669921875 c 0
EndSplineSet
Validated: 524325
EndChar

StartChar: C
Encoding: 67 67 35
Width: 532
GlyphClass: 1
Flags: W
LayerCount: 2
Fore
SplineSet
503.040039062 688.400390625 m 1
 526.419921875 659.840820312 525.2578125 582.709960938 510.387695312 514.870117188 c 0
 503.237304688 480.950195312 493.327148438 449.440429688 485.02734375 426.640625 c 0
 476.727539062 403.831054688 470.297851562 389.581054688 470.297851562 389.581054688 c 1
 370.7578125 425.12109375 l 1
 385.047851562 465.670898438 399.337890625 506.220703125 413.627929688 546.780273438 c 1
 369.158203125 556.75 335.177734375 551.9296875 312.387695312 545.489257812 c 0
 204.227539062 514.87890625 126.447265625 384.80859375 117.067382812 219.71875 c 1
 126.827148438 210.159179688 137.506835938 200.889648438 149.186523438 192.099609375 c 0
 250.236328125 116.029296875 372.24609375 116.729492188 438.956054688 123.349609375 c 1
 444.90625 82.6796875 450.846679688 42.01953125 456.787109375 1.349609375 c 1
 425.546875 -2.2802734375 210.537109375 -23.900390625 74.6474609375 125.279296875 c 0
 36.0576171875 167.649414062 13.517578125 213.189453125 -0.001953125 251.229492188 c 1
 18.158203125 250.709960938 36.30859375 250.1796875 54.46875 249.66015625 c 1
 28.4287109375 451.650390625 118.678710938 621.669921875 249.418945312 664.990234375 c 0
 323.489257812 689.540039062 395.689453125 668.490234375 438.399414062 650.5703125 c 1
 442.139648438 670.450195312 445.509765625 690.41015625 448.1796875 710.530273438 c 1
 466.469726562 703.16015625 484.75 695.780273438 503.040039062 688.400390625 c 1
EndSplineSet
Validated: 524321
EndChar

StartChar: D
Encoding: 68 68 36
Width: 603
GlyphClass: 1
Flags: W
LayerCount: 2
Fore
SplineSet
504.849609375 616.23046875 m 1
 564.469726562 544.620117188 590.701171875 203.87109375 590.701171875 203.880859375 c 1
 549.05078125 198.451171875 l 1
 534.87109375 169.03125 515.140625 138.2109375 487.440429688 109.69140625 c 0
 359.200195312 -22.3583984375 161.830078125 -0.6083984375 126.349609375 3.8916015625 c 1
 130.58984375 109.51171875 l 1
 173.399414062 104.401367188 255.799804688 100.571289062 348.490234375 136.78125 c 0
 410.419921875 160.981445312 455.0703125 194.51171875 483.140625 219.4921875 c 1
 447.560546875 600.602539062 l 1
 389.250976562 590.452148438 310.560546875 587.572265625 242.930664062 587.421875 c 1
 254.9609375 470.282226562 223.520507812 263.522460938 223.520507812 263.522460938 c 1
 118.290039062 273.33203125 l 1
 160.450195312 588.452148438 l 1
 141.08984375 589.171875 121.719726562 589.891601562 102.349609375 590.611328125 c 1
 102.359375 696.301757812 l 1
 543.149414062 679.861328125 l 1
 518.08984375 623.321289062 l 2
 513.6796875 620.9609375 509.26953125 618.590820312 504.849609375 616.23046875 c 1
288.291015625 191.411132812 m 1
 265.880859375 162.911132812 192.53125 148.920898438 125.391601562 150.020507812 c 0
 91.8720703125 150.290039062 60.1123046875 153.700195312 36.921875 157.270507812 c 0
 13.7216796875 160.840820312 -0.998046875 164.250976562 -0.998046875 164.250976562 c 1
 14.271484375 268.840820312 l 1
 106.831054688 249.791015625 202.680664062 243.140625 298.430664062 249.510742188 c 1
 295.340820312 230.140625 291.9609375 210.760742188 288.291015625 191.411132812 c 1
EndSplineSet
Validated: 524321
EndChar

StartChar: E
Encoding: 69 69 37
Width: 496
GlyphClass: 1
Flags: W
LayerCount: 2
Fore
SplineSet
375.58984375 149.580078125 m 1
 356.521484375 92.4892578125 l 1
 296.491210938 39.6796875 14.9609375 50.1298828125 14.9609375 50.1298828125 c 1
 12.0009765625 155.790039062 l 1
 57.130859375 155.020507812 l 1
 77.2412109375 327.450195312 l 2
 75.2509765625 327.990234375 73.2705078125 328.540039062 71.2900390625 329.0703125 c 0
 82.849609375 410.760742188 94.419921875 492.470703125 106 574.161132812 c 1
 160.469726562 545.430664062 l 1
 174.799804688 521.270507812 180.169921875 471.720703125 180.8203125 415.3203125 c 1
 232.3203125 408.720703125 284.919921875 407.860351562 337.419921875 413.100585938 c 1
 335.4296875 393.7109375 333.44921875 374.331054688 331.458984375 354.9609375 c 1
 321.999023438 340.680664062 300.96875 329.350585938 274.358398438 322.130859375 c 0
 241.068359375 313.100585938 177.96875 312.690429688 177.96875 312.690429688 c 1
 177.96875 312.690429688 166.69921875 180.310546875 163.389648438 153.200195312 c 1
 375.58984375 149.580078125 l 1
390.431640625 264.369140625 m 1
 409.361328125 259.258789062 428.271484375 253.87890625 447.131835938 248.19921875 c 1
 473.131835938 222.899414062 479.341796875 148.499023438 471.19140625 81.8388671875 c 0
 467.391601562 48.5390625 460.671875 17.3193359375 454.681640625 -5.37109375 c 0
 448.711914062 -28.0810546875 443.76171875 -42.3505859375 443.76171875 -42.3505859375 c 1
 341.3515625 -16.1806640625 l 1
 370.021484375 73.869140625 386.711914062 168.479492188 390.431640625 264.369140625 c 1
463.33203125 623.319335938 m 1
 388.732421875 572.208984375 47.6025390625 590.599609375 47.6025390625 590.609375 c 2
 47.6220703125 696.299804688 l 1
 488.40234375 679.859375 l 1
 463.33203125 623.319335938 l 1
EndSplineSet
Validated: 524321
EndChar

StartChar: F
Encoding: 70 70 38
Width: 495
GlyphClass: 1
Flags: W
LayerCount: 2
Fore
SplineSet
29.740234375 689.759765625 m 1
 504.629882812 673.330078125 l 1
 477.629882812 616.790039062 l 1
 397.240234375 565.6796875 29.73046875 584.069335938 29.73046875 584.069335938 c 1
 29.740234375 689.759765625 l 1
160.780273438 412.200195312 m 1
 237.58984375 402.549804688 315.75 400.556640625 393.719726562 406.716796875 c 1
 390.059570312 387.256835938 386.08984375 367.766601562 381.8203125 348.31640625 c 1
 333.419921875 303.9765625 219.9296875 303.296875 156.939453125 307.747070312 c 1
 147.33984375 159.147460938 123.08984375 -2.412109375 123.08984375 -2.412109375 c 1
 18 8.8876953125 l 1
 60.7900390625 321.328125 l 2
 58.3896484375 321.837890625 57.01953125 322.158203125 57.01953125 322.158203125 c 1
 73.0498046875 426.618164062 l 1
 73.75 426.478515625 74.4501953125 426.368164062 75.140625 426.228515625 c 1
 94.650390625 568.708984375 l 1
 147.440429688 530.739257812 l 1
 157.150390625 506.729492188 160.810546875 463.719726562 160.780273438 412.200195312 c 1
EndSplineSet
Validated: 524321
EndChar

StartChar: G
Encoding: 71 71 39
Width: 574
GlyphClass: 1
Flags: W
LayerCount: 2
Fore
SplineSet
325.049804688 363.66015625 m 1
 402.030273438 344.91015625 482.717773438 338.211914062 563.427734375 344.442382812 c 1
 561.2578125 325.1328125 559.087890625 305.802734375 556.91796875 286.493164062 c 1
 547.658203125 272.453125 527.368164062 261.573242188 501.858398438 254.6328125 c 0
 499.908203125 254.102539062 497.768554688 253.752929688 495.778320312 253.272460938 c 1
 515.118164062 222.8828125 514.637695312 155.752929688 503.107421875 95.9130859375 c 0
 503.067382812 95.6728515625 503.0078125 95.4423828125 502.967773438 95.2119140625 c 2
 503.477539062 94.2822265625 l 1
 503.227539062 94.162109375 502.967773438 94.0517578125 502.717773438 93.921875 c 0
 496.807617188 62.671875 488.5078125 33.6220703125 481.4375 12.4423828125 c 0
 474.227539062 -9.2080078125 468.557617188 -22.767578125 468.557617188 -22.767578125 c 1
 367.927734375 9.5419921875 l 1
 373.297851562 24.431640625 378.66796875 39.33203125 384.038085938 54.2216796875 c 1
 350.7578125 47.2021484375 273.517578125 35.8525390625 187.91796875 70.4423828125 c 0
 159.717773438 81.83203125 100.677734375 106.3515625 55.587890625 169.631835938 c 0
 22.7177734375 215.7421875 5.8681640625 269.682617188 3.998046875 324.502929688 c 1
 17.34765625 318.022460938 30.7080078125 311.541992188 44.068359375 305.051757812 c 1
 28.6982421875 440.651367188 88.3779296875 569.271484375 195.578125 631.921875 c 0
 300.177734375 693.041992188 409.158203125 667.51171875 434.708007812 660.801757812 c 1
 437.538085938 677.221679688 440.1484375 693.681640625 442.278320312 710.251953125 c 1
 460.698242188 703.622070312 479.078125 696.7421875 497.3984375 689.602539062 c 1
 521.108398438 662.822265625 521.41796875 590.412109375 509.087890625 526.381835938 c 0
 503.16796875 494.372070312 494.637695312 464.541992188 487.41796875 442.912109375 c 0
 480.217773438 421.26171875 474.547851562 407.702148438 474.547851562 407.702148438 c 1
 373.91796875 440.01171875 l 1
 385.1484375 475.381835938 396.37890625 510.751953125 407.609375 546.122070312 c 1
 375.9296875 559.622070312 350 561.112304688 330.509765625 558.921875 c 0
 230.139648438 547.69140625 142.009765625 421.4609375 113.979492188 244.130859375 c 1
 126.799804688 225.041015625 143.879882812 205.731445312 166.6796875 189.521484375 c 0
 267.66015625 117.721679688 399 165.131835938 417.25 172.032226562 c 1
 421.959960938 196.452148438 426.650390625 220.881835938 431.350585938 245.301757812 c 1
 426.440429688 245.181640625 421.520507812 245.01171875 416.66015625 245.061523438 c 0
 387.530273438 245.37109375 359.98046875 248.831054688 339.940429688 252.430664062 c 0
 319.870117188 256.030273438 307.209960938 259.48046875 307.209960938 259.48046875 c 1
 325.049804688 363.66015625 l 1
EndSplineSet
Validated: 524321
EndChar

StartChar: H
Encoding: 72 72 40
Width: 643
GlyphClass: 1
Flags: W
LayerCount: 2
Fore
SplineSet
605.440429688 694.309570312 m 0
 628.640625 690.759765625 643.366210938 687.329101562 643.31640625 687.359375 c 1
 628.046875 582.779296875 l 1
 609.846679688 586.509765625 591.486328125 589.639648438 573.06640625 592.419921875 c 1
 557.486328125 436.599609375 l 1
 560.306640625 436.809570312 563.13671875 436.919921875 565.95703125 437.16015625 c 1
 561.766601562 420.890625 557.256835938 404.640625 552.666992188 388.380859375 c 2
 513.9765625 1.380859375 l 1
 460.126953125 40.23046875 l 1
 439.947265625 90.0302734375 440.567382812 218.600585938 446.997070312 341.930664062 c 1
 410.6171875 336.280273438 369.4375 334.049804688 330.017578125 334.719726562 c 0
 285.02734375 335.4296875 242.407226562 339.83984375 211.237304688 344.379882812 c 0
 206.557617188 345.059570312 202.217773438 345.729492188 198.078125 346.379882812 c 1
 192.028320312 240.280273438 182.188476562 141.290039062 178.268554688 103.900390625 c 1
 218.178710938 102.040039062 258.30859375 102.290039062 298.428710938 104.950195312 c 1
 295.338867188 85.58984375 291.958984375 66.2099609375 288.2890625 46.849609375 c 1
 265.869140625 18.359375 192.529296875 4.359375 125.389648438 5.4697265625 c 0
 91.8701171875 5.7392578125 60.1103515625 9.1494140625 36.919921875 12.7197265625 c 0
 13.7197265625 16.279296875 -1 19.69921875 -1 19.69921875 c 1
 14.26953125 124.2890625 l 1
 33.69921875 120.2890625 53.298828125 116.958984375 72.978515625 114.05859375 c 1
 132.12890625 705.668945312 l 1
 185.989257812 666.819335938 l 1
 201.369140625 628.87890625 204.668945312 545.249023438 202.529296875 453.048828125 c 1
 284.809570312 438.848632812 368.609375 431.858398438 452.719726562 432.268554688 c 1
 458.309570312 508.958984375 464.819335938 574.069335938 467.849609375 602.939453125 c 1
 426.69921875 604.989257812 385.309570312 604.829101562 343.919921875 602.079101562 c 1
 347.01953125 621.439453125 350.399414062 640.819335938 354.059570312 660.1796875 c 1
 376.5 688.6796875 449.830078125 702.669921875 516.98046875 701.559570312 c 0
 550.5 701.290039062 582.25 697.879882812 605.440429688 694.309570312 c 0
EndSplineSet
Validated: 524325
EndChar

StartChar: I
Encoding: 73 73 41
Width: 325
GlyphClass: 1
Flags: W
LayerCount: 2
Fore
SplineSet
308.889648438 582.740234375 m 1
 282.620117188 588.150390625 256.0703125 592.4375 229.360351562 595.837890625 c 1
 182.669921875 97.328125 l 1
 211.889648438 96.3876953125 241.239257812 96.8974609375 270.599609375 99.087890625 c 1
 268.479492188 79.767578125 266.0390625 60.427734375 263.26953125 41.09765625 c 1
 253.549804688 27.0380859375 232.51953125 16.16796875 206.119140625 9.23828125 c 0
 179.76953125 2.228515625 148.159179688 -0.6416015625 118.109375 -0.3115234375 c 0
 88.0390625 -0.021484375 59.5693359375 3.4384765625 38.849609375 7.0283203125 c 0
 18.109375 10.6083984375 4.9990234375 14.048828125 4.9990234375 14.048828125 c 1
 22.208984375 118.329101562 l 1
 52.888671875 111.149414062 84.0986328125 105.759765625 115.62890625 102.16015625 c 1
 87.9892578125 218.5 116.829101562 532.639648438 123.888671875 603.919921875 c 1
 90.908203125 604.809570312 57.80859375 604.26953125 24.728515625 602.079101562 c 1
 27.818359375 621.439453125 31.1884765625 640.819335938 34.8583984375 660.1796875 c 1
 57.2880859375 688.6796875 130.618164062 702.669921875 197.768554688 701.559570312 c 0
 231.288085938 701.290039062 263.038085938 697.879882812 286.228515625 694.309570312 c 0
 309.428710938 690.75 324.159179688 687.330078125 324.159179688 687.330078125 c 1
 308.889648438 582.740234375 l 1
EndSplineSet
Validated: 524321
EndChar

StartChar: J
Encoding: 74 74 42
Width: 444
GlyphClass: 1
Flags: W
LayerCount: 2
Fore
SplineSet
397.08984375 617.51953125 m 0
 434.419921875 475.83984375 420.540039062 318.818359375 364.450195312 190.138671875 c 1
 403.08984375 143.688476562 l 1
 337.25 92.818359375 247.509765625 63.55859375 171.849609375 63.2587890625 c 1
 174.959960938 50.3486328125 176.83984375 42.568359375 176.83984375 42.568359375 c 1
 76.1796875 10.337890625 l 1
 49.359375 112.078125 35.2998046875 216.288085938 33.51953125 319.998046875 c 1
 52.7392578125 315.438476562 71.9697265625 311.12890625 91.2099609375 307.079101562 c 1
 117.879882812 285.46875 138.969726562 200.8984375 151.509765625 147.708007812 c 1
 200.529296875 159.877929688 255.489257812 177.748046875 291.819335938 197.948242188 c 1
 314.849609375 317.0078125 329.76953125 476.047851562 295.76953125 587.377929688 c 1
 230.08984375 572.158203125 23.2099609375 588.688476562 12 595.088867188 c 1
 23.6298828125 700.138671875 l 1
 154.469726562 680.178710938 287.969726562 673.548828125 421.26953125 680.55859375 c 1
 415.489257812 661.098632812 409.469726562 641.638671875 403.25 622.21875 c 0
 401.419921875 620.598632812 399.330078125 619.0390625 397.08984375 617.51953125 c 0
EndSplineSet
Validated: 524321
EndChar

StartChar: K
Encoding: 75 75 43
Width: 593
GlyphClass: 1
Flags: W
LayerCount: 2
Fore
SplineSet
20.5302734375 111.860351562 m 1
 104.919921875 92.9501953125 192.810546875 86.2783203125 280.670898438 92.568359375 c 1
 278.23046875 73.228515625 275.470703125 53.888671875 272.400390625 34.5390625 c 1
 252.150390625 6.0693359375 183.940429688 -7.990234375 121.440429688 -6.8505859375 c 0
 90.25 -6.5703125 60.7099609375 -3.1298828125 39.1796875 0.4501953125 c 0
 17.6298828125 4.0302734375 4 7.470703125 4 7.470703125 c 1
 20.5302734375 111.860351562 l 1
593.12109375 575.348632812 m 1
 322.3203125 390.728515625 l 1
 568.330078125 30.8583984375 l 1
 508.040039062 17.298828125 l 1
 422.75 46.619140625 235.419921875 330.668945312 235.419921875 330.668945312 c 1
 210.879882812 314.758789062 l 1
 190.51953125 117.068359375 l 1
 135.759765625 148.298828125 l 1
 95.08984375 224.21875 122.5703125 527.938476562 129.48046875 597.348632812 c 1
 94.23046875 598.318359375 58.8603515625 597.768554688 23.490234375 595.508789062 c 1
 26.919921875 614.8984375 30.6201171875 634.278320312 34.6103515625 653.6484375 c 1
 80.580078125 706.688476562 267.25 698.788085938 335.450195312 680.828125 c 1
 320.790039062 576.158203125 l 1
 292.440429688 581.748046875 263.80078125 586.127929688 234.991210938 589.568359375 c 1
 217.87109375 407.627929688 l 1
 292.451171875 503.608398438 530.53125 660.518554688 530.53125 660.518554688 c 1
 593.12109375 575.348632812 l 1
EndSplineSet
Validated: 524321
EndChar

StartChar: L
Encoding: 76 76 44
Width: 444
GlyphClass: 1
Flags: W
LayerCount: 2
Fore
SplineSet
307.299804688 576.16015625 m 1
 210.280273438 595.259765625 110.099609375 601.900390625 10 595.5 c 1
 13.4296875 614.889648438 17.1298828125 634.26953125 21.1201171875 653.629882812 c 1
 44.73046875 682.139648438 120.91015625 696.109375 190.620117188 695.01953125 c 0
 225.4296875 694.75 258.419921875 691.349609375 282.530273438 687.790039062 c 0
 306.650390625 684.25 321.959960938 680.830078125 321.959960938 680.830078125 c 1
 307.299804688 576.16015625 l 1
149.3984375 116.420898438 m 1
 219.368164062 112.951171875 438.158203125 132.529296875 438.158203125 132.51953125 c 2
 430.877929688 16.9091796875 l 1
 256.958007812 -0.0107421875 30.8583984375 50.939453125 30.8583984375 50.939453125 c 1
 124.188476562 587.379882812 l 1
 175.778320312 548.740234375 l 1
 202.877929688 477.690429688 169.858398438 242.010742188 149.3984375 116.420898438 c 1
EndSplineSet
Validated: 524321
EndChar

StartChar: M
Encoding: 77 77 45
Width: 714
GlyphClass: 1
Flags: W
LayerCount: 2
Fore
SplineSet
702.459960938 689.830078125 m 1
 687.806640625 585.15234375 l 1
 670.247070312 588.612304688 652.556640625 591.501953125 634.806640625 594.15234375 c 1
 665.116210938 420.392578125 643.856445312 -0.0078125 643.856445312 -0.0078125 c 1
 538.176757812 1.751953125 l 1
 555.3671875 432.76171875 l 1
 505.307617188 288.372070312 379.27734375 64.7421875 379.27734375 64.7421875 c 1
 284.967773438 112.47265625 l 1
 362.59765625 254.752929688 l 1
 318.91796875 252.29296875 l 1
 285.23828125 270.602539062 240.46875 336.852539062 199.829101562 407.552734375 c 1
 195.999023438 303.272460938 182.46875 179.702148438 172.2890625 97.7119140625 c 1
 202.939453125 96.5615234375 233.779296875 97.091796875 264.599609375 99.3818359375 c 1
 262.479492188 80.0615234375 260.0390625 60.7314453125 257.26953125 41.3916015625 c 1
 247.559570312 27.33203125 226.51953125 16.4716796875 200.119140625 9.53125 c 0
 173.758789062 2.53125 142.159179688 -0.3388671875 112.109375 -0.0185546875 c 0
 82.0390625 0.28125 53.5693359375 3.7314453125 32.849609375 7.3212890625 c 0
 12.109375 10.9111328125 -1.0009765625 14.3515625 -1.0009765625 14.3515625 c 1
 16.208984375 118.631835938 l 1
 33.0693359375 114.69140625 50.099609375 111.401367188 67.2392578125 108.53125 c 1
 126.01953125 547.26171875 l 1
 107.209960938 585.521484375 95.3203125 611.701171875 95.3203125 611.701171875 c 1
 189.110351562 660.420898438 l 1
 372.610351562 273.100585938 l 1
 538.590820312 577.331054688 l 1
 559.900390625 547.05078125 l 1
 562.120117188 602.600585938 l 1
 505.290039062 607.41015625 447.889648438 608.169921875 390.5 604.5 c 1
 393.9296875 623.889648438 397.629882812 643.26953125 401.620117188 662.639648438 c 1
 425.240234375 691.139648438 501.41015625 705.109375 571.120117188 704.01953125 c 0
 605.9296875 703.75 638.919921875 700.349609375 663.030273438 696.790039062 c 0
 687.150390625 693.25 702.459960938 689.830078125 702.459960938 689.830078125 c 1
EndSplineSet
Validated: 524321
EndChar

StartChar: N
Encoding: 78 78 46
Width: 581
GlyphClass: 1
Flags: W
LayerCount: 2
Fore
SplineSet
75.4697265625 642.379882812 m 1
 129.630859375 602.330078125 l 1
 173.840820312 490.719726562 124.48046875 -3.2705078125 124.48046875 -3.2705078125 c 1
 19 3.599609375 l 1
 75.4697265625 642.379882812 l 1
486.7109375 99.0703125 m 1
 513.9609375 98.5302734375 541.302734375 99.0908203125 568.65234375 101.081054688 c 1
 566.211914062 81.361328125 563.452148438 61.6416015625 560.381835938 41.931640625 c 1
 540.131835938 12.8916015625 471.94140625 -1.4384765625 409.431640625 -0.2783203125 c 0
 378.241210938 0.021484375 348.7109375 3.51171875 327.180664062 7.171875 c 0
 305.630859375 10.8115234375 292.000976562 14.3115234375 292.000976562 14.3115234375 c 1
 308.520507812 120.731445312 l 1
 332.4609375 115.26171875 356.69140625 110.921875 381.111328125 107.481445312 c 1
 395.741210938 212.000976562 l 1
 81.380859375 677.2109375 l 1
 145.62109375 685.380859375 l 1
 210.640625 654.220703125 339.880859375 479.661132812 417.650390625 368.55078125 c 1
 464.73046875 704.7109375 l 1
 517.05078125 663.920898438 l 1
 553.600585938 563.7109375 495.130859375 155.970703125 486.7109375 99.0703125 c 1
EndSplineSet
Validated: 524321
EndChar

StartChar: O
Encoding: 79 79 47
Width: 610
GlyphClass: 1
Flags: W
LayerCount: 2
Fore
SplineSet
119.059570312 351.900390625 m 0
 90.0693359375 278.680664062 87.140625 213.079101562 88.380859375 173.708984375 c 1
 69.7705078125 188.588867188 51.140625 203.458984375 32.5302734375 218.329101562 c 1
 27.73046875 241.208984375 24.830078125 266.088867188 25.009765625 292.678710938 c 0
 26.1201171875 449.30859375 133.770507812 561.228515625 175.020507812 599.96875 c 1
 105.900390625 588.708984375 22.8603515625 593.44921875 22.8603515625 593.44921875 c 1
 19 699.069335938 l 1
 271.360351562 691.918945312 l 1
 263.370117188 654.708984375 l 1
 360.120117188 699.668945312 477.959960938 684.149414062 558.75 650.129882812 c 1
 521.51953125 551.209960938 l 1
 497.369140625 560.76953125 389.489257812 600.399414062 280.26953125 548.979492188 c 0
 178.01953125 500.83984375 139.479492188 403.459960938 119.059570312 351.900390625 c 0
589.900390625 466.698242188 m 1
 643.840820312 148.41796875 329.860351562 -85.201171875 63.669921875 34.8984375 c 1
 100.91015625 133.818359375 l 1
 359.790039062 18.6787109375 546.020507812 296.008789062 534.060546875 511.318359375 c 1
 552.650390625 497.837890625 571.450195312 482.958007812 589.900390625 466.698242188 c 1
235.560546875 375.859375 m 1
 335.440429688 450.529296875 l 1
 369.930664062 405.1796875 l 1
 390.670898438 354 309.430664062 300.26953125 309.430664062 300.26953125 c 1
 235.560546875 375.859375 l 1
EndSplineSet
Validated: 524321
EndChar

StartChar: P
Encoding: 80 80 48
Width: 571
GlyphClass: 1
Flags: W
LayerCount: 2
Fore
SplineSet
15.5302734375 118.400390625 m 1
 99.9306640625 99.490234375 187.810546875 92.8193359375 275.670898438 99.109375 c 1
 273.23046875 79.779296875 270.470703125 60.4296875 267.400390625 41.08984375 c 1
 247.150390625 12.609375 178.940429688 -1.4501953125 116.440429688 -0.310546875 c 0
 85.25 -0.0302734375 55.7099609375 3.41015625 34.1796875 7 c 0
 12.6298828125 10.5703125 -1 14.0107421875 -1 14.0107421875 c 1
 15.5302734375 118.400390625 l 1
567.58984375 605.979492188 m 1
 590.169921875 470.69921875 434.200195312 311.278320312 315.719726562 272.538085938 c 1
 273.790039062 369.557617188 l 1
 390.360351562 412.977539062 480 519.0078125 516.080078125 633.368164062 c 1
 460.879882812 606.337890625 323.049804688 597.767578125 215.599609375 595.377929688 c 1
 255.719726562 502.528320312 189.450195312 109.3984375 189.450195312 109.3984375 c 1
 84.5400390625 122.158203125 l 1
 157.309570312 594.598632812 l 1
 107.369140625 594.338867188 73.01953125 595.21875 73.01953125 595.21875 c 1
 70.5498046875 700.888671875 l 1
 551.490234375 695.798828125 l 1
 525.83984375 639.369140625 l 1
 540.040039062 628.798828125 554.009765625 617.739257812 567.58984375 605.979492188 c 1
EndSplineSet
Validated: 524321
EndChar

StartChar: Q
Encoding: 81 81 49
Width: 610
GlyphClass: 1
Flags: W
LayerCount: 2
Fore
SplineSet
357.366210938 570.969726562 m 0
 174.15625 544.889648438 96.0888671875 327.548828125 82.8984375 199.068359375 c 1
 64.3681640625 211.948242188 45.3984375 226.388671875 27.1982421875 242.358398438 c 1
 24.7783203125 250.838867188 22.6982421875 261.2890625 21.2578125 273.5390625 c 0
 10.3173828125 366.119140625 71.9970703125 538.638671875 160.596679688 591.749023438 c 1
 98.70703125 583.208984375 30.4873046875 587.529296875 30.4873046875 587.529296875 c 1
 26.626953125 693.149414062 l 1
 263.407226562 685.389648438 l 1
 256.4375 650.459960938 l 1
 343.287109375 688.950195312 452.77734375 682.25 526.997070312 656.629882812 c 0
 543.716796875 651.099609375 546.56640625 649.9296875 553.616210938 647.41015625 c 1
 518.65625 547.66015625 l 1
 465.896484375 567.530273438 409.956054688 577.379882812 357.366210938 570.969726562 c 0
586.599609375 348.329101562 m 0
 582.209960938 330.909179688 578.458007812 311.869140625 570.948242188 293.048828125 c 0
 556.587890625 250.119140625 526.047851562 198.569335938 498.607421875 167.2890625 c 1
 541.717773438 107.479492188 576.837890625 40.19921875 576.837890625 40.19921875 c 1
 487.368164062 -16.0703125 l 1
 423.478515625 99.3193359375 l 1
 325.1484375 27.19921875 185.098632812 21.5888671875 85.9990234375 56.5185546875 c 0
 69.2890625 62.048828125 66.439453125 63.21875 59.3798828125 65.73828125 c 1
 94.349609375 165.48828125 l 1
 147.099609375 145.618164062 203.040039062 135.768554688 255.629882812 142.178710938 c 0
 281.649414062 146.30859375 307.899414062 152.2890625 332.168945312 164.159179688 c 0
 346.758789062 170.819335938 360.918945312 178.779296875 374.438476562 187.889648438 c 1
 344.798828125 241.419921875 l 1
 401.548828125 257.379882812 l 1
 411.668945312 255.219726562 422.55859375 249.040039062 433.73828125 240.1796875 c 1
 441.608398438 249.799804688 450.127929688 258.9296875 456.797851562 269.609375 c 0
 473.637695312 292.219726562 486.227539062 317.950195312 497.767578125 344.0703125 c 0
 519.107421875 397.240234375 529.897460938 455.3203125 530.127929688 514.08984375 c 1
 548.658203125 501.200195312 567.627929688 486.759765625 585.818359375 470.799804688 c 1
 588.248046875 462.319335938 590.228515625 451.859375 591.768554688 439.619140625 c 0
 595.048828125 405.428710938 590.619140625 370.958984375 586.599609375 348.329101562 c 0
244.567382812 390.369140625 m 1
 338.9375 459.290039062 l 1
 373.637695312 414.169921875 l 1
 395.248046875 363.879882812 318.267578125 314.599609375 318.267578125 314.599609375 c 1
 244.567382812 390.369140625 l 1
EndSplineSet
Validated: 524321
EndChar

StartChar: R
Encoding: 82 82 50
Width: 581
GlyphClass: 1
Flags: W
LayerCount: 2
Fore
SplineSet
14.51953125 111.860351562 m 1
 98.919921875 92.9501953125 186.810546875 86.2783203125 274.66015625 92.568359375 c 1
 272.219726562 73.228515625 269.459960938 53.888671875 266.400390625 34.5390625 c 1
 246.140625 6.0693359375 177.940429688 -7.990234375 115.440429688 -6.8505859375 c 0
 84.240234375 -6.5703125 54.7099609375 -3.1298828125 33.1796875 0.4501953125 c 0
 11.6298828125 4.0302734375 -2 7.470703125 -2 7.470703125 c 1
 14.51953125 111.860351562 l 1
569.170898438 599.428710938 m 1
 588.640625 499.23828125 489.43359375 364.977539062 404.233398438 311.407226562 c 1
 548.873046875 7.8369140625 l 1
 487.203125 3.7373046875 l 1
 407.47265625 45.876953125 266.2421875 355.447265625 266.2421875 355.447265625 c 1
 383.952148438 406.317382812 481.26171875 504.84765625 517.662109375 626.828125 c 1
 462.452148438 599.797851562 324.631835938 591.227539062 217.181640625 588.837890625 c 1
 257.301757812 495.977539062 191.032226562 102.857421875 191.032226562 102.857421875 c 1
 86.1123046875 115.607421875 l 1
 158.881835938 588.047851562 l 1
 108.94140625 587.797851562 74.6015625 588.677734375 74.6015625 588.677734375 c 1
 72.12109375 694.337890625 l 1
 553.071289062 689.248046875 l 1
 527.411132812 632.828125 l 1
 541.611328125 622.248046875 555.581054688 611.198242188 569.170898438 599.428710938 c 1
EndSplineSet
Validated: 524321
EndChar

StartChar: S
Encoding: 83 83 51
Width: 555
GlyphClass: 1
Flags: W
LayerCount: 2
Fore
SplineSet
367.137695312 371.469726562 m 1
 438.657226562 330.009765625 490.485351562 261.1796875 518.385742188 191.809570312 c 1
 506.595703125 191.509765625 483.286132812 189.740234375 483.286132812 189.740234375 c 1
 471.026367188 140.400390625 406.125976562 78.400390625 374.916015625 57.7607421875 c 0
 293.076171875 3.630859375 178.366210938 6.310546875 99.3466796875 38.5205078125 c 1
 96.1064453125 18.1806640625 93.3564453125 -2.26953125 91.24609375 -22.8291015625 c 1
 72.646484375 -16.779296875 54.0869140625 -10.4794921875 35.5869140625 -3.8994140625 c 1
 -9.2734375 45.380859375 25.576171875 216.400390625 52.0263671875 275.169921875 c 1
 153.0859375 244.209960938 l 1
 140.845703125 211.450195312 130.295898438 177.940429688 121.366210938 143.860351562 c 1
 149.576171875 130.8203125 181.326171875 122.91015625 212.505859375 120.33984375 c 0
 294.275390625 112.870117188 372.805664062 157.190429688 417.92578125 214.30078125 c 1
 372.885742188 253.250976562 326.005859375 286.331054688 275.946289062 300.151367188 c 0
 260.926757812 304.301757812 208.856445312 316.282226562 185.866210938 314.47265625 c 1
 184.556640625 337.333007812 l 1
 113.046875 378.783203125 61.2265625 447.623046875 33.31640625 517.012695312 c 1
 45.1064453125 517.322265625 56.796875 518.072265625 68.4169921875 519.091796875 c 1
 76.5966796875 558.981445312 125.38671875 617.631835938 158.8671875 639.391601562 c 0
 164.807617188 643.251953125 170.788085938 647.15234375 176.797851562 651.0625 c 0
 259.748046875 703.452148438 373.337890625 702.501953125 452.368164062 670.291992188 c 1
 458.248046875 701.341796875 462.91796875 732.69140625 466.1484375 764.311523438 c 1
 484.73828125 758.251953125 503.30859375 751.952148438 521.80859375 745.381835938 c 1
 566.668945312 696.091796875 531.819335938 525.072265625 505.369140625 466.3125 c 1
 404.319335938 497.262695312 l 1
 412.76953125 519.892578125 420.369140625 542.912109375 427.249023438 566.202148438 c 1
 399.7890625 578.421875 369.258789062 585.981445312 339.188476562 588.461914062 c 0
 257.418945312 595.921875 178.888671875 551.612304688 133.778320312 494.501953125 c 1
 178.80859375 455.551757812 225.688476562 422.471679688 275.748046875 408.651367188 c 0
 290.778320312 404.500976562 325.708007812 395.310546875 365.828125 394.330078125 c 1
 367.137695312 371.469726562 l 1
EndSplineSet
Validated: 524321
EndChar

StartChar: T
Encoding: 84 84 52
Width: 553
GlyphClass: 1
Flags: W
LayerCount: 2
Fore
SplineSet
563.368164062 663.73046875 m 1
 536.21875 606.630859375 l 1
 500.458984375 583.940429688 408.829101562 572.940429688 315.94921875 567.760742188 c 1
 357.0390625 451.87109375 311.508789062 13.361328125 311.508789062 13.361328125 c 1
 205.999023438 19.8017578125 l 1
 255.439453125 565.131835938 l 1
 194.4296875 563.181640625 138.229492188 563.271484375 103.419921875 563.651367188 c 1
 100.169921875 526.701171875 98.6396484375 489.481445312 99.029296875 452.161132812 c 1
 79.859375 456.180664062 60.7197265625 460.4609375 41.58984375 465.020507812 c 1
 -8.509765625 509.720703125 7.1103515625 685.860351562 26.6298828125 748.0703125 c 1
 130.599609375 729.110351562 l 1
 125.76953125 709.330078125 121.579101562 689.360351562 117.848632812 669.280273438 c 1
 563.368164062 663.73046875 l 1
EndSplineSet
Validated: 524321
EndChar

StartChar: U
Encoding: 85 85 53
Width: 546
GlyphClass: 1
Flags: W
LayerCount: 2
Fore
SplineSet
432.129882812 691.120117188 m 1
 536.951171875 677.403320312 l 1
 439.141601562 56.123046875 l 1
 387.721679688 98.892578125 l 2
 385.591796875 105.362304688 383.861328125 113.112304688 382.481445312 121.872070312 c 1
 366.12109375 81.431640625 l 1
 341.411132812 93.001953125 313.430664062 100.1015625 286.030273438 102.541992188 c 0
 194.180664062 111.791992188 117.060546875 50.0224609375 75.4609375 -18.7373046875 c 1
 62.5205078125 -3.3671875 50.23046875 12.79296875 38.740234375 29.7734375 c 1
 37.890625 48.2138671875 47.37109375 76.083984375 68.380859375 105.103515625 c 1
 29.880859375 104.283203125 l 1
 32.2412109375 266.18359375 55.6416015625 443.443359375 129.122070312 583.623046875 c 1
 89.322265625 584.682617188 40.732421875 592.65234375 21.001953125 597.732421875 c 1
 37.5322265625 702.122070312 l 1
 121.921875 683.211914062 209.811523438 676.541992188 297.661132812 682.841796875 c 1
 295.2109375 663.51171875 292.4609375 644.162109375 289.390625 624.822265625 c 1
 276.170898438 606.232421875 242.470703125 593.822265625 203.310546875 587.7421875 c 1
 173.860351562 467.682617188 139.16015625 289.682617188 137.66015625 168.572265625 c 1
 137.759765625 168.631835938 137.83984375 168.69140625 137.939453125 168.750976562 c 0
 209.44921875 214.850585938 310.479492188 215.310546875 378.129882812 190.350585938 c 1
 377.479492188 368.400390625 432.129882812 691.120117188 432.129882812 691.120117188 c 1
EndSplineSet
Validated: 524321
EndChar

StartChar: V
Encoding: 86 86 54
Width: 528
GlyphClass: 1
Flags: W
LayerCount: 2
Fore
SplineSet
103.969726562 121.3203125 m 1
 188.359375 102.41015625 276.240234375 95.71875 364.100585938 102.028320312 c 1
 361.640625 82.6884765625 358.890625 63.3486328125 355.8203125 43.9990234375 c 1
 335.580078125 15.529296875 267.370117188 1.4697265625 204.870117188 2.609375 c 0
 173.6796875 2.8896484375 144.149414062 6.330078125 122.609375 9.91015625 c 0
 101.059570312 13.48046875 87.4296875 16.9306640625 87.4296875 16.9306640625 c 1
 103.969726562 121.3203125 l 1
247.360351562 130.999023438 m 1
 183.94921875 146.87890625 l 1
 107.829101562 226.569335938 1.9990234375 660.69921875 1.9990234375 660.69921875 c 1
 103.569335938 689.9296875 l 1
 233.599609375 184.479492188 l 1
 251.909179688 325.659179688 438.139648438 704.178710938 438.139648438 704.178710938 c 1
 534.69921875 661.188476562 l 1
 269.639648438 105.948242188 l 1
 244.209960938 143.268554688 l 1
 247.360351562 130.999023438 l 1
EndSplineSet
Validated: 524321
EndChar

StartChar: W
Encoding: 87 87 55
Width: 750
GlyphClass: 1
Flags: W
LayerCount: 2
Fore
SplineSet
755.190429688 631.599609375 m 1
 488.401367188 26.5673828125 l 1
 484.920898438 31.7373046875 l 1
 486.000976562 23.5869140625 l 1
 426.821289062 33.1572265625 l 1
 382.181640625 69.3271484375 354.151367188 224.397460938 342.381835938 304.34765625 c 1
 225.731445312 96.8876953125 l 1
 248.961914062 96.748046875 272.251953125 97.4482421875 295.551757812 99.1181640625 c 1
 293.1015625 79.7880859375 290.3515625 60.4384765625 287.28125 41.0986328125 c 1
 267.03125 12.6181640625 198.821289062 -1.44140625 136.321289062 -0.3017578125 c 0
 105.130859375 -0.021484375 75.5908203125 3.4189453125 54.060546875 7.0087890625 c 0
 32.5107421875 10.5791015625 18.880859375 14.01953125 18.880859375 14.01953125 c 1
 35.4111328125 118.409179688 l 1
 75.12109375 109.508789062 115.630859375 103.418945312 156.541015625 100.029296875 c 1
 156.630859375 110.219726562 158.390625 122.279296875 161.541015625 135.809570312 c 1
 154.170898438 138.4296875 l 1
 84.970703125 226.25 16.0009765625 676.08984375 16.0009765625 676.08984375 c 1
 119.741210938 696.309570312 l 1
 196.291015625 235.489257812 l 1
 244.491210938 349.418945312 320.19140625 480.838867188 327.78125 493.94921875 c 1
 422.340820312 446.569335938 l 1
 373.23046875 359.239257812 l 1
 439.98046875 371.26953125 l 1
 465.860351562 175.69921875 l 1
 513.959960938 355.9296875 657.459960938 671.83984375 657.459960938 671.83984375 c 1
 755.190429688 631.599609375 l 1
457.021484375 499.45703125 m 0
 433.461914062 492.38671875 404.990234375 489.4765625 377.970703125 489.876953125 c 0
 361.590820312 490.096679688 341.850585938 492.046875 327.791015625 493.936523438 c 0
 320.140625 495.036132812 313.041015625 496.266601562 306.791015625 497.516601562 c 0
 288.2109375 501.216796875 276.55078125 504.736328125 276.55078125 504.736328125 c 1
 296.4609375 608.536132812 l 1
 365.500976562 589.686523438 438.571289062 582.916992188 511.731445312 589.327148438 c 1
 510.651367188 570.057617188 509.19140625 550.767578125 507.361328125 531.467773438 c 1
 499.170898438 517.397460938 480.611328125 506.447265625 457.021484375 499.45703125 c 0
EndSplineSet
Validated: 524325
EndChar

StartChar: X
Encoding: 88 88 56
Width: 568
GlyphClass: 1
Flags: W
LayerCount: 2
Fore
SplineSet
381.75 362.8203125 m 1
 478.030273438 220.08984375 562.73046875 80.6484375 562.720703125 80.62890625 c 2
 474.170898438 22.9287109375 l 1
 316.690429688 276.598632812 l 1
 256.520507812 198.2890625 201.680664062 130.46875 175.05078125 97.8388671875 c 1
 210.12109375 96.228515625 245.390625 96.55859375 280.670898438 99.0986328125 c 1
 278.220703125 79.7685546875 275.470703125 60.4189453125 272.400390625 41.0791015625 c 1
 252.150390625 12.5986328125 183.940429688 -1.4609375 121.440429688 -0.3212890625 c 0
 90.25 -0.041015625 60.7099609375 3.3994140625 39.1796875 6.9892578125 c 0
 17.6298828125 10.5595703125 4 14 4 14 c 1
 20.5302734375 118.389648438 l 1
 55.4404296875 110.569335938 90.9599609375 104.958984375 126.809570312 101.37890625 c 1
 74.5400390625 141.918945312 l 1
 259.139648438 369.319335938 l 1
 78.599609375 660.12890625 l 1
 149.25 655.279296875 l 1
 190 626.779296875 255.76953125 543.029296875 322.989257812 447.989257812 c 1
 537.899414062 712.739257812 l 1
 556.979492188 645.069335938 l 1
 541.4296875 588.799804688 464.1796875 474.330078125 381.75 362.8203125 c 1
EndSplineSet
Validated: 524321
EndChar

StartChar: Y
Encoding: 89 89 57
Width: 603
GlyphClass: 1
Flags: W
LayerCount: 2
Fore
SplineSet
330.080078125 98.0703125 m 1
 366.4296875 96.25 403.013671875 96.4853515625 439.603515625 99.095703125 c 1
 437.163085938 79.765625 434.403320312 60.416015625 431.333007812 41.076171875 c 1
 411.083007812 12.595703125 342.8828125 -1.4638671875 280.3828125 -0.32421875 c 0
 249.182617188 -0.0439453125 219.65234375 3.396484375 198.122070312 6.986328125 c 0
 176.572265625 10.556640625 162.942382812 13.9970703125 162.942382812 13.9970703125 c 1
 179.461914062 118.38671875 l 1
 227.231445312 107.676757812 276.141601562 101.046875 325.51171875 98.31640625 c 1
 275.071289062 116.616210938 l 1
 244.000976562 148.06640625 250.7109375 242.896484375 258.581054688 302.346679688 c 1
 105.791015625 555.256835938 l 1
 79.701171875 555.806640625 55.1708984375 559.247070312 37.23046875 562.827148438 c 0
 18.650390625 566.517578125 7 570.047851562 7 570.047851562 c 1
 26.91015625 673.84765625 l 1
 95.9501953125 654.998046875 169.020507812 648.228515625 242.180664062 654.638671875 c 1
 241.100585938 635.369140625 239.640625 616.079101562 237.810546875 596.779296875 c 1
 231.030273438 585.139648438 217.080078125 575.669921875 199.110351562 568.759765625 c 1
 243.75 520.120117188 291.8203125 448.620117188 323.470703125 398.560546875 c 1
 383.990234375 519.150390625 525.209960938 697.330078125 525.209960938 697.330078125 c 1
 611.259765625 635.950195312 l 1
 367.870117188 318.860351562 l 1
 330.080078125 98.0703125 l 1
EndSplineSet
Validated: 524321
EndChar

StartChar: Z
Encoding: 90 90 58
Width: 510
GlyphClass: 1
Flags: W
LayerCount: 2
Fore
SplineSet
478.3203125 263.459960938 m 1
 521.629882812 212.139648438 481.366210938 39.958984375 453.306640625 -18.9013671875 c 1
 353.037109375 14.5087890625 l 1
 362.477539062 38.12890625 371.047851562 62.1591796875 378.868164062 86.4794921875 c 1
 259.1484375 87.939453125 138.948242188 79.8095703125 19.80859375 61.7900390625 c 1
 24.12890625 80.400390625 28.69921875 99.0107421875 33.3994140625 117.62109375 c 1
 0.9990234375 142.970703125 l 1
 389.489257812 615.510742188 l 1
 308.329101562 574.991210938 59.01953125 591.19140625 59.01953125 591.19140625 c 1
 59.01953125 696.891601562 l 1
 423.609375 680.51171875 l 1
 408.079101562 638.151367188 l 1
 431.369140625 666.491210938 l 1
 452.168945312 601.311523438 l 1
 431.069335938 516.771484375 262.059570312 297.481445312 160.599609375 171.181640625 c 1
 236.879882812 187.6015625 343.200195312 193.69140625 407.080078125 191.87109375 c 1
 413.690429688 222.361328125 419.16015625 253.181640625 423.259765625 284.28125 c 1
 441.66015625 277.590820312 460.030273438 270.650390625 478.3203125 263.459960938 c 1
EndSplineSet
Validated: 524321
EndChar

StartChar: bracketleft
Encoding: 91 91 59
Width: 357
GlyphClass: 1
Flags: W
LayerCount: 2
Fore
SplineSet
154.6796875 -40.759765625 m 1
 204.939453125 -45.6796875 255.890625 -46.55078125 306.860351562 -42.900390625 c 1
 304.640625 -62.220703125 302.081054688 -81.55078125 299.19140625 -100.890625 c 1
 289.03125 -114.950195312 267.021484375 -125.810546875 239.411132812 -132.750976562 c 0
 211.831054688 -139.750976562 178.760742188 -142.630859375 147.331054688 -142.30078125 c 0
 115.87109375 -142.000976562 86.0908203125 -138.55078125 64.4111328125 -134.9609375 c 0
 42.7109375 -131.37109375 29.0009765625 -127.930664062 29.0009765625 -127.930664062 c 1
 47.0009765625 -23.650390625 l 1
 60.140625 -26.5908203125 73.400390625 -29.12109375 86.720703125 -31.470703125 c 1
 52.5107421875 104.149414062 58.890625 481.168945312 62.87109375 628.098632812 c 1
 57.5908203125 627.018554688 52.2705078125 626.028320312 47.0009765625 624.848632812 c 1
 29.0009765625 729.12890625 l 1
 29.0009765625 729.12890625 42.7109375 732.579101562 64.4111328125 736.159179688 c 0
 86.0908203125 739.749023438 115.87109375 743.19921875 147.331054688 743.499023438 c 0
 178.760742188 743.838867188 211.831054688 740.958984375 239.411132812 733.94921875 c 0
 267.021484375 727.01953125 289.021484375 716.149414062 299.19140625 702.08984375 c 1
 302.081054688 682.759765625 304.640625 663.419921875 306.860351562 644.099609375 c 1
 262.430664062 647.26953125 218.020507812 647.099609375 174.080078125 643.75 c 1
 154.6796875 -40.759765625 l 1
EndSplineSet
Validated: 524321
EndChar

StartChar: backslash
Encoding: 92 92 60
Width: 449
GlyphClass: 1
Flags: W
LayerCount: 2
Fore
SplineSet
143.45703125 697.42578125 m 1
 143.45703125 697.42578125 420.309570312 199.612304688 432.1171875 64.3203125 c 1
 401.259765625 -0.0048828125 l 1
 50 646.75390625 l 1
 143.45703125 697.42578125 l 1
EndSplineSet
Validated: 524289
EndChar

StartChar: bracketright
Encoding: 93 93 61
Width: 357
GlyphClass: 1
Flags: W
HStem: -132.751 89.8506<46.4142 178.825> 643.75 99.749<61.962 161.781>
VStem: 161.781 111.209<396.767 628.099>
LayerCount: 2
Fore
SplineSet
181.181640625 -40.759765625 m 1
 130.921875 -45.6796875 79.970703125 -46.55078125 29.0009765625 -42.900390625 c 1
 31.220703125 -62.220703125 33.7802734375 -81.55078125 36.669921875 -100.890625 c 1
 46.830078125 -114.950195312 68.83984375 -125.810546875 96.4501953125 -132.750976562 c 0
 124.030273438 -139.750976562 157.100585938 -142.630859375 188.530273438 -142.30078125 c 0
 219.990234375 -142.000976562 249.770507812 -138.55078125 271.450195312 -134.9609375 c 0
 293.150390625 -131.37109375 306.860351562 -127.930664062 306.860351562 -127.930664062 c 1
 288.860351562 -23.650390625 l 1
 275.720703125 -26.5908203125 262.4609375 -29.12109375 249.140625 -31.470703125 c 1
 283.350585938 104.149414062 276.970703125 481.168945312 272.990234375 628.098632812 c 1
 278.270507812 627.018554688 283.590820312 626.028320312 288.860351562 624.848632812 c 1
 306.860351562 729.12890625 l 1
 306.860351562 729.12890625 293.150390625 732.579101562 271.450195312 736.159179688 c 0
 249.770507812 739.749023438 219.990234375 743.19921875 188.530273438 743.499023438 c 0
 157.100585938 743.838867188 124.030273438 740.958984375 96.4501953125 733.94921875 c 0
 68.83984375 727.01953125 46.83984375 716.149414062 36.669921875 702.08984375 c 1
 33.7802734375 682.759765625 31.220703125 663.419921875 29.0009765625 644.099609375 c 1
 73.4306640625 647.26953125 117.840820312 647.099609375 161.78125 643.75 c 1
 181.181640625 -40.759765625 l 1
EndSplineSet
Validated: 524329
EndChar

StartChar: asciicircum
Encoding: 94 94 62
Width: 319
GlyphClass: 1
Flags: W
LayerCount: 2
Fore
SplineSet
187.360351562 705.58984375 m 1
 227.890625 656.759765625 307.08984375 514.869140625 289.229492188 449.939453125 c 1
 277.19921875 436.4296875 254.94921875 419.620117188 241.87890625 410.08984375 c 1
 218.208984375 463.25 203.338867188 511.240234375 173.409179688 558.610351562 c 1
 146.029296875 512.5703125 127.979492188 468.520507812 106.83984375 418.380859375 c 1
 24 471.970703125 l 1
 42.1904296875 517.690429688 81.310546875 590.740234375 121.80078125 634.16015625 c 0
 121.140625 635.040039062 120.520507812 635.950195312 119.850585938 636.830078125 c 2
 187.360351562 705.58984375 l 1
EndSplineSet
Validated: 524321
EndChar

StartChar: underscore
Encoding: 95 95 63
Width: 397
GlyphClass: 1
Flags: W
HStem: -4 1<31 31.7957> -3 11<47.0843 96 318 326.996> -3 3<317.437 318> 8 47<47.1425 96 301 352.894> 58 3<79 79.5631>
LayerCount: 2
Fore
SplineSet
366 61 m 0x18
 367 61 367 61 367 61 c 1
 348 56 324 51 301 49 c 1
 301 49 345 50 364 56 c 1
 364 56 362 52 352 49 c 0
 341 46 351 48 364 50 c 1
 359 37 346 15 329 3 c 1
 318 3 302 4 285 8 c 1
 285 8 308 0 327 2 c 1
 327 2 321 -1 303 0 c 0x38
 293 0 306 -2 318 -3 c 1x48
 316 -4 44 -1 31 -4 c 1x88
 31 -3 31 -3 30 -3 c 1x28
 49 2 73 7 96 8 c 1x48
 96 8 52 8 33 2 c 1
 33 2 35 5 45 8 c 0
 56 11 46 10 33 8 c 1
 38 21 51 43 68 55 c 1
 79 55 95 54 112 50 c 1
 112 50 90 58 70 56 c 1
 70 56 77 59 94 58 c 0
 104 58 91 59 79 61 c 1
 81 62 354 59 366 61 c 0x18
EndSplineSet
Validated: 37
EndChar

StartChar: grave
Encoding: 96 96 64
Width: 160
GlyphClass: 1
Flags: W
LayerCount: 2
Fore
SplineSet
74.0703125 703.51953125 m 1
 137.629882812 586.510742188 l 1
 105.700195312 575.030273438 l 1
 68.400390625 577.830078125 22 670.169921875 22 670.169921875 c 1
 74.0703125 703.51953125 l 1
EndSplineSet
Validated: 524289
EndChar

StartChar: a
Encoding: 97 97 65
Width: 434
GlyphClass: 1
Flags: W
LayerCount: 2
Fore
SplineSet
383.034179688 475.58984375 m 1
 428.583984375 388.599609375 385.424804688 7.1484375 385.434570312 7.158203125 c 1
 279.96484375 14.0185546875 l 1
 280.995117188 24.5888671875 l 1
 85.634765625 -14.2509765625 -53.78515625 138.668945312 50.6845703125 278.899414062 c 1
 35.5849609375 301.109375 l 1
 120.084960938 354.109375 226.724609375 362.859375 310.934570312 329.33984375 c 1
 321.744140625 439.290039062 l 1
 245.173828125 440.23046875 150.68359375 424.770507812 93.7333984375 390.850585938 c 1
 36.923828125 479.98046875 l 1
 148.6640625 544.150390625 287.013671875 550.490234375 393.75390625 487.299804688 c 1
 389.723632812 483.6796875 385.954101562 479.870117188 382.064453125 476.139648438 c 1
 383.034179688 475.58984375 l 1
292.834960938 145.119140625 m 1
 303.635742188 254.969726562 l 1
 231.416015625 255.9296875 147.416015625 246.979492188 95.015625 213.689453125 c 1
 89.845703125 221.2890625 l 1
 88.1953125 136.71875 210.03515625 87.1689453125 292.834960938 145.119140625 c 1
EndSplineSet
Validated: 524321
EndChar

StartChar: b
Encoding: 98 98 66
Width: 467
GlyphClass: 1
Flags: W
LayerCount: 2
Fore
SplineSet
406.28125 371.879882812 m 0
 540.1015625 186.719726562 338.942382812 -37.5380859375 116.372070312 7.681640625 c 0
 89.8017578125 12.8017578125 32.4521484375 34.501953125 32.4521484375 34.501953125 c 1
 68.1123046875 116.1015625 l 1
 47.72265625 130.551757812 l 1
 3.9228515625 236.251953125 55.1025390625 701.891601562 55.1025390625 701.891601562 c 1
 160.522460938 694.471679688 l 1
 139.682617188 481.051757812 l 1
 226.142578125 537.651367188 360.9921875 504.87109375 433.381835938 455.130859375 c 0
 439.791992188 450.80078125 443.421875 448.360351562 443.421875 448.360351562 c 1
 397.69140625 373.73046875 l 1
 400.571289062 373.120117188 403.431640625 372.540039062 406.28125 371.879882812 c 0
362.952148438 254.122070312 m 0
 367.83203125 302.091796875 356.302734375 347.022460938 341.772460938 379.982421875 c 1
 345.372070312 380.15234375 349.091796875 380.001953125 352.782226562 379.881835938 c 1
 283.72265625 418.412109375 201.47265625 423.952148438 132.282226562 405.211914062 c 1
 104.40234375 119.791992188 l 1
 114.052734375 116.622070312 123.862304688 113.952148438 133.83203125 111.921875 c 0
 237.76171875 91.3818359375 351.041992188 149.112304688 362.952148438 254.122070312 c 0
EndSplineSet
Validated: 524321
EndChar

StartChar: c
Encoding: 99 99 67
Width: 420
GlyphClass: 1
Flags: W
LayerCount: 2
Fore
SplineSet
317.22265625 399.889648438 m 0
 153.79296875 431.08984375 58.033203125 276.048828125 124.703125 130.829101562 c 1
 122.653320312 130.758789062 120.533203125 130.938476562 118.453125 130.958007812 c 1
 194.493164062 91.9775390625 281.342773438 86.2373046875 358.993164062 109.497070312 c 1
 359.823242188 89.876953125 359.842773438 69.9873046875 358.942382812 50.0576171875 c 1
 284.072265625 -35.5927734375 102.8125 4.697265625 25.572265625 62.77734375 c 1
 69.6123046875 137.34765625 l 1
 66.6123046875 137.998046875 63.6123046875 138.608398438 60.642578125 139.298828125 c 0
 -67.6171875 315.989257812 113.762695312 547.869140625 334.922851562 504.159179688 c 0
 373.04296875 497.508789062 417.403320312 476.638671875 417.403320312 476.638671875 c 1
 373.11328125 380.668945312 l 1
 355.212890625 389.239257812 336.512695312 395.849609375 317.22265625 399.889648438 c 0
EndSplineSet
Validated: 524321
EndChar

StartChar: d
Encoding: 100 100 68
Width: 451
GlyphClass: 1
Flags: W
LayerCount: 2
Fore
SplineSet
447.4765625 694.58984375 m 1
 391.74609375 110.258789062 l 1
 398.986328125 111.739257812 406.216796875 113.37890625 413.426757812 115.19921875 c 1
 412.336914062 95.2490234375 410.52734375 75.109375 407.907226562 54.9990234375 c 1
 318.287109375 -29.7314453125 119.6875 8.62890625 27.3271484375 66.3193359375 c 1
 65.796875 142.458984375 l 1
 64.2265625 142.779296875 62.63671875 143.01953125 61.06640625 143.349609375 c 0
 -69.423828125 315.129882812 111.045898438 543.149414062 325.965820312 513.139648438 c 1
 332.99609375 617.830078125 342.026367188 701.780273438 342.026367188 701.780273438 c 1
 447.4765625 694.58984375 l 1
238.255859375 104.728515625 m 0
 281.565429688 98.708984375 326.086914062 99.4287109375 370.186523438 106.369140625 c 1
 335.956054688 130.508789062 l 1
 316.666015625 176.758789062 315.435546875 292.098632812 320.155273438 407.12890625 c 1
 174.205078125 431.938476562 63.884765625 300.498046875 114.205078125 165.6484375 c 0
 122.325195312 141.62890625 120.565429688 148.188476562 125.075195312 137.168945312 c 1
 124.365234375 137.069335938 123.60546875 137.079101562 122.885742188 137.008789062 c 1
 159.6953125 121.249023438 198.395507812 110.138671875 238.255859375 104.728515625 c 0
EndSplineSet
Validated: 524321
EndChar

StartChar: e
Encoding: 101 101 69
Width: 447
GlyphClass: 1
Flags: W
LayerCount: 2
Fore
SplineSet
345.950195312 391.5 m 1
 365.690429688 387.440429688 385.379882812 381.197265625 404.629882812 372.807617188 c 1
 475.209960938 205.52734375 256.0703125 103.737304688 115.080078125 170.787109375 c 1
 120.099609375 151.237304688 124.94921875 140.967773438 128.76953125 131.587890625 c 1
 120.939453125 131.208007812 112.83984375 131.727539062 104.66015625 132.59765625 c 1
 181.620117188 92.2578125 269.490234375 85.84765625 348.41015625 109.517578125 c 1
 349.240234375 89.8876953125 349.259765625 69.998046875 348.370117188 50.068359375 c 1
 273.490234375 -35.5712890625 92.240234375 4.708984375 15 62.7890625 c 1
 61.9404296875 142.258789062 l 1
 -66.9091796875 328.958984375 133.020507812 548.388671875 354.180664062 503.87890625 c 0
 380.750976562 498.749023438 401.87109375 491.979492188 416.090820312 486.349609375 c 0
 430.170898438 480.399414062 438.100585938 477.059570312 438.100585938 477.059570312 c 1
 395.770507812 380.209960938 l 1
 376.810546875 388.759765625 357.010742188 395.129882812 336.720703125 399.639648438 c 0
 193.490234375 431.479492188 124.200195312 316.809570312 114.98046875 289.649414062 c 1
 151.780273438 265.099609375 196.330078125 253.129882812 229.209960938 252.889648438 c 0
 317.870117188 253.19921875 355.440429688 314.389648438 345.950195312 391.5 c 1
EndSplineSet
Validated: 524321
EndChar

StartChar: f
Encoding: 102 102 70
Width: 423
GlyphClass: 1
Flags: W
LayerCount: 2
Fore
SplineSet
380.741210938 387.559570312 m 1
 265.69140625 440.809570312 156.4609375 441.677734375 126.220703125 287.517578125 c 1
 196.12109375 275.737304688 267.911132812 272.077148438 339.69140625 277.227539062 c 1
 337.26171875 257.887695312 334.4921875 238.547851562 331.421875 219.198242188 c 1
 302.872070312 177.408203125 172.671875 172.228515625 116.65234375 182.37890625 c 1
 119.692382812 71.298828125 151.442382812 -34.8212890625 196.482421875 -131.791015625 c 1
 172.622070312 -125.510742188 148.372070312 -118.420898438 124.372070312 -110.201171875 c 1
 13.412109375 21.478515625 -44.9580078125 376.088867188 142.322265625 496.44921875 c 0
 196.08203125 529.279296875 257.51171875 528.918945312 306.131835938 521.609375 c 0
 344.641601562 515.219726562 373.411132812 504.649414062 393.141601562 497.208984375 c 0
 412.521484375 489.19921875 423.181640625 484.359375 423.181640625 484.359375 c 1
 380.741210938 387.559570312 l 1
EndSplineSet
Validated: 524321
EndChar

StartChar: g
Encoding: 103 103 71
Width: 464
GlyphClass: 1
Flags: W
LayerCount: 2
Fore
SplineSet
446.01953125 192.169921875 m 1
 414.778320312 193.020507812 l 1
 421.528320312 115.040039062 396.478515625 1.41015625 396.478515625 1.41015625 c 1
 291.638671875 14.8701171875 l 1
 299.638671875 56.5703125 l 1
 263.37890625 30.58984375 233.87890625 16.33984375 170.319335938 17.259765625 c 0
 124.149414062 17.9296875 45.58984375 55.6494140625 18 82.0390625 c 1
 70.7802734375 144.729492188 l 1
 67.669921875 145.439453125 64.5400390625 146.129882812 61.4501953125 146.879882812 c 0
 -71.169921875 332.689453125 122.5 566.369140625 350.4296875 521.149414062 c 0
 388.979492188 516.119140625 435.739257812 493.239257812 435.739257812 493.239257812 c 1
 392.309570312 396.87890625 l 1
 373.229492188 405.768554688 353.319335938 412.638671875 332.799804688 416.8984375 c 0
 163.319335938 447.888671875 52.869140625 297.548828125 126.099609375 137.579101562 c 1
 124.119140625 137.51953125 122.048828125 137.719726562 120.029296875 137.759765625 c 1
 147.719726562 122.859375 157.669921875 122.069335938 176.299804688 119.69921875 c 0
 236.069335938 118.71875 298.509765625 161.829101562 325.509765625 191.369140625 c 1
 326.279296875 195.369140625 l 1
 170.479492188 199.5390625 l 1
 184.26953125 256.569335938 l 1
 229.139648438 309.1796875 442.559570312 297.799804688 442.559570312 297.799804688 c 1
 446.01953125 192.169921875 l 1
EndSplineSet
Validated: 524321
EndChar

StartChar: h
Encoding: 104 104 72
Width: 457
GlyphClass: 1
Flags: W
LayerCount: 2
Fore
SplineSet
435.637695312 448.080078125 m 1
 377.66015625 368.091796875 l 1
 432.969726562 365.651367188 l 1
 400.6796875 5.9111328125 l 1
 345.099609375 28.8916015625 l 1
 296.729492188 92.1513671875 327.379882812 370.301757812 327.379882812 370.301757812 c 1
 365.849609375 368.6015625 l 1
 300.399414062 420.37109375 210.729492188 434.510742188 136.229492188 418.840820312 c 1
 105.609375 2.470703125 l 1
 51.109375 44.740234375 l 1
 5.9189453125 164.720703125 51.0185546875 700.850585938 51.0185546875 700.850585938 c 1
 156.588867188 695.590820312 l 1
 141.088867188 484.810546875 l 1
 218.1484375 548.280273438 361.758789062 508.530273438 426.568359375 455.280273438 c 0
 432.458007812 450.770507812 435.637695312 448.080078125 435.637695312 448.080078125 c 1
EndSplineSet
Validated: 524321
EndChar

StartChar: i
Encoding: 105 105 73
Width: 168
GlyphClass: 1
Flags: W
LayerCount: 2
Fore
SplineSet
51.498046875 35.0400390625 m 1
 4.677734375 116.620117188 42.287109375 476.139648438 42.287109375 476.139648438 c 1
 147.827148438 470.5 l 1
 106.557617188 5.5400390625 l 1
 51.498046875 35.0400390625 l 1
162.916992188 619.66015625 m 1
 183.666992188 568.48046875 102.416992188 514.75 102.416992188 514.75 c 1
 28.556640625 590.33984375 l 1
 128.426757812 665.009765625 l 1
 162.916992188 619.66015625 l 1
EndSplineSet
Validated: 524321
EndChar

StartChar: j
Encoding: 106 106 74
Width: 330
GlyphClass: 1
Flags: W
LayerCount: 2
Fore
SplineSet
272.8203125 416.490234375 m 1
 311.8203125 297.440429688 349.790039062 -224.439453125 90.8701171875 -93.6298828125 c 0
 58.6904296875 -77.3701171875 14.98046875 -33.0498046875 10 -27.9501953125 c 1
 84.8798828125 46.6494140625 l 1
 104.849609375 18.509765625 150.989257812 -13.419921875 159.559570312 -7.3896484375 c 0
 232.029296875 43.650390625 202.418945312 266.620117188 205.869140625 391.209960938 c 1
 144.649414062 379.259765625 60.5791015625 388.129882812 14.5087890625 399.66015625 c 1
 31.0390625 504.049804688 l 1
 86.529296875 491.620117188 143.529296875 484.600585938 201.0390625 482.950195312 c 1
 201.029296875 483.169921875 201.01953125 483.370117188 201.009765625 483.58984375 c 1
 202.109375 482.9296875 l 1
 231.719726562 482.120117188 261.450195312 482.639648438 291.180664062 484.76953125 c 1
 288.740234375 465.439453125 285.98046875 446.08984375 282.91015625 426.75 c 0
 280.310546875 423.08984375 276.890625 419.669921875 272.8203125 416.490234375 c 1
229.470703125 619.66015625 m 1
 250.220703125 568.48046875 168.970703125 514.75 168.970703125 514.75 c 1
 95.1103515625 590.33984375 l 1
 194.990234375 665.009765625 l 1
 229.470703125 619.66015625 l 1
EndSplineSet
Validated: 524321
EndChar

StartChar: k
Encoding: 107 107 75
Width: 449
GlyphClass: 1
Flags: W
LayerCount: 2
Fore
SplineSet
196.98828125 325.780273438 m 1
 304.16796875 239.510742188 448.098632812 69.599609375 448.108398438 69.58984375 c 1
 370.978515625 -2.66015625 l 1
 125.46875 278.259765625 l 1
 105.608398438 8.25 l 1
 51.1083984375 50.51953125 l 1
 5.91796875 170.5 51.017578125 706.629882812 51.017578125 706.629882812 c 1
 156.587890625 701.360351562 l 1
 135.427734375 413.75 l 1
 226.977539062 454.25 314.897460938 504.23046875 397.217773438 562.900390625 c 1
 403.797851562 544.110351562 410.16796875 525.180664062 416.307617188 506.130859375 c 1
 406.127929688 447.900390625 262.038085938 353.5703125 196.98828125 325.780273438 c 1
EndSplineSet
Validated: 524321
EndChar

StartChar: l
Encoding: 108 108 76
Width: 302
GlyphClass: 1
Flags: W
LayerCount: 2
Fore
SplineSet
120.360351562 101.389648438 m 1
 179.720703125 93.669921875 240.190429688 91.7109375 300.66015625 96.05078125 c 1
 298.209960938 76.7109375 295.459960938 57.37109375 292.389648438 38.021484375 c 1
 252.870117188 -14.8583984375 84.0400390625 -7.1484375 24 10.94140625 c 1
 40.5302734375 115.331054688 l 1
 41.9501953125 115.010742188 43.390625 114.770507812 44.8203125 114.450195312 c 1
 24.8203125 300.709960938 58.48046875 700.849609375 58.48046875 700.849609375 c 1
 164.05078125 695.58984375 l 1
 120.360351562 101.389648438 l 1
EndSplineSet
Validated: 524321
EndChar

StartChar: m
Encoding: 109 109 77
Width: 694
GlyphClass: 1
Flags: W
LayerCount: 2
Fore
SplineSet
681.909179688 448.379882812 m 1
 624.19140625 367.081054688 l 1
 659.791015625 365.250976562 l 1
 625.000976562 5.640625 l 1
 569.571289062 29.0107421875 l 1
 521.641601562 92.630859375 554.231445312 370.650390625 554.231445312 370.650390625 c 1
 613.331054688 367.620117188 l 1
 546.9609375 417.799804688 459.37109375 421.689453125 389.640625 401.139648438 c 1
 365.510742188 367.139648438 l 1
 402.541015625 365.25 l 1
 367.750976562 5.6396484375 l 1
 312.331054688 29.009765625 l 1
 264.401367188 92.6298828125 296.981445312 370.649414062 296.981445312 370.649414062 c 1
 354.491210938 367.708984375 l 1
 320.69140625 403.529296875 204.021484375 418.349609375 146.611328125 405.219726562 c 1
 101.12109375 4.5 l 1
 47.1015625 37.8798828125 l 1
 3.1015625 127.809570312 53.1611328125 518.669921875 53.1611328125 518.669921875 c 1
 158.510742188 510.139648438 l 1
 157.400390625 500.319335938 l 1
 189.770507812 510.139648438 227.80078125 514.629882812 264.510742188 511.080078125 c 0
 305.530273438 507.889648438 343.33984375 494.979492188 370.870117188 481.329101562 c 1
 417.990234375 507.319335938 471.060546875 514.659179688 523.240234375 511.079101562 c 0
 582.879882812 505.829101562 636.58984375 481.51953125 670.559570312 456.899414062 c 0
 677.94921875 451.599609375 681.909179688 448.379882812 681.909179688 448.379882812 c 1
EndSplineSet
Validated: 524321
EndChar

StartChar: n
Encoding: 110 110 78
Width: 454
GlyphClass: 1
Flags: W
LayerCount: 2
Fore
SplineSet
434.168945312 446.1796875 m 1
 370.139648438 368.239257812 l 1
 429.059570312 365.639648438 l 1
 396.759765625 5.8994140625 l 1
 341.189453125 28.8798828125 l 1
 292.819335938 92.1396484375 323.469726562 370.290039062 323.469726562 370.290039062 c 1
 362.4296875 368.559570312 l 1
 302 424.399414062 210.08984375 422.58984375 144.599609375 387.530273438 c 1
 101.119140625 4.490234375 l 1
 47.099609375 37.8701171875 l 1
 3.099609375 127.799804688 53.1591796875 518.66015625 53.1591796875 518.66015625 c 1
 158.508789062 510.129882812 l 1
 155.19921875 481 l 1
 195.958984375 507.059570312 245.478515625 515.939453125 292.80859375 510.849609375 c 0
 378.188476562 501.669921875 434.168945312 446.1796875 434.168945312 446.1796875 c 1
EndSplineSet
Validated: 524321
EndChar

StartChar: o
Encoding: 111 111 79
Width: 500
GlyphClass: 1
Flags: W
LayerCount: 2
Fore
SplineSet
369.282226562 519.259765625 m 0
 639.572265625 489.799804688 391.881835938 -102.939453125 120.401367188 19.0703125 c 0
 -71.6181640625 105.379882812 29.51171875 446.41015625 196.421875 541.799804688 c 1
 269.731445312 465.66015625 l 1
 237.361328125 435.150390625 208.301757812 401.520507812 183.662109375 365.790039062 c 0
 101.3125 246.4296875 122.032226562 121.299804688 183.711914062 112.950195312 c 0
 330.461914062 93.080078125 442.15234375 385.959960938 374.22265625 429.389648438 c 0
 340.802734375 450.759765625 286.772460938 366.059570312 277.522460938 326.379882812 c 1
 263.041992188 351.860351562 245.221679688 381.209960938 248.1015625 414.979492188 c 0
 249.571289062 432.229492188 261.741210938 452.08984375 279.081054688 473.240234375 c 0
 303.481445312 501.860351562 335.671875 522.919921875 369.282226562 519.259765625 c 0
EndSplineSet
Validated: 524321
EndChar

StartChar: p
Encoding: 112 112 80
Width: 457
GlyphClass: 1
Flags: W
LayerCount: 2
Fore
SplineSet
400.299804688 376.190429688 m 0
 536.290039062 203.180664062 307.310546875 27.3505859375 119.690429688 62.6806640625 c 1
 100.709960938 -145.299804688 l 1
 46.76953125 -104.189453125 l 1
 33.3994140625 -69.0693359375 29.01953125 2.9609375 29.359375 85.970703125 c 0
 29.119140625 86.05078125 28.9990234375 86.1005859375 28.9990234375 86.1005859375 c 1
 29.359375 87.0908203125 l 1
 30.2197265625 274.791015625 55.1396484375 517.911132812 55.1396484375 517.911132812 c 1
 160.599609375 510.920898438 l 1
 159.149414062 495.020507812 l 1
 244.879882812 531.360351562 361.290039062 499.98046875 426.919921875 455.130859375 c 0
 433.330078125 450.80078125 436.959960938 448.360351562 436.959960938 448.360351562 c 1
 393.280273438 377.0703125 l 1
 395.629882812 376.770507812 397.959960938 376.55078125 400.299804688 376.190429688 c 0
355.28125 271.130859375 m 0
 363.971679688 308.380859375 349.361328125 355.491210938 336.801757812 377.380859375 c 1
 340.401367188 378.23046875 344.201171875 378.670898438 348.061523438 378.9609375 c 1
 286.19140625 413.53125 213.671875 422.7109375 151.481445312 411.03125 c 1
 129.311523438 168.041015625 l 1
 217.661132812 154.111328125 331.87109375 183.37109375 355.28125 271.130859375 c 0
EndSplineSet
Validated: 524321
EndChar

StartChar: q
Encoding: 113 113 81
Width: 508
GlyphClass: 1
Flags: W
LayerCount: 2
Fore
SplineSet
396.791015625 125.209960938 m 1
 425.731445312 92.75 456.93359375 61.970703125 490.233398438 33.310546875 c 1
 474.473632812 21.640625 458.50390625 10.1806640625 442.32421875 -1.0595703125 c 1
 414.09375 -4.7294921875 369.68359375 20.1708984375 329.313476562 54.55078125 c 1
 268.403320312 6.23046875 195.313476562 -14.58984375 120.403320312 19.080078125 c 0
 -71.6162109375 105.389648438 29.513671875 446.419921875 196.43359375 541.809570312 c 1
 269.733398438 465.669921875 l 1
 237.373046875 435.16015625 208.313476562 401.530273438 183.663085938 365.799804688 c 0
 101.323242188 246.450195312 122.04296875 121.310546875 183.72265625 112.9609375 c 0
 210.022460938 109.401367188 235.142578125 115.991210938 258.352539062 129.271484375 c 1
 251.852539062 137.491210938 245.8125 145.420898438 240.83203125 152.401367188 c 0
 227.141601562 171.561523438 219.401367188 184.6015625 219.401367188 184.6015625 c 1
 305.361328125 246.1015625 l 1
 314.431640625 231.701171875 324.08203125 217.630859375 334.01171875 203.73046875 c 1
 391.131835938 287.91015625 414.921875 403.360351562 374.231445312 429.379882812 c 0
 340.821289062 450.75 286.78125 366.049804688 277.53125 326.370117188 c 1
 263.071289062 351.850585938 245.241210938 381.200195312 248.130859375 414.959960938 c 0
 249.600585938 432.219726562 261.770507812 452.080078125 279.100585938 473.23046875 c 0
 303.520507812 501.850585938 335.7109375 522.900390625 369.321289062 519.25 c 0
 534.741210938 501.219726562 506.111328125 272.229492188 396.791015625 125.209960938 c 1
EndSplineSet
Validated: 524321
EndChar

StartChar: r
Encoding: 114 114 82
Width: 394
GlyphClass: 1
Flags: W
LayerCount: 2
Fore
SplineSet
369.147460938 511.940429688 m 0
 381.647460938 512.200195312 388.646484375 511.809570312 388.646484375 511.790039062 c 2
 388.626953125 406.080078125 l 1
 235.166992188 418.719726562 125.666992188 270.540039062 134.216796875 134.08984375 c 1
 128.346679688 135.849609375 122.497070312 138.049804688 116.657226562 140.419921875 c 1
 101.607421875 4.580078125 l 1
 47.4970703125 37.8203125 l 1
 3.2568359375 127.600585938 52.2666015625 518.510742188 52.2666015625 518.510742188 c 1
 157.626953125 510.270507812 l 1
 147.487304688 418.7109375 l 1
 148.637695312 420.010742188 l 1
 208.047851562 480.73046875 297.477539062 511.3203125 369.147460938 511.940429688 c 0
EndSplineSet
Validated: 524321
EndChar

StartChar: s
Encoding: 115 115 83
Width: 434
GlyphClass: 1
Flags: W
LayerCount: 2
Fore
SplineSet
379.217773438 216.024414062 m 0
 398.758789062 190.376953125 414.259765625 161.444335938 424.986328125 130.915039062 c 1
 413.659179688 130.423828125 402.452148438 129.353515625 391.34375 127.944335938 c 1
 371.1796875 58.310546875 260.879882812 6.4482421875 192.994140625 7.1474609375 c 1
 130.23046875 3.455078125 57.3740234375 24.896484375 15.16796875 48.970703125 c 1
 59.296875 150.127929688 l 1
 138.947265625 104.852539062 249.716796875 101.783203125 320.749023438 152.061523438 c 1
 267.314453125 196.517578125 187.259765625 230.793945312 130.537109375 238.30859375 c 1
 131.978515625 258.013671875 l 1
 73.6279296875 296.3203125 30.7666015625 356.1015625 10.001953125 414.899414062 c 1
 21.3291015625 415.390625 32.5361328125 416.4609375 43.64453125 417.870117188 c 1
 63.796875 487.50390625 174.107421875 539.366210938 241.993164062 538.666992188 c 1
 304.756835938 542.359375 377.61328125 520.90625 419.819335938 496.842773438 c 1
 375.690429688 395.685546875 l 1
 296.05078125 440.9609375 185.270507812 444.01953125 114.23828125 393.741210938 c 1
 167.672851562 349.28515625 247.73828125 315.008789062 304.450195312 307.494140625 c 1
 303.008789062 287.7890625 l 1
 333.41796875 268.083984375 361.610351562 238.72265625 379.217773438 216.024414062 c 0
EndSplineSet
Validated: 524321
EndChar

StartChar: t
Encoding: 116 116 84
Width: 303
GlyphClass: 1
Flags: W
LayerCount: 2
Fore
SplineSet
167.870117188 100.950195312 m 1
 208.889648438 98.23046875 250.271484375 98.2197265625 291.661132812 101.200195312 c 1
 289.220703125 81.8701171875 286.4609375 62.5205078125 283.390625 43.1806640625 c 1
 243.87109375 -9.708984375 75.041015625 -1.9990234375 15.0009765625 16.0908203125 c 1
 31.53125 120.48046875 l 1
 51.8115234375 115.940429688 72.3115234375 112.150390625 92.9619140625 109.020507812 c 1
 84.8623046875 178.940429688 84.822265625 281.30078125 87.8818359375 381.331054688 c 1
 58.181640625 384.090820312 24.9912109375 390.78125 15.0009765625 393.250976562 c 1
 31.53125 497.640625 l 1
 51.541015625 493.150390625 71.7607421875 489.419921875 92.12109375 486.309570312 c 1
 98.0009765625 605.549804688 106.020507812 700.849609375 106.020507812 700.849609375 c 1
 211.590820312 695.58984375 l 1
 195.491210938 476.649414062 l 1
 227.451171875 475.51953125 259.55078125 476.049804688 291.670898438 478.349609375 c 1
 289.23046875 459.01953125 286.470703125 439.669921875 283.400390625 420.330078125 c 1
 269.190429688 400.360351562 231.390625 387.5 188.530273438 381.990234375 c 1
 167.870117188 100.950195312 l 1
EndSplineSet
Validated: 524321
EndChar

StartChar: u
Encoding: 117 117 85
Width: 440
GlyphClass: 1
Flags: W
LayerCount: 2
Fore
SplineSet
314.849609375 510.990234375 m 1
 420.370117188 505.051757812 l 1
 375.850585938 5.44140625 l 1
 321.000976562 37.0712890625 l 1
 316.340820312 45.9208984375 312.581054688 57.9404296875 309.53125 72.1806640625 c 1
 301.840820312 65.55078125 293.020507812 59.7509765625 283.950195312 53.6005859375 c 0
 203.540039062 1.3310546875 89.4697265625 6.1005859375 16 33.900390625 c 1
 46.76953125 132.520507812 l 1
 23.5 243.830078125 28.2998046875 429.060546875 107.01953125 508.670898438 c 1
 127.709960938 511.250976562 148.33984375 513.161132812 168.870117188 514.411132812 c 1
 126.379882812 385.30078125 124.540039062 246.0703125 158.799804688 117.180664062 c 1
 215.26953125 119.260742188 264.6796875 142.430664062 299.459960938 172.940429688 c 1
 294.75 317.150390625 314.849609375 510.990234375 314.849609375 510.990234375 c 1
EndSplineSet
Validated: 524321
EndChar

StartChar: v
Encoding: 118 118 86
Width: 416
GlyphClass: 1
Flags: W
LayerCount: 2
Fore
SplineSet
409.1796875 467.709960938 m 1
 418.120117188 376.809570312 268.490234375 78.609375 240.040039062 22.859375 c 1
 242.469726562 14.0693359375 l 1
 179.719726562 25.4296875 l 1
 173.66015625 30.9892578125 155.469726562 59.94921875 148.069335938 72.2392578125 c 0
 74.599609375 194.109375 3 482.918945312 3 482.918945312 c 1
 103.919921875 514.329101562 l 1
 197.959960938 174.7890625 l 1
 370.129882812 517.979492188 l 1
 409.1796875 467.709960938 l 1
EndSplineSet
Validated: 524321
EndChar

StartChar: w
Encoding: 119 119 87
Width: 621
GlyphClass: 1
Flags: W
LayerCount: 2
Fore
SplineSet
606.102539062 510.900390625 m 1
 617.462890625 348.860351562 570.401367188 179.350585938 476.651367188 52.630859375 c 1
 479.3515625 49.140625 481.94140625 45.560546875 484.731445312 42.130859375 c 1
 478.331054688 40.48046875 471.821289062 39.060546875 465.340820312 37.580078125 c 1
 453.291015625 21.9404296875 440.731445312 6.73046875 427.391601562 -7.7197265625 c 1
 422.122070312 6.890625 416.322265625 21.16015625 410.291992188 35.240234375 c 1
 374.431640625 54.23046875 319.321289062 131.180664062 302.161132812 171.831054688 c 0
 301.451171875 173.401367188 300.720703125 175.01171875 300.010742188 176.591796875 c 1
 275.310546875 137.251953125 253.130859375 91.2822265625 240.380859375 59.0419921875 c 1
 244.661132812 53.3623046875 248.911132812 47.662109375 253.411132812 42.1318359375 c 1
 246.361328125 40.322265625 239.181640625 38.72265625 232.03125 37.1123046875 c 1
 225.920898438 20.3818359375 222.560546875 9.7314453125 222.560546875 9.7314453125 c 1
 120.110351562 35.7509765625 l 1
 124.140625 49.111328125 128.670898438 62.3310546875 133.571289062 75.4111328125 c 1
 106.401367188 105.701171875 84.69140625 143.651367188 70.8515625 171.831054688 c 0
 67.76171875 178.69140625 64.6416015625 185.6015625 61.51171875 192.551757812 c 0
 17.1416015625 294.01171875 7.271484375 418.681640625 20.341796875 510.591796875 c 1
 125.58203125 500.811523438 l 1
 110.631835938 388.161132812 129.412109375 263.271484375 176.211914062 165.78125 c 1
 203.952148438 212.491210938 230.912109375 245.201171875 264.421875 277.231445312 c 1
 243.471679688 363.311523438 242.952148438 443.331054688 251.662109375 510.611328125 c 1
 356.90234375 500.821289062 l 1
 339.90234375 372.420898438 365.942382812 233.850585938 427.961914062 125.950195312 c 1
 438.362304688 151.850585938 447.322265625 174.41015625 453.392578125 192.200195312 c 0
 455.4921875 198.120117188 457.612304688 204.110351562 459.751953125 210.140625 c 0
 493.112304688 305.700195312 505.90234375 415.41015625 500.862304688 501.110351562 c 1
 606.102539062 510.900390625 l 1
EndSplineSet
Validated: 524321
EndChar

StartChar: x
Encoding: 120 120 88
Width: 421
GlyphClass: 1
Flags: W
LayerCount: 2
Fore
SplineSet
413.700195312 445.290039062 m 1
 269.83984375 272.182617188 l 1
 347.139648438 163.192382812 413.169921875 57.662109375 413.169921875 57.662109375 c 1
 325.870117188 -1.908203125 l 1
 202.100585938 190.651367188 l 1
 48.060546875 5.3017578125 l 1
 23.6103515625 65.771484375 l 1
 31.669921875 110.401367188 85.759765625 194.381835938 146.319335938 277.44140625 c 1
 3.9990234375 498.861328125 l 1
 69.779296875 502.78125 l 1
 103.659179688 484.170898438 154.579101562 426.140625 206.918945312 357.860351562 c 1
 272.529296875 442.48046875 330.509765625 510.490234375 330.509765625 510.490234375 c 1
 413.700195312 445.290039062 l 1
EndSplineSet
Validated: 524289
EndChar

StartChar: y
Encoding: 121 121 89
Width: 444
GlyphClass: 1
Flags: W
LayerCount: 2
Fore
SplineSet
378.629882812 447.709960938 m 1
 431.979492188 341.099609375 476.170898438 -229.720703125 208.821289062 -93.630859375 c 0
 176.69140625 -77.28125 136.62109375 -41.0908203125 127.951171875 -27.951171875 c 1
 202.831054688 46.6484375 l 1
 226.861328125 21.3583984375 256.111328125 -4.0419921875 275.981445312 -7.15234375 c 0
 304.981445312 -11.7021484375 314.491210938 103.038085938 321.250976562 148.408203125 c 1
 298.770507812 127.23828125 298.880859375 130.23828125 283.951171875 119.138671875 c 0
 203.541015625 66.869140625 89.470703125 71.62890625 16.0009765625 99.4287109375 c 1
 39.6005859375 175.088867188 l 1
 20.5009765625 279.569335938 29.1806640625 441.349609375 103.610351562 510.6796875 c 1
 124.180664062 512.359375 144.650390625 513.349609375 165 513.639648438 c 1
 127.349609375 406.489257812 122 291.119140625 145.580078125 182.499023438 c 1
 220.240234375 181.758789062 284.23046875 214.869140625 326.270507812 266.26953125 c 1
 326.66015625 340.819335938 323.25 414.389648438 318.959960938 483.58984375 c 1
 378.629882812 447.709960938 l 1
EndSplineSet
Validated: 524321
EndChar

StartChar: z
Encoding: 122 122 90
Width: 439
GlyphClass: 1
Flags: W
LayerCount: 2
Fore
SplineSet
251.459960938 122 m 0
 341.450195312 129.6796875 422.768554688 123.849609375 422.768554688 123.849609375 c 1
 421.838867188 18.1591796875 l 1
 288.19921875 24.7890625 153.508789062 19.708984375 19.80859375 2.80859375 c 1
 23.9189453125 21.1689453125 28.21875 39.529296875 32.638671875 57.8896484375 c 1
 2.9990234375 86.4794921875 l 1
 332.94921875 408.979492188 l 1
 241.119140625 382.299804688 56.12890625 395.379882812 56.12890625 395.379882812 c 1
 56.12890625 501.0703125 l 1
 391.609375 484.690429688 l 1
 382.359375 457.280273438 l 1
 398.94921875 473.490234375 l 1
 417.809570312 411.58984375 l 1
 400.26953125 347.58984375 273.549804688 209.099609375 180.219726562 113.5 c 1
 203.58984375 117.280273438 227.76953125 120.169921875 251.459960938 122 c 0
EndSplineSet
Validated: 524321
EndChar

StartChar: braceleft
Encoding: 123 123 91
Width: 308
GlyphClass: 1
Flags: W
LayerCount: 2
Fore
SplineSet
200.110351562 -53.8896484375 m 0
 234.540039062 -55.3896484375 269.1875 -55.017578125 303.857421875 -52.517578125 c 1
 301.637695312 -71.837890625 299.078125 -91.177734375 296.188476562 -110.5078125 c 1
 235.978515625 -169.84765625 94.12890625 -152.6875 25.9990234375 -137.557617188 c 1
 43.9990234375 -33.27734375 l 1
 64.05859375 -37.7578125 84.3486328125 -41.5078125 104.7890625 -44.607421875 c 1
 63.26953125 44.162109375 145.099609375 216.522460938 34 249.782226562 c 1
 49.2099609375 306.541992188 l 1
 37.01953125 352.01171875 l 1
 149.669921875 389.452148438 68.1201171875 546.251953125 103.959960938 635.341796875 c 1
 83.7998046875 632.26171875 63.7900390625 628.571289062 44 624.130859375 c 1
 26 728.411132812 l 1
 102.549804688 745.090820312 239.200195312 758.850585938 296.190429688 701.370117188 c 1
 299.0703125 682.040039062 301.640625 662.700195312 303.860351562 643.379882812 c 1
 266.73046875 646.030273438 229.630859375 646.23046875 192.770507812 644.310546875 c 1
 172.020507812 534.200195312 250.0703125 391.419921875 154.100585938 299.299804688 c 1
 253.110351562 199.780273438 156.340820312 48.7607421875 195.750976562 -50.9697265625 c 0
 196.991210938 -52.01953125 198.510742188 -52.9794921875 200.110351562 -53.8896484375 c 0
EndSplineSet
Validated: 524321
EndChar

StartChar: verticalbar
Encoding: 124 124 92
Width: 193
GlyphClass: 1
Flags: W
VStem: 30 7<735.449 779.698> 42 25<772.994 781.393> 89 21<729.103 769.271> 105 3<-79.9926 -57.5414> 120 1<762.398 763> 127 23<701.021 752.33>
LayerCount: 2
Fore
SplineSet
162 738 m 1xec
 162 738 162 738 163 737 c 0
 157 720 159 692 162 671 c 1
 159 628 156 565 151 495 c 1
 141 444 129 415 118 384 c 1
 118 384 135 418 149 463 c 1
 137 274 121 42 112 -48 c 1
 109 -38 107 -33 108 -43 c 0
 111 -70 105 -80 105 -80 c 1xdc
 106 -68 103 -52 99 -37 c 0
 81 121 43 627 30 756 c 0
 30 773 34 782 36 785 c 2
 37 785 l 1
 31 755 49 699 49 699 c 1
 41 729 40 761 42 785 c 1
 49 784 57 782 67 780 c 1
 67 757 68 715 70 737 c 0
 74 765 83 773 83 773 c 1
 72 743 86 680 86 680 c 1
 80 714 84 750 89 774 c 1
 94 772 100 771 106 768 c 1
 106 746 107 710 110 730 c 0
 112 749 117 759 120 763 c 1
 121 763 l 1
 112 732 125 673 125 673 c 1
 120 704 123 737 127 761 c 1
 134 757 141 754 147 750 c 1
 147 730 148 680 150 702 c 0
 153 726 160 736 162 738 c 1xec
EndSplineSet
Validated: 33
EndChar

StartChar: braceright
Encoding: 125 125 93
Width: 308
GlyphClass: 1
Flags: W
HStem: -137.558 104.28<227.755 287.069>
LayerCount: 2
Fore
SplineSet
129.749023438 -53.8896484375 m 0
 95.3193359375 -55.3896484375 60.671875 -55.017578125 26.001953125 -52.517578125 c 1
 28.2216796875 -71.837890625 30.78125 -91.177734375 33.6708984375 -110.5078125 c 1
 93.880859375 -169.84765625 235.73046875 -152.6875 303.860351562 -137.557617188 c 1
 285.860351562 -33.27734375 l 1
 265.80078125 -37.7578125 245.510742188 -41.5078125 225.0703125 -44.607421875 c 1
 266.58984375 44.162109375 184.759765625 216.522460938 295.859375 249.782226562 c 1
 280.649414062 306.541992188 l 1
 292.83984375 352.01171875 l 1
 180.189453125 389.452148438 261.739257812 546.251953125 225.899414062 635.341796875 c 1
 246.059570312 632.26171875 266.069335938 628.571289062 285.859375 624.130859375 c 1
 303.859375 728.411132812 l 1
 227.309570312 745.090820312 90.6591796875 758.850585938 33.6689453125 701.370117188 c 1
 30.7890625 682.040039062 28.21875 662.700195312 25.9990234375 643.379882812 c 1
 63.12890625 646.030273438 100.228515625 646.23046875 137.088867188 644.310546875 c 1
 157.838867188 534.200195312 79.7890625 391.419921875 175.758789062 299.299804688 c 1
 76.7490234375 199.780273438 173.518554688 48.7607421875 134.108398438 -50.9697265625 c 0
 132.868164062 -52.01953125 131.348632812 -52.9794921875 129.749023438 -53.8896484375 c 0
EndSplineSet
Validated: 524329
EndChar

StartChar: exclamdown
Encoding: 161 161 95
Width: 189
GlyphClass: 1
Flags: W
LayerCount: 2
Fore
SplineSet
73.1796875 366.759765625 m 1
 38 404.889648438 l 1
 15.009765625 449.859375 85.6201171875 508.0390625 85.6201171875 508.0390625 c 1
 159.299804688 446.229492188 l 1
 73.1796875 366.759765625 l 1
60.3603515625 337.830078125 m 1
 115.849609375 306.150390625 l 1
 163.889648438 215.890625 131.639648438 -188.239257812 131.639648438 -188.239257812 c 1
 26 -184.599609375 l 1
 60.3603515625 337.830078125 l 1
EndSplineSet
Validated: 524321
EndChar

StartChar: cent
Encoding: 162 162 96
Width: 313
GlyphClass: 1
Flags: W
HStem: 60.998 49.998<121.698 147.999>
LayerCount: 2
Fore
SplineSet
204 407 m 2
 193.999023438 345.99609375 l 1
 153.33203125 332.663085938 118.999023438 311.830078125 90.9990234375 283.497070312 c 0
 62.9990234375 255.1640625 46.666015625 223.997070312 41.9990234375 189.997070312 c 0
 39.33203125 173.997070312 39.9990234375 157.830078125 43.9990234375 141.497070312 c 0
 47.9990234375 125.1640625 55.666015625 109.331054688 66.9990234375 93.998046875 c 0
 76.33203125 84.6650390625 88.4990234375 77.1650390625 103.499023438 71.498046875 c 0
 118.499023438 65.8310546875 133.33203125 62.3310546875 147.999023438 60.998046875 c 1
 138.999023438 0.998046875 l 2
 141.666015625 -6.3349609375 144.666015625 -11.001953125 147.999023438 -13.001953125 c 0
 151.33203125 -15.001953125 156.665039062 -16.3349609375 163.998046875 -17.001953125 c 2
 166.998046875 -17.001953125 l 2
 176.331054688 -17.001953125 181.998046875 -14.6689453125 183.998046875 -10.001953125 c 0
 185.998046875 -5.3349609375 190.998046875 2.998046875 198.998046875 14.998046875 c 1
 205.998046875 64.998046875 l 1
 224.665039062 68.998046875 241.83203125 75.1650390625 257.499023438 83.498046875 c 0
 273.166015625 91.8310546875 281.999023438 101.998046875 283.999023438 113.998046875 c 0
 283.999023438 117.331054688 283.666015625 120.331054688 282.999023438 122.998046875 c 0
 280.33203125 123.665039062 278.165039062 124.165039062 276.498046875 124.498046875 c 0
 274.831054688 124.831054688 273.331054688 124.998046875 271.998046875 124.998046875 c 2
 261.998046875 124.998046875 l 1
 247.331054688 120.998046875 231.998046875 117.665039062 215.998046875 114.998046875 c 1
 242.998046875 303.998046875 l 1
 252.331054688 303.331054688 259.331054688 300.331054688 263.998046875 294.998046875 c 0
 268.665039062 289.665039062 271.998046875 283.33203125 273.998046875 275.999023438 c 0
 275.998046875 268.666015625 277.331054688 261.166015625 277.998046875 253.499023438 c 0
 278.665039062 245.83203125 279.665039062 239.33203125 280.998046875 233.999023438 c 0
 281.665039062 228.666015625 283.498046875 225.666015625 286.498046875 224.999023438 c 0
 289.498046875 224.33203125 294.998046875 223.33203125 302.998046875 221.999023438 c 1
 321.665039062 231.33203125 332.33203125 243.999023438 334.999023438 259.999023438 c 0
 336.33203125 269.999023438 336.33203125 280.83203125 334.999023438 292.499023438 c 0
 333.666015625 304.166015625 330.666015625 314.833007812 325.999023438 324.5 c 0
 321.33203125 334.166992188 314.665039062 342.166992188 305.998046875 348.5 c 0
 297.331054688 354.833007812 285.998046875 358 271.998046875 358 c 2
 257.998046875 357 l 1
 265.998046875 401 l 2
 266.665039062 415 265.33203125 423.166992188 261.999023438 425.5 c 0
 258.666015625 427.833007812 251.666015625 429.333007812 240.999023438 430 c 2
 237.999023438 430 l 2
 228.666015625 430 221.833007812 428 217.5 424 c 0
 213.166992188 420 208.666992188 414.333007812 204 407 c 2
183.999023438 285.99609375 m 1
 159.998046875 110.99609375 l 1
 145.331054688 111.663085938 134.331054688 116.49609375 126.998046875 125.49609375 c 0
 119.665039062 134.49609375 114.33203125 143.663085938 110.999023438 152.99609375 c 0
 109.666015625 154.99609375 108.999023438 156.99609375 108.999023438 158.99609375 c 0
 108.999023438 160.99609375 108.33203125 163.329101562 106.999023438 165.99609375 c 2
 106.999023438 172.99609375 l 2
 107.666015625 175.663085938 107.666015625 177.99609375 106.999023438 179.99609375 c 0
 110.33203125 199.99609375 118.999023438 219.829101562 132.999023438 239.49609375 c 0
 146.999023438 259.163085938 163.999023438 274.663085938 183.999023438 285.99609375 c 1
EndSplineSet
Validated: 524329
EndChar

StartChar: sterling
Encoding: 163 163 97
Width: 344
GlyphClass: 1
Flags: W
HStem: -0.00292969 60.999<27.3278 95.9961 181.546 185.997 242.996 318.433> 9.49707 58.499<276.777 325.776> 200.997 58<226.653 319.294> 359.997 43<250.875 299.84>
LayerCount: 2
Fore
SplineSet
169 322 m 2xb0
 143.997070312 231.999023438 l 1
 134.6640625 230.666015625 125.1640625 228.666015625 115.497070312 225.999023438 c 0
 105.830078125 223.33203125 96.9970703125 220.165039062 88.9970703125 216.498046875 c 0
 80.9970703125 212.831054688 74.1640625 208.6640625 68.4970703125 203.997070312 c 0
 62.830078125 199.330078125 59.6630859375 194.663085938 58.99609375 189.99609375 c 2
 57.49609375 186.99609375 l 2
 57.1630859375 186.329101562 57.6630859375 185.329101562 58.99609375 183.99609375 c 0
 61.6630859375 175.329101562 66.1630859375 169.99609375 72.49609375 167.99609375 c 0
 78.8291015625 165.99609375 85.3291015625 164.99609375 91.99609375 164.99609375 c 2
 96.99609375 164.99609375 l 2
 100.99609375 164.99609375 103.329101562 165.329101562 103.99609375 165.99609375 c 2
 125.99609375 167.99609375 l 1
 95.99609375 60.99609375 l 1
 75.99609375 59.6630859375 58.3291015625 55.6630859375 42.99609375 48.99609375 c 0
 27.6630859375 42.3291015625 19.330078125 32.99609375 17.9970703125 20.99609375 c 0
 19.330078125 13.6630859375 24.1630859375 8.330078125 32.49609375 4.9970703125 c 0
 40.8291015625 1.6640625 50.3291015625 -0.0029296875 60.99609375 -0.0029296875 c 2
 210.99609375 -0.0029296875 l 2xb0
 220.99609375 -0.0029296875 231.663085938 0.1640625 242.99609375 0.4970703125 c 0
 254.329101562 0.830078125 265.329101562 1.830078125 275.99609375 3.4970703125 c 0
 286.663085938 5.1640625 296.49609375 7.1640625 305.49609375 9.4970703125 c 0
 314.49609375 11.830078125 321.329101562 14.9970703125 325.99609375 18.9970703125 c 0
 331.329101562 26.330078125 334.329101562 34.6630859375 334.99609375 43.99609375 c 0
 336.329101562 50.6630859375 335.829101562 56.1630859375 333.49609375 60.49609375 c 0
 331.163085938 64.8291015625 326.330078125 67.3291015625 318.997070312 67.99609375 c 0x70
 306.997070312 63.3291015625 292.6640625 60.99609375 275.997070312 60.99609375 c 2
 217.997070312 60.99609375 l 2
 213.997070312 60.99609375 209.497070312 61.1630859375 204.497070312 61.49609375 c 0
 199.497070312 61.8291015625 193.330078125 61.99609375 185.997070312 61.99609375 c 0
 181.997070312 62.6630859375 179.997070312 64.330078125 179.997070312 66.9970703125 c 2
 179.997070312 73.9970703125 l 1
 184.6640625 100.6640625 189.831054688 121.497070312 195.498046875 136.497070312 c 0
 201.165039062 151.497070312 208.33203125 163.1640625 216.999023438 171.497070312 c 0
 225.666015625 179.830078125 235.999023438 185.830078125 247.999023438 189.497070312 c 0
 259.999023438 193.1640625 274.666015625 196.997070312 291.999023438 200.997070312 c 0
 301.999023438 202.997070312 309.499023438 206.997070312 314.499023438 212.997070312 c 0
 319.499023438 218.997070312 322.666015625 225.6640625 323.999023438 232.997070312 c 0
 325.33203125 239.6640625 323.83203125 245.6640625 319.499023438 250.997070312 c 0
 315.166015625 256.330078125 308.333007812 258.997070312 299 258.997070312 c 0
 286.333007812 258.997070312 272 256.997070312 256 252.997070312 c 0
 240 248.997070312 225.666992188 245.997070312 213 243.997070312 c 1
 220 288.997070312 l 1
 231.333007812 312.997070312 241 328.997070312 249 336.997070312 c 0
 257 344.997070312 264 350.330078125 270 352.997070312 c 0
 276 355.6640625 281.5 357.997070312 286.5 359.997070312 c 0
 291.5 361.997070312 296.333007812 368.6640625 301 379.997070312 c 0
 302.333007812 381.330078125 303 383.330078125 303 385.997070312 c 0
 304.333007812 389.330078125 303.333007812 392.997070312 300 396.997070312 c 0
 296.666992188 400.997070312 288 402.997070312 274 402.997070312 c 2
 264 402.997070312 l 2
 260.666992188 402.997070312 254 401.330078125 244 397.997070312 c 2
 241 396.997070312 l 2
 237 395.6640625 232.166992188 393.831054688 226.5 391.498046875 c 0
 220.833007812 389.165039062 214.833007812 385.33203125 208.5 379.999023438 c 0
 202.166992188 374.666015625 195.5 367.333007812 188.5 358 c 0
 181.5 348.666992188 175 336.666992188 169 322 c 2xb0
EndSplineSet
Validated: 524297
EndChar

StartChar: yen
Encoding: 165 165 98
Width: 333
GlyphClass: 1
Flags: W
HStem: 43.9961 62<53.3021 107> 52.002 52.998<205.998 241.998> 133 58.998<251.061 276.997>
VStem: 43 327.998
LayerCount: 2
Fore
SplineSet
106 42 m 1x70
 106 42.99609375 l 1
 106.666992188 42.99609375 107 43.3291015625 107 43.99609375 c 1
 85 43.99609375 l 2
 76.3330078125 43.99609375 69.5 44.6630859375 64.5 45.99609375 c 0
 59.5 47.3291015625 52.3330078125 48.99609375 43 50.99609375 c 1
 42 56.99609375 l 1
 42 64.99609375 l 2
 44.6669921875 78.3291015625 55 88.49609375 73 95.49609375 c 0
 91 102.49609375 111.333007812 105.99609375 134 105.99609375 c 2
 135 105.99609375 l 1xb0
 137.666992188 111.329101562 139.333984375 115.329101562 140.000976562 117.99609375 c 0
 140.000976562 119.99609375 140.16796875 121.99609375 140.500976562 123.99609375 c 0
 140.833984375 125.99609375 141.333984375 128.329101562 142.000976562 130.99609375 c 1
 120.000976562 130.99609375 l 2
 111.333984375 130.99609375 104.500976562 131.663085938 99.5009765625 132.99609375 c 0
 94.5009765625 134.329101562 87.333984375 135.99609375 78.0009765625 137.99609375 c 1
 77.0009765625 143.99609375 l 1
 77.0009765625 151.99609375 l 2
 79.0009765625 162.663085938 86.0009765625 171.330078125 98.0009765625 177.997070312 c 0
 110.000976562 184.6640625 124.333984375 188.997070312 141.000976562 190.997070312 c 1
 137.66796875 203.6640625 132.66796875 215.497070312 126.000976562 226.497070312 c 0
 119.333984375 237.497070312 112.333984375 248.497070312 105.000976562 259.497070312 c 0
 97.66796875 270.497070312 90.5009765625 281.6640625 83.5009765625 292.997070312 c 0
 76.5009765625 304.330078125 71.333984375 316.997070312 68.0009765625 330.997070312 c 0
 66.0009765625 340.997070312 65.333984375 350.6640625 66.0009765625 359.997070312 c 0
 66.66796875 364.6640625 68.3349609375 368.6640625 71.001953125 371.997070312 c 0
 73.6689453125 375.330078125 78.6689453125 376.997070312 86.001953125 376.997070312 c 0
 101.334960938 376.997070312 114.834960938 370.830078125 126.501953125 358.497070312 c 0
 138.168945312 346.1640625 148.668945312 332.1640625 158.001953125 316.497070312 c 0
 167.334960938 300.830078125 175.66796875 285.830078125 183.000976562 271.497070312 c 0
 190.333984375 257.1640625 197.333984375 247.997070312 204.000976562 243.997070312 c 2
 206.000976562 242.997070312 l 2
 210.000976562 242.997070312 214.16796875 247.497070312 218.500976562 256.497070312 c 0
 222.833984375 265.497070312 227.666992188 276.497070312 233 289.497070312 c 0
 238.333007812 302.497070312 244.5 316.830078125 251.5 332.497070312 c 0
 258.5 348.1640625 266.5 362.497070312 275.5 375.497070312 c 0
 284.5 388.497070312 294.666992188 399.497070312 306 408.497070312 c 0
 317.333007812 417.497070312 330 421.997070312 344 421.997070312 c 2
 351 421.997070312 l 2
 354.333007812 421.330078125 358.166015625 419.330078125 362.499023438 415.997070312 c 0
 366.83203125 412.6640625 369.665039062 409.6640625 370.998046875 406.997070312 c 2
 371.998046875 403.997070312 l 2
 371.998046875 402.6640625 372.165039062 401.6640625 372.498046875 400.997070312 c 2
 372.998046875 399.997070312 l 1
 372.998046875 390.997070312 l 1
 350.331054688 354.997070312 328.998046875 321.830078125 308.998046875 291.497070312 c 0
 288.998046875 261.1640625 269.665039062 228.331054688 250.998046875 192.998046875 c 1
 252.331054688 192.331054688 254.6640625 191.998046875 257.997070312 191.998046875 c 2
 264.997070312 191.998046875 l 1
 276.997070312 191.998046875 l 1
 282.997070312 187.998046875 l 2
 295.6640625 180.665039062 301.331054688 173.998046875 299.998046875 167.998046875 c 0
 298.665039062 162.665039062 295.998046875 157.83203125 291.998046875 153.499023438 c 0
 287.998046875 149.166015625 277.665039062 144.333007812 260.998046875 139 c 2
 238.998046875 135 l 2
 235.665039062 134.333007812 232.498046875 133.833007812 229.498046875 133.5 c 0
 226.498046875 133.166992188 223.331054688 133 219.998046875 133 c 0
 217.331054688 128.333007812 214.998046875 123.833007812 212.998046875 119.5 c 0
 210.998046875 115.166992188 208.665039062 110.666992188 205.998046875 106 c 1
 207.998046875 106 l 2
 215.331054688 106 221.831054688 105.833007812 227.498046875 105.5 c 0
 233.165039062 105.166992188 237.998046875 105 241.998046875 105 c 2
 247.998046875 101 l 2
 260.665039062 93.6669921875 265.998046875 87 263.998046875 81 c 0
 263.331054688 75.6669921875 260.998046875 70.833984375 256.998046875 66.5009765625 c 0
 252.998046875 62.16796875 242.331054688 57.3349609375 224.998046875 52.001953125 c 2
 203.998046875 48.001953125 l 2
 201.331054688 47.3349609375 197.498046875 46.8349609375 192.498046875 46.501953125 c 0
 187.498046875 46.1689453125 181.665039062 45.6689453125 174.998046875 45.001953125 c 1
 160.998046875 -6.998046875 l 2
 158.998046875 -10.998046875 156.165039062 -14.3310546875 152.498046875 -16.998046875 c 0
 148.831054688 -19.6650390625 144.831054688 -21.83203125 140.498046875 -23.4990234375 c 0
 136.165039062 -25.166015625 132.165039062 -26.3330078125 128.498046875 -27 c 0
 124.831054688 -27.6669921875 122.331054688 -28 120.998046875 -28 c 0
 111.665039062 -28 105.33203125 -26.5 101.999023438 -23.5 c 0
 98.666015625 -20.5 96.3330078125 -13.3330078125 95 -2 c 1
 106 42 l 1x70
EndSplineSet
Validated: 524289
EndChar

StartChar: section
Encoding: 167 167 99
Width: 530
GlyphClass: 1
Flags: W
LayerCount: 2
Fore
SplineSet
446.021484375 312.740234375 m 1
 439.401367188 290.83984375 414.948242188 265.581054688 390.728515625 245.9609375 c 1
 429.868164062 217.600585938 459.038085938 181.510742188 477.087890625 145.250976562 c 1
 466.658203125 145.071289062 446.028320312 143.801757812 446.028320312 143.801757812 c 1
 383.688476562 20.69140625 212.12890625 -0.9990234375 106.838867188 35.55078125 c 1
 104.029296875 21.0107421875 101.569335938 6.37109375 99.6591796875 -8.3486328125 c 1
 -11.5205078125 -7.0791015625 39.7890625 141.331054688 64.9990234375 204.9609375 c 1
 93.138671875 197.951171875 131.298828125 188.481445312 154.2890625 182.791015625 c 1
 143.51953125 159.340820312 134.209960938 135.340820312 126.360351562 110.98046875 c 1
 223.110351562 72.400390625 334.5703125 106.650390625 388.379882812 161.430664062 c 1
 310.120117188 215.490234375 257.549804688 230.360351562 183.33984375 233.140625 c 1
 182.109375 249.500976562 l 1
 110.659179688 283.19140625 73.939453125 333.3515625 48.51953125 378.1015625 c 1
 58.939453125 378.37109375 69.259765625 378.911132812 79.58984375 379.641601562 c 1
 84.849609375 400.372070312 108.969726562 428.192382812 133.08984375 447.8125 c 1
 94.83984375 475.802734375 66.2294921875 511.342773438 48.509765625 547.0625 c 1
 58.9296875 547.2421875 69.25 547.782226562 79.580078125 548.512695312 c 1
 135.9296875 674.922851562 318.549804688 689.932617188 418.76953125 656.862304688 c 1
 423.919921875 679.032226562 428.0703125 701.482421875 430.990234375 724.112304688 c 1
 542.129882812 722.822265625 490.919921875 574.461914062 465.650390625 510.801757812 c 1
 425.600585938 520.702148438 l 1
 376.250976562 532.971679688 l 1
 383.770507812 549.151367188 390.500976562 565.6015625 396.560546875 582.321289062 c 1
 300.8203125 619.630859375 190.060546875 584.9609375 137.23046875 530.970703125 c 1
 214.100585938 476.780273438 266.831054688 462.919921875 342.260742188 459.259765625 c 1
 343.500976562 442.899414062 l 1
 411.930664062 412.939453125 457.420898438 350.7890625 477.081054688 314.189453125 c 1
 466.651367188 314.009765625 446.021484375 312.740234375 446.021484375 312.740234375 c 1
323.21875 298.991210938 m 1
 341.21875 308.391601562 357.028320312 320.051757812 369.408203125 332.791992188 c 1
 299.658203125 383.001953125 202.638671875 418.751953125 156.178710938 359.641601562 c 1
 187.098632812 329.931640625 275.938476562 297.471679688 323.21875 298.991210938 c 1
EndSplineSet
Validated: 524321
EndChar

StartChar: dieresis
Encoding: 168 168 100
Width: 210
GlyphClass: 1
Flags: W
LayerCount: 2
Fore
SplineSet
76.41015625 686.83984375 m 1
 99.4306640625 661.860351562 l 1
 114.48046875 632.419921875 68.25 594.309570312 68.25 594.309570312 c 1
 20 634.790039062 l 1
 76.41015625 686.83984375 l 1
183.900390625 661.870117188 m 1
 198.950195312 632.419921875 152.709960938 594.319335938 152.700195312 594.309570312 c 2
 104.459960938 634.790039062 l 1
 160.860351562 686.83984375 l 1
 183.900390625 661.870117188 l 1
EndSplineSet
Validated: 524321
EndChar

StartChar: copyright
Encoding: 169 169 101
Width: 565
GlyphClass: 1
Flags: W
LayerCount: 2
Fore
SplineSet
333.967773438 386.440429688 m 1
 301.39453125 398.048828125 l 1
 306.07421875 411.318359375 310.744140625 424.578125 315.423828125 437.837890625 c 1
 300.874023438 441.09765625 289.763671875 439.517578125 282.313476562 437.41796875 c 0
 246.943359375 427.3984375 221.502929688 384.868164062 218.432617188 330.868164062 c 0
 221.6328125 327.748046875 225.123046875 324.708007812 228.943359375 321.837890625 c 0
 261.993164062 296.967773438 301.893554688 297.198242188 323.713867188 299.358398438 c 1
 325.654296875 286.05859375 327.604492188 272.758789062 329.544921875 259.458984375 c 1
 319.325195312 258.279296875 249.015625 251.19921875 204.565429688 299.989257812 c 0
 191.955078125 313.838867188 184.575195312 328.739257812 180.155273438 341.1796875 c 1
 186.095703125 341.009765625 192.025390625 340.849609375 197.965820312 340.669921875 c 1
 189.446289062 406.729492188 218.965820312 462.33984375 261.725585938 476.509765625 c 0
 285.956054688 484.540039062 309.555664062 477.66015625 323.525390625 471.790039062 c 1
 324.755859375 478.299804688 325.85546875 484.830078125 326.725585938 491.41015625 c 1
 332.706054688 488.990234375 338.686523438 486.580078125 344.666992188 484.169921875 c 0
 352.317382812 474.830078125 351.9375 449.610351562 347.067382812 427.419921875 c 0
 344.737304688 416.3203125 341.497070312 406.020507812 338.77734375 398.560546875 c 0
 336.067382812 391.090820312 333.967773438 386.440429688 333.967773438 386.440429688 c 1
306.89453125 535.798828125 m 1
 39.404296875 463.588867188 101.295898438 216.098632812 244.565429688 122.778320312 c 1
 227.455078125 116.05859375 209.264648438 109.198242188 192.514648438 103.428710938 c 1
 -21.7451171875 172.05859375 -46.4951171875 555.168945312 254.174804688 636.728515625 c 1
 306.89453125 535.798828125 l 1
371.826171875 636.728515625 m 1
 586.095703125 568.098632812 610.844726562 184.998046875 310.165039062 103.438476562 c 1
 257.455078125 204.358398438 l 1
 524.9453125 276.55859375 463.065429688 524.068359375 319.78515625 617.368164062 c 1
 336.895507812 624.087890625 355.0859375 630.948242188 371.826171875 636.728515625 c 1
EndSplineSet
Validated: 524321
EndChar

StartChar: guillemotleft
Encoding: 171 171 102
Width: 442
GlyphClass: 1
Flags: W
LayerCount: 2
Fore
SplineSet
251.6796875 388.139648438 m 1
 211.830078125 367.44921875 173.3984375 343.51953125 136.798828125 316.719726562 c 1
 174.44921875 287.419921875 214.609375 260.979492188 256.869140625 237.819335938 c 1
 246.489257812 225.829101562 235.9296875 213.939453125 225.189453125 202.1796875 c 1
 172.989257812 185.209960938 60.279296875 262.549804688 21.9990234375 301.870117188 c 1
 76.638671875 367.950195312 l 1
 77.3388671875 367.299804688 78.05859375 366.6796875 78.7587890625 366.029296875 c 1
 115.239257812 407.389648438 171.399414062 443.69921875 207.689453125 461.739257812 c 1
 251.6796875 388.139648438 l 1
295.5078125 320.08984375 m 1
 333.147460938 290.809570312 373.315429688 264.358398438 415.575195312 241.188476562 c 1
 405.185546875 229.188476562 394.625976562 217.30859375 383.885742188 205.5390625 c 1
 331.685546875 188.569335938 218.985351562 265.909179688 180.685546875 305.239257812 c 1
 235.345703125 371.309570312 l 1
 236.045898438 370.669921875 236.765625 370.040039062 237.465820312 369.400390625 c 1
 273.956054688 410.75 330.106445312 447.059570312 366.396484375 465.109375 c 1
 410.38671875 391.509765625 l 1
 370.537109375 370.830078125 332.107421875 346.889648438 295.5078125 320.08984375 c 1
EndSplineSet
Validated: 524321
EndChar

StartChar: softhyphen
Encoding: 173 173 103
Width: 191
GlyphClass: 1
Flags: W
HStem: 178.001 62.001<53.285 166.656> 182 4<166 167> 186.004 52.998<166 183>
LayerCount: 2
Fore
SplineSet
167 186 m 1x40
 166 186.00390625 l 1
 183.333007812 191.336914062 194 196.169921875 198 200.502929688 c 0
 202 204.8359375 204.333007812 209.668945312 205 215.001953125 c 0
 207 221.001953125 201.666992188 227.668945312 189 235.001953125 c 2
 183 239.001953125 l 2x60
 179 239.001953125 174.166992188 239.168945312 168.5 239.501953125 c 0
 162.833007812 239.834960938 156.333007812 240.001953125 149 240.001953125 c 2
 134 240.001953125 l 2
 112 239.334960938 91.6669921875 235.66796875 73 229.000976562 c 0
 54.3330078125 222.333984375 44 212.333984375 42 199.000976562 c 2
 42 191.000976562 l 1
 43 185.000976562 l 1
 52.3330078125 183.000976562 59.5 181.333984375 64.5 180.000976562 c 0
 69.5 178.66796875 76.3330078125 178.000976562 85 178.000976562 c 2
 104 178.000976562 l 2x80
 112.666992188 178.66796875 119.5 179.16796875 124.5 179.500976562 c 0
 129.5 179.833984375 136.333007812 180.666992188 145 182 c 2
 167 186 l 1x40
EndSplineSet
Validated: 524297
EndChar

